TwilioSansMono-MediumItalic.ufo
<glyph name="dollar" format="2">
	<unicode hex="0024"/>
	<advance width="600"/>
	<outline>
		<contour>
			<point x="134" y="-93" type="line"/>
			<point x="220" y="-93" type="line"/>
			<point x="246" y="-9" type="line"/>
			<point x="258" y="-10"/>
			<point x="270" y="-11"/>
			<point x="282" y="-11" type="curve" smooth="yes"/>
			<point x="436" y="-11"/>
			<point x="542" y="74"/>
			<point x="542" y="217" type="curve" smooth="yes"/>
			<point x="542" y="324"/>
			<point x="475" y="357"/>
			<point x="363" y="385" type="curve"/>
			<point x="426" y="595" type="line"/>
			<point x="481" y="584"/>
			<point x="533" y="561"/>
			<point x="569" y="531" type="curve"/>
			<point x="583" y="627" type="line"/>
			<point x="552" y="650"/>
			<point x="508" y="669"/>
			<point x="457" y="682" type="curve"/>
			<point x="484" y="774" type="line"/>
			<point x="398" y="774" type="line"/>
			<point x="374" y="694" type="line"/>
			<point x="363" y="695"/>
			<point x="352" y="695"/>
			<point x="341" y="695" type="curve" smooth="yes"/>
			<point x="179" y="695"/>
			<point x="84" y="608"/>
			<point x="84" y="474" type="curve" smooth="yes"/>
			<point x="84" y="358"/>
			<point x="162" y="323"/>
			<point x="256" y="300" type="curve"/>
			<point x="194" y="93" type="line"/>
			<point x="143" y="107"/>
			<point x="92" y="134"/>
			<point x="50" y="173" type="curve"/>
			<point x="36" y="71" type="line"/>
			<point x="68" y="43"/>
			<point x="113" y="20"/>
			<point x="164" y="5" type="curve"/>
		</contour>
		<contour>
			<point x="194" y="494" type="curve" smooth="yes"/>
			<point x="194" y="565"/>
			<point x="247" y="605"/>
			<point x="338" y="605" type="curve" smooth="yes"/>
			<point x="349" y="605" type="line"/>
			<point x="288" y="404" type="line"/>
			<point x="226" y="421"/>
			<point x="194" y="440"/>
		</contour>
		<contour>
			<point x="432" y="194" type="curve" smooth="yes"/>
			<point x="432" y="121"/>
			<point x="374" y="80"/>
			<point x="285" y="80" type="curve" smooth="yes"/>
			<point x="271" y="80" type="line"/>
			<point x="333" y="284" type="line"/>
			<point x="396" y="269"/>
			<point x="432" y="252"/>
		</contour>
	</outline>
</glyph>
<glyph name="ampersand" format="2">
	<unicode hex="0026"/>
	<advance width="600"/>
	<outline>
		<contour>
			<point x="213" y="-14" type="curve" smooth="yes"/>
			<point x="286" y="-14"/>
			<point x="349" y="10"/>
			<point x="402" y="52" type="curve"/>
			<point x="441" y="0" type="line"/>
			<point x="573" y="0" type="line"/>
			<point x="476" y="131" type="line"/>
			<point x="524" y="200"/>
			<point x="560" y="290"/>
			<point x="584" y="394" type="curve"/>
			<point x="483" y="394" type="line"/>
			<point x="465" y="320"/>
			<point x="443" y="259"/>
			<point x="417" y="211" type="curve"/>
			<point x="290" y="382" type="line" smooth="yes"/>
			<point x="259" y="423"/>
			<point x="239" y="453"/>
			<point x="239" y="499" type="curve" smooth="yes"/>
			<point x="239" y="565"/>
			<point x="282" y="607"/>
			<point x="357" y="607" type="curve" smooth="yes"/>
			<point x="415" y="607"/>
			<point x="480" y="583"/>
			<point x="524" y="550" type="curve"/>
			<point x="537" y="646" type="line"/>
			<point x="495" y="673"/>
			<point x="427" y="698"/>
			<point x="352" y="698" type="curve" smooth="yes"/>
			<point x="210" y="698"/>
			<point x="130" y="606"/>
			<point x="130" y="491" type="curve" smooth="yes"/>
			<point x="130" y="459"/>
			<point x="138" y="430"/>
			<point x="150" y="403" type="curve"/>
			<point x="69" y="359"/>
			<point x="4" y="283"/>
			<point x="4" y="179" type="curve" smooth="yes"/>
			<point x="4" y="63"/>
			<point x="80" y="-14"/>
		</contour>
		<contour>
			<point x="111" y="192" type="curve" smooth="yes"/>
			<point x="109" y="257"/>
			<point x="148" y="304"/>
			<point x="198" y="327" type="curve"/>
			<point x="350" y="123" type="line"/>
			<point x="315" y="92"/>
			<point x="276" y="77"/>
			<point x="234" y="77" type="curve" smooth="yes"/>
			<point x="157" y="77"/>
			<point x="112" y="121"/>
		</contour>
	</outline>
</glyph>
<glyph name="parenright" format="2">
	<unicode hex="0029"/>
	<advance width="600"/>
	<outline>
		<contour>
			<point x="51" y="-76" type="curve"/>
			<point x="73" y="-168" type="line"/>
			<point x="309" y="-105"/>
			<point x="414" y="57"/>
			<point x="446" y="285" type="curve" smooth="yes"/>
			<point x="480" y="525"/>
			<point x="412" y="706"/>
			<point x="208" y="798" type="curve"/>
			<point x="164" y="707" type="line"/>
			<point x="331" y="635"/>
			<point x="370" y="484"/>
			<point x="343" y="293" type="curve" smooth="yes"/>
			<point x="317" y="104"/>
			<point x="237" y="-24"/>
		</contour>
	</outline>
</glyph>
<glyph name="asterisk" format="2">
	<unicode hex="002A"/>
	<advance width="600"/>
	<outline>
		<contour>
			<point x="101" y="154" type="line"/>
			<point x="279" y="280" type="line"/>
			<point x="222" y="78" type="line"/>
			<point x="328" y="78" type="line"/>
			<point x="327" y="278" type="line"/>
			<point x="469" y="154" type="line"/>
			<point x="534" y="245" type="line"/>
			<point x="358" y="320" type="line"/>
			<point x="556" y="396" type="line"/>
			<point x="517" y="487" type="line"/>
			<point x="340" y="363" type="line"/>
			<point x="396" y="564" type="line"/>
			<point x="291" y="564" type="line"/>
			<point x="291" y="362" type="line"/>
			<point x="148" y="488" type="line"/>
			<point x="82" y="397" type="line"/>
			<point x="262" y="321" type="line"/>
			<point x="61" y="245" type="line"/>
		</contour>
	</outline>
</glyph>
<glyph name="plus" format="2">
	<unicode hex="002B"/>
	<advance width="600"/>
	<outline>
		<contour>
			<point x="288" y="528" type="line"/>
			<point x="262" y="346" type="line"/>
			<point x="84" y="346" type="line"/>
			<point x="69" y="251" type="line"/>
			<point x="249" y="251" type="line"/>
			<point x="223" y="68" type="line"/>
			<point x="321" y="68" type="line"/>
			<point x="347" y="251" type="line"/>
			<point x="526" y="251" type="line"/>
			<point x="540" y="346" type="line"/>
			<point x="360" y="346" type="line"/>
			<point x="386" y="528" type="line"/>
		</contour>
	</outline>
</glyph>
<glyph name="comma" format="2">
	<unicode hex="002C"/>
	<advance width="600"/>
	<outline>
		<contour>
			<point x="233" y="140" type="line"/>
			<point x="138" y="-175" type="line"/>
			<point x="219" y="-175" type="line"/>
			<point x="385" y="140" type="line"/>
		</contour>
	</outline>
</glyph>
<glyph name="period" format="2">
	<unicode hex="002E"/>
	<advance width="600"/>
	<outline>
		<contour>
			<point x="267" y="-12" type="curve" smooth="yes"/>
			<point x="324" y="-12"/>
			<point x="351" y="11"/>
			<point x="358" y="60" type="curve" smooth="yes"/>
			<point x="366" y="115"/>
			<point x="341" y="144"/>
			<point x="279" y="144" type="curve" smooth="yes"/>
			<point x="221" y="144"/>
			<point x="194" y="120"/>
			<point x="188" y="71" type="curve" smooth="yes"/>
			<point x="179" y="16"/>
			<point x="204" y="-12"/>
		</contour>
	</outline>
</glyph>
<glyph name="zero" format="2">
	<unicode hex="0030"/>
	<advance width="600"/>
	<outline>
		<contour>
			<point x="281" y="-14" type="curve" smooth="yes"/>
			<point x="438" y="-14"/>
			<point x="528" y="110"/>
			<point x="556" y="303" type="curve" smooth="yes"/>
			<point x="558" y="317" type="line" smooth="yes"/>
			<point x="593" y="563"/>
			<point x="516" y="698"/>
			<point x="341" y="698" type="curve" smooth="yes"/>
			<point x="188" y="698"/>
			<point x="95" y="574"/>
			<point x="67" y="380" type="curve" smooth="yes"/>
			<point x="65" y="366" type="line" smooth="yes"/>
			<point x="30" y="121"/>
			<point x="106" y="-14"/>
		</contour>
		<contour>
			<point x="286" y="79" type="curve" smooth="yes"/>
			<point x="178" y="79"/>
			<point x="144" y="178"/>
			<point x="170" y="357" type="curve" smooth="yes"/>
			<point x="171" y="364" type="line" smooth="yes"/>
			<point x="193" y="522"/>
			<point x="247" y="605"/>
			<point x="336" y="605" type="curve" smooth="yes"/>
			<point x="445" y="605"/>
			<point x="479" y="506"/>
			<point x="453" y="329" type="curve" smooth="yes"/>
			<point x="452" y="322" type="line" smooth="yes"/>
			<point x="430" y="163"/>
			<point x="379" y="79"/>
		</contour>
		<contour>
			<point x="306" y="269" type="curve" smooth="yes"/>
			<point x="346" y="269"/>
			<point x="369" y="289"/>
			<point x="375" y="337" type="curve" smooth="yes"/>
			<point x="383" y="394"/>
			<point x="359" y="417"/>
			<point x="317" y="417" type="curve" smooth="yes"/>
			<point x="276" y="417"/>
			<point x="254" y="397"/>
			<point x="248" y="349" type="curve" smooth="yes"/>
			<point x="240" y="292"/>
			<point x="264" y="269"/>
		</contour>
	</outline>
</glyph>
<glyph name="one" format="2">
	<unicode hex="0031"/>
	<advance width="600"/>
	<outline>
		<contour>
			<point x="21" y="0" type="line"/>
			<point x="528" y="0" type="line"/>
			<point x="542" y="99" type="line"/>
			<point x="354" y="99" type="line"/>
			<point x="436" y="684" type="line"/>
			<point x="321" y="684" type="line"/>
			<point x="98" y="523" type="line"/>
			<point x="82" y="410" type="line"/>
			<point x="308" y="570" type="line"/>
			<point x="242" y="99" type="line"/>
			<point x="34" y="99" type="line"/>
		</contour>
	</outline>
</glyph>
<glyph name="five" format="2">
	<unicode hex="0035"/>
	<advance width="600"/>
	<outline>
		<contour>
			<point x="262" y="-13" type="curve" smooth="yes"/>
			<point x="424" y="-13"/>
			<point x="525" y="85"/>
			<point x="524" y="241" type="curve" smooth="yes"/>
			<point x="523" y="369"/>
			<point x="445" y="421"/>
			<point x="310" y="421" type="curve" smooth="yes"/>
			<point x="275" y="421"/>
			<point x="246" y="418"/>
			<point x="219" y="411" type="curve"/>
			<point x="245" y="591" type="line"/>
			<point x="564" y="591" type="line"/>
			<point x="577" y="684" type="line"/>
			<point x="154" y="684" type="line"/>
			<point x="101" y="302" type="line"/>
			<point x="152" y="320"/>
			<point x="204" y="333"/>
			<point x="266" y="333" type="curve" smooth="yes"/>
			<point x="365" y="333"/>
			<point x="408" y="300"/>
			<point x="409" y="227" type="curve" smooth="yes"/>
			<point x="410" y="134"/>
			<point x="352" y="81"/>
			<point x="259" y="81" type="curve" smooth="yes"/>
			<point x="196" y="81"/>
			<point x="120" y="105"/>
			<point x="56" y="162" type="curve"/>
			<point x="42" y="63" type="line"/>
			<point x="87" y="21"/>
			<point x="164" y="-13"/>
		</contour>
	</outline>
</glyph>
<glyph name="seven" format="2">
	<unicode hex="0037"/>
	<advance width="600"/>
	<outline>
		<contour>
			<point x="103" y="0" type="line"/>
			<point x="230" y="0" type="line"/>
			<point x="596" y="577" type="line"/>
			<point x="611" y="684" type="line"/>
			<point x="118" y="684" type="line"/>
			<point x="86" y="467" type="line"/>
			<point x="188" y="467" type="line"/>
			<point x="206" y="596" type="line"/>
			<point x="484" y="596" type="line"/>
		</contour>
	</outline>
</glyph>
<glyph name="eight" format="2">
	<unicode hex="0038"/>
	<advance width="600"/>
	<outline>
		<contour>
			<point x="278" y="-14" type="curve" smooth="yes"/>
			<point x="451" y="-14"/>
			<point x="544" y="71"/>
			<point x="544" y="199" type="curve" smooth="yes"/>
			<point x="544" y="278"/>
			<point x="500" y="327"/>
			<point x="417" y="346" type="curve"/>
			<point x="516" y="366"/>
			<point x="579" y="430"/>
			<point x="579" y="531" type="curve" smooth="yes"/>
			<point x="579" y="638"/>
			<point x="493" y="698"/>
			<point x="346" y="698" type="curve" smooth="yes"/>
			<point x="192" y="698"/>
			<point x="97" y="628"/>
			<point x="97" y="499" type="curve" smooth="yes"/>
			<point x="97" y="421"/>
			<point x="143" y="372"/>
			<point x="208" y="354" type="curve"/>
			<point x="100" y="338"/>
			<point x="34" y="273"/>
			<point x="34" y="165" type="curve" smooth="yes"/>
			<point x="34" y="39"/>
			<point x="139" y="-14"/>
		</contour>
		<contour>
			<point x="329" y="392" type="curve" smooth="yes"/>
			<point x="252" y="392"/>
			<point x="204" y="430"/>
			<point x="204" y="492" type="curve" smooth="yes"/>
			<point x="204" y="569"/>
			<point x="250" y="611"/>
			<point x="340" y="611" type="curve" smooth="yes"/>
			<point x="418" y="611"/>
			<point x="467" y="581"/>
			<point x="467" y="514" type="curve" smooth="yes"/>
			<point x="467" y="436"/>
			<point x="418" y="392"/>
		</contour>
		<contour>
			<point x="284" y="74" type="curve" smooth="yes"/>
			<point x="204" y="74"/>
			<point x="148" y="107"/>
			<point x="148" y="181" type="curve" smooth="yes"/>
			<point x="148" y="263"/>
			<point x="199" y="306"/>
			<point x="295" y="306" type="curve" smooth="yes"/>
			<point x="386" y="306"/>
			<point x="430" y="273"/>
			<point x="430" y="206" type="curve" smooth="yes"/>
			<point x="430" y="123"/>
			<point x="377" y="74"/>
		</contour>
	</outline>
</glyph>
<glyph name="less" format="2">
	<unicode hex="003C"/>
	<advance width="600"/>
	<outline>
		<contour>
			<point x="496" y="30" type="line"/>
			<point x="511" y="136" type="line"/>
			<point x="166" y="296" type="line"/>
			<point x="556" y="457" type="line"/>
			<point x="572" y="569" type="line"/>
			<point x="85" y="360" type="line"/>
			<point x="68" y="238" type="line"/>
		</contour>
	</outline>
</glyph>
<glyph name="question" format="2">
	<unicode hex="003F"/>
	<advance width="600"/>
	<outline>
		<contour>
			<point x="218" y="212" type="curve"/>
			<point x="317" y="212" type="line"/>
			<point x="320" y="240" type="line" smooth="yes"/>
			<point x="334" y="364"/>
			<point x="540" y="366"/>
			<point x="540" y="537" type="curve" smooth="yes"/>
			<point x="540" y="632"/>
			<point x="472" y="698"/>
			<point x="337" y="698" type="curve" smooth="yes"/>
			<point x="261" y="698"/>
			<point x="200" y="678"/>
			<point x="150" y="649" type="curve"/>
			<point x="136" y="547" type="line"/>
			<point x="185" y="580"/>
			<point x="246" y="602"/>
			<point x="314" y="602" type="curve" smooth="yes"/>
			<point x="388" y="602"/>
			<point x="427" y="573"/>
			<point x="427" y="520" type="curve" smooth="yes"/>
			<point x="427" y="411"/>
			<point x="233" y="411"/>
			<point x="218" y="250" type="curve" smooth="yes"/>
			<point x="216" y="232"/>
			<point x="217" y="218"/>
		</contour>
		<contour>
			<point x="245" y="-12" type="curve" smooth="yes"/>
			<point x="298" y="-12"/>
			<point x="322" y="9"/>
			<point x="328" y="52" type="curve" smooth="yes"/>
			<point x="335" y="103"/>
			<point x="311" y="129"/>
			<point x="255" y="129" type="curve" smooth="yes"/>
			<point x="202" y="129"/>
			<point x="178" y="108"/>
			<point x="173" y="65" type="curve" smooth="yes"/>
			<point x="165" y="13"/>
			<point x="189" y="-12"/>
		</contour>
	</outline>
</glyph>
<glyph name="at" format="2">
	<unicode hex="0040"/>
	<advance width="600"/>
	<outline>
		<contour>
			<point x="328" y="-135" type="curve" smooth="yes"/>
			<point x="399" y="-135"/>
			<point x="459" y="-118"/>
			<point x="495" y="-99" type="curve"/>
			<point x="506" y="-10" type="line"/>
			<point x="459" y="-35"/>
			<point x="401" y="-46"/>
			<point x="338" y="-46" type="curve" smooth="yes"/>
			<point x="172" y="-46"/>
			<point x="108" y="73"/>
			<point x="139" y="292" type="curve" smooth="yes"/>
			<point x="140" y="299" type="line" smooth="yes"/>
			<point x="170" y="507"/>
			<point x="238" y="611"/>
			<point x="362" y="611" type="curve" smooth="yes"/>
			<point x="463" y="611"/>
			<point x="494" y="552"/>
			<point x="480" y="451" type="curve" smooth="yes"/>
			<point x="474" y="400" type="line"/>
			<point x="458" y="459"/>
			<point x="423" y="492"/>
			<point x="363" y="492" type="curve" smooth="yes"/>
			<point x="282" y="492"/>
			<point x="220" y="420"/>
			<point x="201" y="289" type="curve" smooth="yes"/>
			<point x="181" y="146"/>
			<point x="225" y="62"/>
			<point x="319" y="62" type="curve" smooth="yes"/>
			<point x="377" y="62"/>
			<point x="415" y="101"/>
			<point x="440" y="156" type="curve"/>
			<point x="427" y="67" type="line"/>
			<point x="519" y="67" type="line"/>
			<point x="573" y="451" type="line" smooth="yes"/>
			<point x="596" y="611"/>
			<point x="531" y="698"/>
			<point x="370" y="698" type="curve" smooth="yes"/>
			<point x="183" y="698"/>
			<point x="81" y="560"/>
			<point x="45" y="311" type="curve" smooth="yes"/>
			<point x="43" y="297" type="line" smooth="yes"/>
			<point x="2" y="8"/>
			<point x="113" y="-135"/>
		</contour>
		<contour>
			<point x="362" y="140" type="curve" smooth="yes"/>
			<point x="308" y="140"/>
			<point x="280" y="188"/>
			<point x="293" y="282" type="curve" smooth="yes"/>
			<point x="306" y="373"/>
			<point x="340" y="415"/>
			<point x="389" y="415" type="curve" smooth="yes"/>
			<point x="440" y="415"/>
			<point x="472" y="370"/>
			<point x="459" y="274" type="curve" smooth="yes"/>
			<point x="448" y="188"/>
			<point x="414" y="140"/>
		</contour>
	</outline>
</glyph>
<glyph name="A" format="2">
	<unicode hex="0041"/>
	<advance width="600"/>
	<outline>
		<contour>
			<point x="-19" y="0" type="line"/>
			<point x="100" y="0" type="line"/>
			<point x="167" y="161" type="line"/>
			<point x="408" y="161" type="line"/>
			<point x="430" y="0" type="line"/>
			<point x="545" y="0" type="line"/>
			<point x="436" y="686" type="line"/>
			<point x="281" y="686" type="line"/>
		</contour>
		<contour>
			<point x="205" y="253" type="line"/>
			<point x="348" y="599" type="line"/>
			<point x="395" y="253" type="line"/>
		</contour>
	</outline>
	<anchor name="ogonek" x="545" y="0"/>
	<anchor name="bottom" x="288" y="0"/>
	<anchor name="top" x="358" y="684"/>
</glyph>
<glyph name="E" format="2">
	<unicode hex="0045"/>
	<advance width="600"/>
	<outline>
		<contour>
			<point x="143" y="684" type="line"/>
			<point x="47" y="0" type="line"/>
			<point x="500" y="0" type="line"/>
			<point x="514" y="94" type="line"/>
			<point x="172" y="94" type="line"/>
			<point x="201" y="296" type="line"/>
			<point x="497" y="296" type="line"/>
			<point x="511" y="389" type="line"/>
			<point x="215" y="389" type="line"/>
			<point x="243" y="591" type="line"/>
			<point x="577" y="591" type="line"/>
			<point x="591" y="684" type="line"/>
		</contour>
	</outline>
	<anchor name="ogonek" x="500" y="0"/>
	<anchor name="bottom" x="300" y="0"/>
	<anchor name="top" x="365" y="684"/>
</glyph>
<glyph name="F" format="2">
	<unicode hex="0046"/>
	<advance width="600"/>
	<outline>
		<contour>
			<point x="53" y="0" type="line"/>
			<point x="166" y="1" type="line"/>
			<point x="206" y="288" type="line"/>
			<point x="507" y="288" type="line"/>
			<point x="520" y="381" type="line"/>
			<point x="218" y="381" type="line"/>
			<point x="249" y="591" type="line"/>
			<point x="589" y="591" type="line"/>
			<point x="602" y="684" type="line"/>
			<point x="149" y="684" type="line"/>
		</contour>
	</outline>
	<anchor name="ogonek" x="530" y="0"/>
	<anchor name="bottom" x="295" y="0"/>
	<anchor name="top" x="380" y="684"/>
</glyph>
<glyph name="G" format="2">
	<unicode hex="0047"/>
	<advance width="600"/>
	<outline>
		<contour>
			<point x="284" y="-14" type="curve" smooth="yes"/>
			<point x="442" y="-14"/>
			<point x="531" y="81"/>
			<point x="560" y="286" type="curve" smooth="yes"/>
			<point x="574" y="384" type="line"/>
			<point x="303" y="384" type="line"/>
			<point x="290" y="293" type="line"/>
			<point x="450" y="293" type="line"/>
			<point x="449" y="283" type="line"/>
			<point x="432" y="151"/>
			<point x="388" y="80"/>
			<point x="290" y="80" type="curve" smooth="yes"/>
			<point x="182" y="80"/>
			<point x="138" y="173"/>
			<point x="164" y="354" type="curve" smooth="yes"/>
			<point x="165" y="361" type="line" smooth="yes"/>
			<point x="188" y="522"/>
			<point x="248" y="606"/>
			<point x="378" y="606" type="curve" smooth="yes"/>
			<point x="451" y="606"/>
			<point x="519" y="576"/>
			<point x="556" y="541" type="curve"/>
			<point x="571" y="639" type="line"/>
			<point x="532" y="669"/>
			<point x="462" y="698"/>
			<point x="371" y="698" type="curve" smooth="yes"/>
			<point x="183" y="698"/>
			<point x="82" y="574"/>
			<point x="54" y="380" type="curve" smooth="yes"/>
			<point x="52" y="366" type="line" smooth="yes"/>
			<point x="19" y="135"/>
			<point x="86" y="-14"/>
		</contour>
	</outline>
	<anchor name="top" x="374" y="684"/>
	<anchor name="bottom" x="277" y="0"/>
</glyph>
<glyph name="N" format="2">
	<unicode hex="004E"/>
	<advance width="600"/>
	<outline>
		<contour>
			<point x="31" y="0" type="line"/>
			<point x="135" y="0" type="line"/>
			<point x="179" y="312" type="line" smooth="yes"/>
			<point x="192" y="403"/>
			<point x="192" y="477"/>
			<point x="193" y="556" type="curve"/>
			<point x="199" y="556" type="line"/>
			<point x="357" y="0" type="line"/>
			<point x="496" y="0" type="line"/>
			<point x="592" y="684" type="line"/>
			<point x="487" y="684" type="line"/>
			<point x="443" y="373" type="line" smooth="yes"/>
			<point x="429" y="273"/>
			<point x="429" y="208"/>
			<point x="430" y="128" type="curve"/>
			<point x="423" y="128" type="line"/>
			<point x="265" y="684" type="line"/>
			<point x="127" y="684" type="line"/>
		</contour>
	</outline>
	<anchor name="top" x="380" y="684"/>
	<anchor name="bottom" x="243" y="0"/>
</glyph>
<glyph name="O" format="2">
	<unicode hex="004F"/>
	<advance width="600"/>
	<outline>
		<contour>
			<point x="279" y="-14" type="curve" smooth="yes"/>
			<point x="441" y="-14"/>
			<point x="528" y="113"/>
			<point x="556" y="306" type="curve" smooth="yes"/>
			<point x="558" y="320" type="line" smooth="yes"/>
			<point x="593" y="566"/>
			<point x="520" y="698"/>
			<point x="346" y="698" type="curve" smooth="yes"/>
			<point x="188" y="698"/>
			<point x="94" y="570"/>
			<point x="66" y="377" type="curve" smooth="yes"/>
			<point x="64" y="363" type="line" smooth="yes"/>
			<point x="29" y="118"/>
			<point x="102" y="-14"/>
		</contour>
		<contour>
			<point x="283" y="79" type="curve" smooth="yes"/>
			<point x="186" y="79"/>
			<point x="152" y="170"/>
			<point x="179" y="356" type="curve" smooth="yes"/>
			<point x="180" y="363" type="line" smooth="yes"/>
			<point x="204" y="532"/>
			<point x="257" y="605"/>
			<point x="341" y="605" type="curve" smooth="yes"/>
			<point x="437" y="605"/>
			<point x="470" y="514"/>
			<point x="443" y="330" type="curve" smooth="yes"/>
			<point x="442" y="323" type="line" smooth="yes"/>
			<point x="418" y="153"/>
			<point x="368" y="79"/>
		</contour>
	</outline>
	<anchor name="center" x="316" y="349"/>
	<anchor name="bottom" x="271" y="0"/>
	<anchor name="top" x="359" y="684"/>
</glyph>
<glyph name="R" format="2">
	<unicode hex="0052"/>
	<advance width="600"/>
	<outline>
		<contour>
			<point x="33" y="0" type="line"/>
			<point x="145" y="0" type="line"/>
			<point x="181" y="256" type="line"/>
			<point x="292" y="256" type="line" smooth="yes"/>
			<point x="366" y="256"/>
			<point x="384" y="223"/>
			<point x="391" y="159" type="curve" smooth="yes"/>
			<point x="408" y="0" type="line"/>
			<point x="525" y="0" type="line"/>
			<point x="503" y="178" type="line" smooth="yes"/>
			<point x="494" y="249"/>
			<point x="467" y="289"/>
			<point x="410" y="302" type="curve"/>
			<point x="511" y="317"/>
			<point x="584" y="380"/>
			<point x="583" y="503" type="curve" smooth="yes"/>
			<point x="583" y="613"/>
			<point x="510" y="684"/>
			<point x="382" y="684" type="curve" smooth="yes"/>
			<point x="129" y="684" type="line"/>
		</contour>
		<contour>
			<point x="356" y="593" type="line" smooth="yes"/>
			<point x="431" y="593"/>
			<point x="469" y="550"/>
			<point x="469" y="484" type="curve" smooth="yes"/>
			<point x="469" y="394"/>
			<point x="418" y="347"/>
			<point x="334" y="347" type="curve" smooth="yes"/>
			<point x="194" y="347" type="line"/>
			<point x="228" y="593" type="line"/>
		</contour>
	</outline>
	<anchor name="top" x="340" y="684"/>
	<anchor name="bottom" x="276" y="0"/>
</glyph>
<glyph name="S" format="2">
	<unicode hex="0053"/>
	<advance width="600"/>
	<outline>
		<contour>
			<point x="285" y="-14" type="curve" smooth="yes"/>
			<point x="436" y="-14"/>
			<point x="536" y="76"/>
			<point x="536" y="216" type="curve" smooth="yes"/>
			<point x="536" y="337"/>
			<point x="457" y="366"/>
			<point x="333" y="395" type="curve" smooth="yes"/>
			<point x="248" y="415"/>
			<point x="203" y="431"/>
			<point x="203" y="496" type="curve" smooth="yes"/>
			<point x="203" y="565"/>
			<point x="251" y="606"/>
			<point x="337" y="606" type="curve" smooth="yes"/>
			<point x="416" y="606"/>
			<point x="507" y="577"/>
			<point x="562" y="530" type="curve"/>
			<point x="577" y="629" type="line"/>
			<point x="526" y="667"/>
			<point x="443" y="697"/>
			<point x="338" y="697" type="curve" smooth="yes"/>
			<point x="181" y="697"/>
			<point x="90" y="608"/>
			<point x="90" y="474" type="curve" smooth="yes"/>
			<point x="90" y="341"/>
			<point x="186" y="313"/>
			<point x="294" y="289" type="curve" smooth="yes"/>
			<point x="373" y="272"/>
			<point x="423" y="262"/>
			<point x="423" y="194" type="curve" smooth="yes"/>
			<point x="423" y="123"/>
			<point x="369" y="79"/>
			<point x="285" y="79" type="curve" smooth="yes"/>
			<point x="203" y="79"/>
			<point x="119" y="111"/>
			<point x="58" y="173" type="curve"/>
			<point x="43" y="70" type="line"/>
			<point x="101" y="19"/>
			<point x="185" y="-14"/>
		</contour>
	</outline>
	<anchor name="top" x="364" y="684"/>
	<anchor name="bottom" x="277" y="0"/>
</glyph>
<glyph name="T" format="2">
	<unicode hex="0054"/>
	<advance width="600"/>
	<outline>
		<contour>
			<point x="206" y="0" type="line"/>
			<point x="319" y="0" type="line"/>
			<point x="401" y="586" type="line"/>
			<point x="605" y="586" type="line"/>
			<point x="619" y="684" type="line"/>
			<point x="99" y="684" type="line"/>
			<point x="86" y="586" type="line"/>
			<point x="288" y="586" type="line"/>
		</contour>
	</outline>
	<anchor name="center" x="311" y="351"/>
	<anchor name="bottom" x="262" y="0"/>
	<anchor name="top" x="359" y="684"/>
</glyph>
<glyph name="U" format="2">
	<unicode hex="0055"/>
	<advance width="600"/>
	<outline>
		<contour>
			<point x="269" y="-14" type="curve" smooth="yes"/>
			<point x="424" y="-14"/>
			<point x="507" y="73"/>
			<point x="529" y="225" type="curve" smooth="yes"/>
			<point x="593" y="684" type="line"/>
			<point x="481" y="684" type="line"/>
			<point x="417" y="225" type="line" smooth="yes"/>
			<point x="404" y="139"/>
			<point x="366" y="80"/>
			<point x="281" y="80" type="curve" smooth="yes"/>
			<point x="196" y="80"/>
			<point x="162" y="145"/>
			<point x="175" y="237" type="curve" smooth="yes"/>
			<point x="238" y="684" type="line"/>
			<point x="125" y="684" type="line"/>
			<point x="63" y="242" type="line" smooth="yes"/>
			<point x="40" y="77"/>
			<point x="115" y="-14"/>
		</contour>
	</outline>
	<anchor name="ogonek" x="367" y="0"/>
	<anchor name="bottom" x="253" y="0"/>
	<anchor name="top" x="359" y="684"/>
</glyph>
<glyph name="V" format="2">
	<unicode hex="0056"/>
	<advance width="600"/>
	<outline>
		<contour>
			<point x="182" y="-2" type="line"/>
			<point x="341" y="-2" type="line"/>
			<point x="635" y="684" type="line"/>
			<point x="515" y="684" type="line"/>
			<point x="274" y="98" type="line"/>
			<point x="198" y="684" type="line"/>
			<point x="83" y="684" type="line"/>
		</contour>
	</outline>
	<anchor name="overlap" x="365" y="684"/>
	<anchor name="ogonek" x="565" y="0"/>
	<anchor name="top" x="368" y="684"/>
	<anchor name="bottom" x="276" y="0"/>
</glyph>
<glyph name="X" format="2">
	<unicode hex="0058"/>
	<advance width="600"/>
	<outline>
		<contour>
			<point x="-13" y="0" type="line"/>
			<point x="117" y="0" type="line"/>
			<point x="302" y="277" type="line"/>
			<point x="415" y="0" type="line"/>
			<point x="539" y="0" type="line"/>
			<point x="387" y="358" type="line"/>
			<point x="621" y="684" type="line"/>
			<point x="492" y="684" type="line"/>
			<point x="322" y="440" type="line"/>
			<point x="219" y="684" type="line"/>
			<point x="97" y="684" type="line"/>
			<point x="239" y="361" type="line"/>
		</contour>
	</outline>
	<anchor name="top" x="369" y="684"/>
	<anchor name="bottom" x="278" y="0"/>
</glyph>
<glyph name="bracketleft" format="2">
	<unicode hex="005B"/>
	<advance width="600"/>
	<outline>
		<contour>
			<point x="442" y="-81" type="line"/>
			<point x="240" y="-81" type="line"/>
			<point x="351" y="710" type="line"/>
			<point x="553" y="710" type="line"/>
			<point x="565" y="792" type="line"/>
			<point x="259" y="792" type="line"/>
			<point x="124" y="-163" type="line"/>
			<point x="430" y="-163" type="line"/>
		</contour>
	</outline>
</glyph>
<glyph name="b" format="2">
	<unicode hex="0062"/>
	<advance width="600"/>
	<outline>
		<contour>
			<point x="381" y="537" type="curve" smooth="yes"/>
			<point x="316" y="537"/>
			<point x="259" y="504"/>
			<point x="215" y="426" type="curve"/>
			<point x="261" y="750" type="line"/>
			<point x="150" y="750" type="line"/>
			<point x="45" y="0" type="line"/>
			<point x="226" y="0" type="line" smooth="yes"/>
			<point x="405" y="0"/>
			<point x="516" y="98"/>
			<point x="539" y="260" type="curve" smooth="yes"/>
			<point x="541" y="274" type="line" smooth="yes"/>
			<point x="565" y="439"/>
			<point x="498" y="537"/>
		</contour>
		<contour>
			<point x="428" y="272" type="curve" smooth="yes"/>
			<point x="427" y="265" type="line"/>
			<point x="409" y="145"/>
			<point x="346" y="87"/>
			<point x="236" y="87" type="curve" smooth="yes"/>
			<point x="168" y="87" type="line"/>
			<point x="198" y="303" type="line" smooth="yes"/>
			<point x="210" y="389"/>
			<point x="257" y="448"/>
			<point x="331" y="448" type="curve" smooth="yes"/>
			<point x="405" y="448"/>
			<point x="444" y="386"/>
		</contour>
	</outline>
</glyph>
<glyph name="e" format="2">
	<unicode hex="0065"/>
	<advance width="600"/>
	<outline>
		<contour>
			<point x="313" y="-14" type="curve" smooth="yes"/>
			<point x="389" y="-14"/>
			<point x="446" y="3"/>
			<point x="483" y="23" type="curve"/>
			<point x="495" y="112" type="line"/>
			<point x="456" y="92"/>
			<point x="402" y="77"/>
			<point x="339" y="77" type="curve" smooth="yes"/>
			<point x="227" y="77"/>
			<point x="172" y="133"/>
			<point x="173" y="231" type="curve"/>
			<point x="531" y="231" type="line"/>
			<point x="537" y="271" type="line" smooth="yes"/>
			<point x="560" y="435"/>
			<point x="478" y="537"/>
			<point x="329" y="537" type="curve" smooth="yes"/>
			<point x="196" y="537"/>
			<point x="90" y="444"/>
			<point x="69" y="296" type="curve" smooth="yes"/>
			<point x="67" y="282" type="line" smooth="yes"/>
			<point x="44" y="117"/>
			<point x="117" y="-14"/>
		</contour>
		<contour>
			<point x="323" y="456" type="curve" smooth="yes"/>
			<point x="399" y="456"/>
			<point x="442" y="402"/>
			<point x="433" y="307" type="curve"/>
			<point x="179" y="307" type="line"/>
			<point x="195" y="401"/>
			<point x="250" y="456"/>
		</contour>
	</outline>
	<anchor name="ogonek" x="425" y="0"/>
	<anchor name="top" x="345" y="534"/>
</glyph>
<glyph name="f" format="2">
	<unicode hex="0066"/>
	<advance width="600"/>
	<outline>
		<contour>
			<point x="93" y="-204" type="curve" smooth="yes"/>
			<point x="192" y="-204"/>
			<point x="275" y="-163"/>
			<point x="294" y="-28" type="curve" smooth="yes"/>
			<point x="358" y="434" type="line"/>
			<point x="559" y="434" type="line"/>
			<point x="571" y="523" type="line"/>
			<point x="371" y="523" type="line"/>
			<point x="381" y="592" type="line" smooth="yes"/>
			<point x="389" y="654"/>
			<point x="427" y="675"/>
			<point x="482" y="675" type="curve" smooth="yes"/>
			<point x="519" y="675"/>
			<point x="559" y="665"/>
			<point x="583" y="654" type="curve"/>
			<point x="595" y="735" type="line"/>
			<point x="567" y="748"/>
			<point x="515" y="760"/>
			<point x="467" y="760" type="curve" smooth="yes"/>
			<point x="366" y="760"/>
			<point x="285" y="714"/>
			<point x="271" y="604" type="curve" smooth="yes"/>
			<point x="260" y="523" type="line"/>
			<point x="102" y="523" type="line"/>
			<point x="88" y="434" type="line"/>
			<point x="247" y="434" type="line"/>
			<point x="183" y="-14" type="line" smooth="yes"/>
			<point x="173" y="-83"/>
			<point x="147" y="-117"/>
			<point x="79" y="-117" type="curve" smooth="yes"/>
			<point x="40" y="-117"/>
			<point x="4" y="-107"/>
			<point x="-25" y="-92" type="curve"/>
			<point x="-36" y="-175" type="line"/>
			<point x="-7" y="-191"/>
			<point x="43" y="-204"/>
		</contour>
	</outline>
</glyph>
<glyph name="g" format="2">
	<unicode hex="0067"/>
	<advance width="600"/>
	<outline>
		<contour>
			<point x="201" y="-207" type="curve" smooth="yes"/>
			<point x="230" y="-207" type="line" smooth="yes"/>
			<point x="405" y="-207"/>
			<point x="521" y="-139"/>
			<point x="521" y="-26" type="curve" smooth="yes"/>
			<point x="521" y="50"/>
			<point x="463" y="87"/>
			<point x="350" y="87" type="curve" smooth="yes"/>
			<point x="222" y="87" type="line" smooth="yes"/>
			<point x="175" y="87"/>
			<point x="152" y="94"/>
			<point x="152" y="116" type="curve" smooth="yes"/>
			<point x="152" y="146"/>
			<point x="194" y="165"/>
			<point x="253" y="165" type="curve" smooth="yes"/>
			<point x="278" y="165" type="line" smooth="yes"/>
			<point x="405" y="165"/>
			<point x="503" y="236"/>
			<point x="503" y="352" type="curve" smooth="yes"/>
			<point x="503" y="385"/>
			<point x="489" y="416"/>
			<point x="471" y="434" type="curve"/>
			<point x="580" y="434" type="line"/>
			<point x="594" y="523" type="line"/>
			<point x="305" y="523" type="line" smooth="yes"/>
			<point x="176" y="523"/>
			<point x="78" y="446"/>
			<point x="78" y="328" type="curve" smooth="yes"/>
			<point x="78" y="257"/>
			<point x="116" y="205"/>
			<point x="177" y="181" type="curve"/>
			<point x="92" y="164"/>
			<point x="46" y="129"/>
			<point x="46" y="79" type="curve" smooth="yes"/>
			<point x="46" y="40"/>
			<point x="74" y="15"/>
			<point x="131" y="7" type="curve"/>
			<point x="36" y="-11"/>
			<point x="-13" y="-52"/>
			<point x="-13" y="-103" type="curve" smooth="yes"/>
			<point x="-13" y="-168"/>
			<point x="52" y="-207"/>
		</contour>
		<contour>
			<point x="400" y="353" type="curve" smooth="yes"/>
			<point x="400" y="285"/>
			<point x="356" y="236"/>
			<point x="284" y="236" type="curve" smooth="yes"/>
			<point x="221" y="236"/>
			<point x="184" y="273"/>
			<point x="184" y="332" type="curve" smooth="yes"/>
			<point x="184" y="403"/>
			<point x="227" y="451"/>
			<point x="300" y="451" type="curve" smooth="yes"/>
			<point x="362" y="451"/>
			<point x="400" y="416"/>
		</contour>
		<contour>
			<point x="254" y="-126" type="curve" smooth="yes"/>
			<point x="221" y="-126" type="line"/>
			<point x="139" y="-126"/>
			<point x="96" y="-111"/>
			<point x="96" y="-71" type="curve" smooth="yes"/>
			<point x="96" y="-31"/>
			<point x="151" y="-3"/>
			<point x="222" y="-3" type="curve" smooth="yes"/>
			<point x="315" y="-3" type="line" smooth="yes"/>
			<point x="382" y="-3"/>
			<point x="411" y="-19"/>
			<point x="411" y="-51" type="curve" smooth="yes"/>
			<point x="411" y="-99"/>
			<point x="352" y="-126"/>
		</contour>
	</outline>
	<anchor name="top" x="332" y="523"/>
	<anchor name="bottom" x="257" y="-96"/>
</glyph>
<glyph name="h" format="2">
	<unicode hex="0068"/>
	<advance width="600"/>
	<outline>
		<contour>
			<point x="390" y="537" type="curve" smooth="yes"/>
			<point x="316" y="537"/>
			<point x="260" y="496"/>
			<point x="218" y="425" type="curve"/>
			<point x="263" y="750" type="line"/>
			<point x="152" y="750" type="line"/>
			<point x="47" y="0" type="line"/>
			<point x="158" y="0" type="line"/>
			<point x="204" y="321" type="line" smooth="yes"/>
			<point x="207" y="343"/>
			<point x="214" y="364"/>
			<point x="227" y="383" type="curve" smooth="yes"/>
			<point x="248" y="417"/>
			<point x="280" y="445"/>
			<point x="331" y="445" type="curve" smooth="yes"/>
			<point x="395" y="445"/>
			<point x="431" y="403"/>
			<point x="418" y="311" type="curve" smooth="yes"/>
			<point x="373" y="0" type="line"/>
			<point x="484" y="0" type="line"/>
			<point x="531" y="330" type="line" smooth="yes"/>
			<point x="550" y="464"/>
			<point x="491" y="537"/>
		</contour>
	</outline>
	<anchor name="center" x="234" y="628"/>
	<anchor name="caron" x="307" y="745"/>
	<anchor name="top" x="204" y="728"/>
	<anchor name="bottom" x="264" y="0"/>
</glyph>
<glyph name="m" format="2">
	<unicode hex="006D"/>
	<advance width="600"/>
	<outline>
		<contour>
			<point x="12" y="0" type="line"/>
			<point x="111" y="0" type="line"/>
			<point x="163" y="366" type="line" smooth="yes"/>
			<point x="166" y="388"/>
			<point x="173" y="411"/>
			<point x="186" y="427" type="curve" smooth="yes"/>
			<point x="196" y="440"/>
			<point x="211" y="449"/>
			<point x="229" y="449" type="curve" smooth="yes"/>
			<point x="260" y="449"/>
			<point x="275" y="424"/>
			<point x="268" y="376" type="curve" smooth="yes"/>
			<point x="216" y="0" type="line"/>
			<point x="311" y="0" type="line"/>
			<point x="362" y="362" type="line"/>
			<point x="362" y="361" type="line"/>
			<point x="366" y="386"/>
			<point x="373" y="411"/>
			<point x="387" y="428" type="curve" smooth="yes"/>
			<point x="398" y="441"/>
			<point x="412" y="449"/>
			<point x="430" y="449" type="curve" smooth="yes"/>
			<point x="460" y="449"/>
			<point x="475" y="424"/>
			<point x="468" y="376" type="curve" smooth="yes"/>
			<point x="416" y="0" type="line"/>
			<point x="515" y="0" type="line"/>
			<point x="569" y="391" type="line" smooth="yes"/>
			<point x="583" y="490"/>
			<point x="548" y="537"/>
			<point x="488" y="537" type="curve" smooth="yes"/>
			<point x="437" y="537"/>
			<point x="397" y="502"/>
			<point x="368" y="444" type="curve"/>
			<point x="364" y="504"/>
			<point x="333" y="537"/>
			<point x="286" y="537" type="curve" smooth="yes"/>
			<point x="233" y="537"/>
			<point x="198" y="503"/>
			<point x="172" y="445" type="curve"/>
			<point x="183" y="523" type="line"/>
			<point x="86" y="523" type="line"/>
		</contour>
	</outline>
	<anchor name="top" x="373" y="524"/>
	<anchor name="bottom" x="252" y="0"/>
</glyph>
<glyph name="o" format="2">
	<unicode hex="006F"/>
	<advance width="600"/>
	<outline>
		<contour>
			<point x="281" y="-14" type="curve" smooth="yes"/>
			<point x="422" y="-14"/>
			<point x="516" y="79"/>
			<point x="538" y="230" type="curve" smooth="yes"/>
			<point x="540" y="244" type="line" smooth="yes"/>
			<point x="565" y="420"/>
			<point x="479" y="537"/>
			<point x="321" y="537" type="curve" smooth="yes"/>
			<point x="185" y="537"/>
			<point x="84" y="444"/>
			<point x="62" y="294" type="curve" smooth="yes"/>
			<point x="60" y="280" type="line" smooth="yes"/>
			<point x="34" y="100"/>
			<point x="122" y="-14"/>
		</contour>
		<contour>
			<point x="285" y="75" type="curve" smooth="yes"/>
			<point x="202" y="75"/>
			<point x="155" y="143"/>
			<point x="174" y="273" type="curve" smooth="yes"/>
			<point x="175" y="280" type="line" smooth="yes"/>
			<point x="191" y="394"/>
			<point x="244" y="449"/>
			<point x="315" y="449" type="curve" smooth="yes"/>
			<point x="398" y="449"/>
			<point x="445" y="382"/>
			<point x="426" y="251" type="curve" smooth="yes"/>
			<point x="425" y="244" type="line" smooth="yes"/>
			<point x="409" y="130"/>
			<point x="357" y="75"/>
		</contour>
	</outline>
	<anchor name="center" x="300" y="269"/>
	<anchor name="bottom" x="258" y="-6"/>
	<anchor name="top" x="333" y="523"/>
</glyph>
<glyph name="p" format="2">
	<unicode hex="0070"/>
	<advance width="600"/>
	<outline>
		<contour>
			<point x="381" y="537" type="curve" smooth="yes"/>
			<point x="315" y="537"/>
			<point x="255" y="502"/>
			<point x="211" y="421" type="curve"/>
			<point x="225" y="523" type="line"/>
			<point x="118" y="523" type="line"/>
			<point x="18" y="-194" type="line"/>
			<point x="129" y="-194" type="line"/>
			<point x="156" y="0" type="line"/>
			<point x="231" y="0" type="line" smooth="yes"/>
			<point x="405" y="0"/>
			<point x="516" y="98"/>
			<point x="539" y="260" type="curve" smooth="yes"/>
			<point x="541" y="274" type="line" smooth="yes"/>
			<point x="565" y="439"/>
			<point x="498" y="537"/>
		</contour>
		<contour>
			<point x="428" y="272" type="curve" smooth="yes"/>
			<point x="427" y="265" type="line"/>
			<point x="409" y="145"/>
			<point x="346" y="87"/>
			<point x="236" y="87" type="curve" smooth="yes"/>
			<point x="168" y="87" type="line"/>
			<point x="198" y="303" type="line" smooth="yes"/>
			<point x="210" y="389"/>
			<point x="257" y="448"/>
			<point x="331" y="448" type="curve" smooth="yes"/>
			<point x="405" y="448"/>
			<point x="444" y="386"/>
		</contour>
	</outline>
	<anchor name="ogonek" x="143" y="550"/>
	<anchor name="bottom" x="262" y="0"/>
</glyph>
<glyph name="q" format="2">
	<unicode hex="0071"/>
	<advance width="600"/>
	<outline>
		<contour>
			<point x="344" y="-194" type="line"/>
			<point x="455" y="-194" type="line"/>
			<point x="555" y="523" type="line"/>
			<point x="374" y="523" type="line" smooth="yes"/>
			<point x="197" y="523"/>
			<point x="84" y="424"/>
			<point x="61" y="262" type="curve" smooth="yes"/>
			<point x="59" y="248" type="line" smooth="yes"/>
			<point x="35" y="82"/>
			<point x="101" y="-14"/>
			<point x="218" y="-14" type="curve" smooth="yes"/>
			<point x="287" y="-14"/>
			<point x="344" y="20"/>
			<point x="385" y="98" type="curve"/>
		</contour>
		<contour>
			<point x="270" y="75" type="curve" smooth="yes"/>
			<point x="194" y="75"/>
			<point x="156" y="139"/>
			<point x="172" y="252" type="curve" smooth="yes"/>
			<point x="173" y="259" type="line" smooth="yes"/>
			<point x="191" y="379"/>
			<point x="256" y="435"/>
			<point x="364" y="435" type="curve" smooth="yes"/>
			<point x="432" y="435" type="line"/>
			<point x="401" y="218" type="line" smooth="yes"/>
			<point x="389" y="135"/>
			<point x="343" y="75"/>
		</contour>
	</outline>
</glyph>
<glyph name="s" format="2">
	<unicode hex="0073"/>
	<advance width="600"/>
	<outline>
		<contour>
			<point x="272" y="-14" type="curve" smooth="yes"/>
			<point x="418" y="-14"/>
			<point x="500" y="53"/>
			<point x="500" y="168" type="curve" smooth="yes"/>
			<point x="500" y="270"/>
			<point x="421" y="291"/>
			<point x="317" y="312" type="curve" smooth="yes"/>
			<point x="242" y="328"/>
			<point x="209" y="336"/>
			<point x="209" y="380" type="curve" smooth="yes"/>
			<point x="209" y="427"/>
			<point x="249" y="453"/>
			<point x="317" y="453" type="curve" smooth="yes"/>
			<point x="388" y="453"/>
			<point x="476" y="430"/>
			<point x="528" y="389" type="curve"/>
			<point x="540" y="485" type="line"/>
			<point x="487" y="518"/>
			<point x="405" y="538"/>
			<point x="326" y="538" type="curve" smooth="yes"/>
			<point x="177" y="538"/>
			<point x="100" y="463"/>
			<point x="100" y="357" type="curve" smooth="yes"/>
			<point x="100" y="256"/>
			<point x="179" y="231"/>
			<point x="283" y="212" type="curve" smooth="yes"/>
			<point x="362" y="199"/>
			<point x="393" y="189"/>
			<point x="393" y="146" type="curve" smooth="yes"/>
			<point x="393" y="95"/>
			<point x="350" y="72"/>
			<point x="279" y="72" type="curve" smooth="yes"/>
			<point x="215" y="72"/>
			<point x="132" y="91"/>
			<point x="72" y="141" type="curve"/>
			<point x="59" y="47" type="line"/>
			<point x="104" y="12"/>
			<point x="183" y="-14"/>
		</contour>
	</outline>
	<anchor name="top" x="350" y="523"/>
	<anchor name="bottom" x="273" y="0"/>
</glyph>
<glyph name="t" format="2">
	<unicode hex="0074"/>
	<advance width="600"/>
	<outline>
		<contour>
			<point x="354" y="-12" type="curve" smooth="yes"/>
			<point x="406" y="-12"/>
			<point x="451" y="-1"/>
			<point x="475" y="11" type="curve"/>
			<point x="486" y="96" type="line"/>
			<point x="463" y="86"/>
			<point x="426" y="78"/>
			<point x="391" y="78" type="curve" smooth="yes"/>
			<point x="315" y="78"/>
			<point x="284" y="107"/>
			<point x="296" y="194" type="curve" smooth="yes"/>
			<point x="329" y="434" type="line"/>
			<point x="536" y="434" type="line"/>
			<point x="549" y="523" type="line"/>
			<point x="343" y="523" type="line"/>
			<point x="367" y="692" type="line"/>
			<point x="271" y="692" type="line"/>
			<point x="248" y="584" type="line" smooth="yes"/>
			<point x="236" y="528"/>
			<point x="211" y="518"/>
			<point x="172" y="518" type="curve" smooth="yes"/>
			<point x="91" y="518" type="line"/>
			<point x="80" y="434" type="line"/>
			<point x="219" y="434" type="line"/>
			<point x="184" y="181" type="line" smooth="yes"/>
			<point x="164" y="39"/>
			<point x="233" y="-12"/>
		</contour>
	</outline>
	<anchor name="caron" x="505" y="780"/>
	<anchor name="bottom" x="320" y="0"/>
	<anchor name="center" x="284" y="287"/>
</glyph>
<glyph name="v" format="2">
	<unicode hex="0076"/>
	<advance width="600"/>
	<outline>
		<contour>
			<point x="249" y="-14" type="curve" smooth="yes"/>
			<point x="420" y="-14"/>
			<point x="523" y="121"/>
			<point x="546" y="316" type="curve" smooth="yes"/>
			<point x="556" y="394"/>
			<point x="550" y="463"/>
			<point x="535" y="522" type="curve"/>
			<point x="428" y="523" type="line"/>
			<point x="442" y="465"/>
			<point x="448" y="405"/>
			<point x="440" y="331" type="curve" smooth="yes"/>
			<point x="421" y="172"/>
			<point x="358" y="74"/>
			<point x="267" y="74" type="curve" smooth="yes"/>
			<point x="220" y="74"/>
			<point x="197" y="99"/>
			<point x="205" y="154" type="curve" smooth="yes"/>
			<point x="255" y="523" type="line"/>
			<point x="56" y="523" type="line"/>
			<point x="44" y="435" type="line"/>
			<point x="137" y="435" type="line"/>
			<point x="97" y="147" type="line" smooth="yes"/>
			<point x="83" y="46"/>
			<point x="133" y="-14"/>
		</contour>
	</outline>
</glyph>
<glyph name="w" format="2">
	<unicode hex="0077"/>
	<advance width="600"/>
	<outline>
		<contour>
			<point x="118" y="-14" type="curve" smooth="yes"/>
			<point x="171" y="-14"/>
			<point x="212" y="26"/>
			<point x="237" y="83" type="curve"/>
			<point x="245" y="18"/>
			<point x="284" y="-13"/>
			<point x="357" y="-13" type="curve" smooth="yes"/>
			<point x="474" y="-13"/>
			<point x="538" y="90"/>
			<point x="562" y="273" type="curve" smooth="yes"/>
			<point x="575" y="358"/>
			<point x="578" y="450"/>
			<point x="570" y="523" type="curve"/>
			<point x="473" y="523" type="line"/>
			<point x="480" y="447"/>
			<point x="477" y="365"/>
			<point x="465" y="278" type="curve" smooth="yes"/>
			<point x="444" y="132"/>
			<point x="419" y="73"/>
			<point x="372" y="73" type="curve" smooth="yes"/>
			<point x="338" y="73"/>
			<point x="326" y="100"/>
			<point x="332" y="144" type="curve" smooth="yes"/>
			<point x="387" y="523" type="line"/>
			<point x="292" y="523" type="line"/>
			<point x="239" y="152" type="line" smooth="yes"/>
			<point x="233" y="111"/>
			<point x="212" y="73"/>
			<point x="172" y="73" type="curve" smooth="yes"/>
			<point x="140" y="73"/>
			<point x="127" y="97"/>
			<point x="133" y="143" type="curve" smooth="yes"/>
			<point x="187" y="523" type="line"/>
			<point x="89" y="523" type="line"/>
			<point x="31" y="112" type="line" smooth="yes"/>
			<point x="20" y="33"/>
			<point x="50" y="-14"/>
		</contour>
	</outline>
	<anchor name="top" x="340" y="523"/>
</glyph>
<glyph name="x" format="2">
	<unicode hex="0078"/>
	<advance width="600"/>
	<outline>
		<contour>
			<point x="15" y="0" type="line"/>
			<point x="142" y="0" type="line"/>
			<point x="290" y="198" type="line"/>
			<point x="391" y="0" type="line"/>
			<point x="511" y="0" type="line"/>
			<point x="372" y="274" type="line"/>
			<point x="574" y="523" type="line"/>
			<point x="449" y="523" type="line"/>
			<point x="309" y="346" type="line"/>
			<point x="221" y="523" type="line"/>
			<point x="99" y="523" type="line"/>
			<point x="232" y="273" type="line"/>
		</contour>
	</outline>
	<anchor name="top" x="366" y="523"/>
	<anchor name="bottom" x="297" y="0"/>
</glyph>
<glyph name="braceright" format="2">
	<unicode hex="007D"/>
	<advance width="600"/>
	<outline>
		<contour>
			<point x="45" y="-163" type="line"/>
			<point x="220" y="-163" type="line" smooth="yes"/>
			<point x="329" y="-163"/>
			<point x="393" y="-107"/>
			<point x="393" y="-22" type="curve" smooth="yes"/>
			<point x="393" y="63"/>
			<point x="321" y="130"/>
			<point x="321" y="194" type="curve" smooth="yes"/>
			<point x="321" y="234"/>
			<point x="350" y="267"/>
			<point x="398" y="267" type="curve" smooth="yes"/>
			<point x="486" y="267" type="line"/>
			<point x="500" y="364" type="line"/>
			<point x="421" y="364" type="line" smooth="yes"/>
			<point x="373" y="364"/>
			<point x="356" y="393"/>
			<point x="356" y="420" type="curve" smooth="yes"/>
			<point x="356" y="497"/>
			<point x="491" y="543"/>
			<point x="491" y="665" type="curve" smooth="yes"/>
			<point x="491" y="734"/>
			<point x="445" y="792"/>
			<point x="336" y="792" type="curve" smooth="yes"/>
			<point x="180" y="792" type="line"/>
			<point x="168" y="710" type="line"/>
			<point x="291" y="710" type="line" smooth="yes"/>
			<point x="346" y="710"/>
			<point x="375" y="689"/>
			<point x="375" y="646" type="curve" smooth="yes"/>
			<point x="375" y="558"/>
			<point x="243" y="517"/>
			<point x="243" y="413" type="curve" smooth="yes"/>
			<point x="243" y="366"/>
			<point x="283" y="328"/>
			<point x="339" y="316" type="curve"/>
			<point x="284" y="308"/>
			<point x="211" y="276"/>
			<point x="211" y="195" type="curve" smooth="yes"/>
			<point x="211" y="118"/>
			<point x="284" y="58"/>
			<point x="284" y="-9" type="curve" smooth="yes"/>
			<point x="284" y="-64"/>
			<point x="245" y="-81"/>
			<point x="185" y="-81" type="curve" smooth="yes"/>
			<point x="57" y="-81" type="line"/>
		</contour>
	</outline>
</glyph>
<glyph name="exclamdown" format="2">
	<unicode hex="00A1"/>
	<advance width="600"/>
	<outline>
		<contour>
			<point x="333" y="535" type="curve" smooth="yes"/>
			<point x="280" y="535"/>
			<point x="257" y="515"/>
			<point x="251" y="470" type="curve" smooth="yes"/>
			<point x="244" y="420"/>
			<point x="268" y="394"/>
			<point x="324" y="394" type="curve" smooth="yes"/>
			<point x="376" y="394"/>
			<point x="400" y="415"/>
			<point x="406" y="459" type="curve" smooth="yes"/>
			<point x="413" y="510"/>
			<point x="389" y="535"/>
		</contour>
		<contour>
			<point x="348" y="311" type="line"/>
			<point x="268" y="311" type="line"/>
			<point x="200" y="-24" type="line"/>
			<point x="180" y="-161" type="line"/>
			<point x="303" y="-161" type="line"/>
			<point x="322" y="-25" type="line"/>
		</contour>
	</outline>
</glyph>
<glyph name="sterling" format="2">
	<unicode hex="00A3"/>
	<advance width="600"/>
	<outline>
		<contour>
			<point x="45" y="90" type="curve"/>
			<point x="33" y="0" type="line"/>
			<point x="503" y="0" type="line"/>
			<point x="516" y="94" type="line"/>
			<point x="175" y="94" type="line"/>
			<point x="212" y="119"/>
			<point x="261" y="175"/>
			<point x="263" y="284" type="curve"/>
			<point x="445" y="284" type="line"/>
			<point x="458" y="370" type="line"/>
			<point x="263" y="370" type="line"/>
			<point x="260" y="400"/>
			<point x="253" y="429"/>
			<point x="253" y="464" type="curve" smooth="yes"/>
			<point x="253" y="550"/>
			<point x="303" y="603"/>
			<point x="388" y="603" type="curve" smooth="yes"/>
			<point x="461" y="603"/>
			<point x="529" y="579"/>
			<point x="578" y="538" type="curve"/>
			<point x="593" y="636" type="line"/>
			<point x="547" y="669"/>
			<point x="478" y="698"/>
			<point x="377" y="698" type="curve" smooth="yes"/>
			<point x="240" y="698"/>
			<point x="144" y="615"/>
			<point x="144" y="481" type="curve" smooth="yes"/>
			<point x="144" y="439"/>
			<point x="152" y="401"/>
			<point x="158" y="370" type="curve"/>
			<point x="75" y="370" type="line"/>
			<point x="63" y="284" type="line"/>
			<point x="155" y="284" type="line"/>
			<point x="152" y="193"/>
			<point x="100" y="123"/>
		</contour>
	</outline>
</glyph>
<glyph name="yen" format="2">
	<unicode hex="00A5"/>
	<advance width="600"/>
	<outline>
		<contour>
			<point x="64" y="170" type="line"/>
			<point x="226" y="170" type="line"/>
			<point x="202" y="0" type="line"/>
			<point x="316" y="0" type="line"/>
			<point x="340" y="170" type="line"/>
			<point x="503" y="170" type="line"/>
			<point x="512" y="241" type="line"/>
			<point x="355" y="241" type="line"/>
			<point x="397" y="307" type="line"/>
			<point x="522" y="307" type="line"/>
			<point x="531" y="379" type="line"/>
			<point x="443" y="379" type="line"/>
			<point x="636" y="684" type="line"/>
			<point x="512" y="684" type="line"/>
			<point x="310" y="349" type="line"/>
			<point x="204" y="684" type="line"/>
			<point x="82" y="684" type="line"/>
			<point x="184" y="379" type="line"/>
			<point x="93" y="379" type="line"/>
			<point x="83" y="307" type="line"/>
			<point x="209" y="307" type="line"/>
			<point x="231" y="241" type="line"/>
			<point x="74" y="241" type="line"/>
		</contour>
	</outline>
</glyph>
<glyph name="dieresis" format="2">
	<unicode hex="00A8"/>
	<advance width="600"/>
	<outline>
		<contour>
			<point x="455" y="621" type="curve" smooth="yes"/>
			<point x="506" y="621"/>
			<point x="522" y="640"/>
			<point x="526" y="680" type="curve" smooth="yes"/>
			<point x="531" y="716"/>
			<point x="515" y="738"/>
			<point x="465" y="738" type="curve" smooth="yes"/>
			<point x="415" y="738"/>
			<point x="398" y="717"/>
			<point x="394" y="679" type="curve" smooth="yes"/>
			<point x="390" y="641"/>
			<point x="406" y="621"/>
		</contour>
		<contour>
			<point x="252" y="621" type="curve" smooth="yes"/>
			<point x="302" y="621"/>
			<point x="319" y="640"/>
			<point x="323" y="680" type="curve" smooth="yes"/>
			<point x="327" y="716"/>
			<point x="311" y="738"/>
			<point x="262" y="738" type="curve" smooth="yes"/>
			<point x="212" y="738"/>
			<point x="195" y="717"/>
			<point x="191" y="679" type="curve" smooth="yes"/>
			<point x="187" y="641"/>
			<point x="203" y="621"/>
		</contour>
	</outline>
	<anchor name="_top" x="337" y="523"/>
</glyph>
<glyph name="copyright" format="2">
	<unicode hex="00A9"/>
	<advance width="600"/>
	<outline>
		<contour>
			<point x="302" y="104" type="curve" smooth="yes"/>
			<point x="441" y="104"/>
			<point x="549" y="191"/>
			<point x="571" y="343" type="curve" smooth="yes"/>
			<point x="573" y="357" type="line" smooth="yes"/>
			<point x="598" y="534"/>
			<point x="495" y="657"/>
			<point x="331" y="657" type="curve" smooth="yes"/>
			<point x="190" y="657"/>
			<point x="84" y="571"/>
			<point x="63" y="420" type="curve" smooth="yes"/>
			<point x="61" y="406" type="line" smooth="yes"/>
			<point x="35" y="228"/>
			<point x="139" y="104"/>
		</contour>
		<contour>
			<point x="306" y="157" type="curve" smooth="yes"/>
			<point x="171" y="157"/>
			<point x="96" y="256"/>
			<point x="117" y="405" type="curve" smooth="yes"/>
			<point x="118" y="412" type="line" smooth="yes"/>
			<point x="136" y="537"/>
			<point x="212" y="604"/>
			<point x="327" y="604" type="curve" smooth="yes"/>
			<point x="463" y="604"/>
			<point x="537" y="506"/>
			<point x="516" y="358" type="curve" smooth="yes"/>
			<point x="515" y="351" type="line" smooth="yes"/>
			<point x="497" y="225"/>
			<point x="419" y="157"/>
		</contour>
		<contour>
			<point x="328" y="244" type="curve" smooth="yes"/>
			<point x="347" y="244"/>
			<point x="362" y="247"/>
			<point x="374" y="251" type="curve"/>
			<point x="381" y="298" type="line"/>
			<point x="370" y="294"/>
			<point x="355" y="290"/>
			<point x="339" y="290" type="curve" smooth="yes"/>
			<point x="291" y="290"/>
			<point x="255" y="322"/>
			<point x="265" y="389" type="curve" smooth="yes"/>
			<point x="272" y="442"/>
			<point x="303" y="470"/>
			<point x="350" y="470" type="curve" smooth="yes"/>
			<point x="372" y="470"/>
			<point x="391" y="464"/>
			<point x="403" y="458" type="curve"/>
			<point x="409" y="503" type="line"/>
			<point x="397" y="510"/>
			<point x="371" y="517"/>
			<point x="343" y="517" type="curve" smooth="yes"/>
			<point x="268" y="517"/>
			<point x="219" y="471"/>
			<point x="207" y="396" type="curve" smooth="yes"/>
			<point x="193" y="308"/>
			<point x="242" y="244"/>
		</contour>
	</outline>
</glyph>
<glyph name="ordfeminine" format="2">
	<unicode hex="00AA"/>
	<advance width="600"/>
	<outline>
		<contour>
			<point x="240" y="224" type="curve" smooth="yes"/>
			<point x="310" y="224"/>
			<point x="361" y="257"/>
			<point x="396" y="320" type="curve"/>
			<point x="384" y="235" type="line"/>
			<point x="475" y="235" type="line"/>
			<point x="513" y="508" type="line" smooth="yes"/>
			<point x="532" y="638"/>
			<point x="461" y="696"/>
			<point x="336" y="696" type="curve" smooth="yes"/>
			<point x="257" y="696"/>
			<point x="201" y="675"/>
			<point x="167" y="657" type="curve"/>
			<point x="156" y="574" type="line"/>
			<point x="206" y="607"/>
			<point x="260" y="623"/>
			<point x="315" y="623" type="curve" smooth="yes"/>
			<point x="388" y="623"/>
			<point x="432" y="595"/>
			<point x="420" y="514" type="curve"/>
			<point x="321" y="500" type="line" smooth="yes"/>
			<point x="182" y="480"/>
			<point x="112" y="429"/>
			<point x="112" y="339" type="curve" smooth="yes"/>
			<point x="112" y="269"/>
			<point x="160" y="224"/>
		</contour>
		<contour>
			<point x="280" y="292" type="curve" smooth="yes"/>
			<point x="234" y="292"/>
			<point x="204" y="315"/>
			<point x="204" y="354" type="curve" smooth="yes"/>
			<point x="204" y="412"/>
			<point x="251" y="433"/>
			<point x="332" y="445" type="curve" smooth="yes"/>
			<point x="413" y="458" type="line"/>
			<point x="407" y="414" type="line" smooth="yes"/>
			<point x="395" y="331"/>
			<point x="343" y="292"/>
		</contour>
	</outline>
	<anchor name="ogonek" x="392" y="235"/>
	<anchor name="top" x="273" y="685"/>
	<anchor name="right" x="405" y="235"/>
	<anchor name="bottom" x="209" y="234"/>
</glyph>
<glyph name="logicalnot" format="2">
	<unicode hex="00AC"/>
	<advance width="600"/>
	<outline>
		<contour>
			<point x="499" y="51" type="line"/>
			<point x="540" y="346" type="line"/>
			<point x="83" y="346" type="line"/>
			<point x="69" y="251" type="line"/>
			<point x="423" y="251" type="line"/>
			<point x="397" y="51" type="line"/>
		</contour>
	</outline>
</glyph>
<glyph name="registered" format="2">
	<unicode hex="00AE"/>
	<advance width="600"/>
	<outline>
		<contour>
			<point x="302" y="104" type="curve" smooth="yes"/>
			<point x="441" y="104"/>
			<point x="549" y="191"/>
			<point x="571" y="343" type="curve" smooth="yes"/>
			<point x="573" y="357" type="line" smooth="yes"/>
			<point x="598" y="534"/>
			<point x="497" y="657"/>
			<point x="331" y="657" type="curve" smooth="yes"/>
			<point x="190" y="657"/>
			<point x="84" y="571"/>
			<point x="63" y="420" type="curve" smooth="yes"/>
			<point x="61" y="406" type="line" smooth="yes"/>
			<point x="35" y="228"/>
			<point x="137" y="104"/>
		</contour>
		<contour>
			<point x="306" y="157" type="curve" smooth="yes"/>
			<point x="169" y="157"/>
			<point x="96" y="256"/>
			<point x="117" y="405" type="curve" smooth="yes"/>
			<point x="118" y="412" type="line" smooth="yes"/>
			<point x="136" y="537"/>
			<point x="212" y="604"/>
			<point x="327" y="604" type="curve" smooth="yes"/>
			<point x="465" y="604"/>
			<point x="537" y="506"/>
			<point x="516" y="358" type="curve" smooth="yes"/>
			<point x="515" y="351" type="line" smooth="yes"/>
			<point x="497" y="225"/>
			<point x="419" y="157"/>
		</contour>
		<contour>
			<point x="203" y="250" type="line"/>
			<point x="258" y="250" type="line"/>
			<point x="271" y="343" type="line"/>
			<point x="309" y="343" type="line" smooth="yes"/>
			<point x="331" y="343"/>
			<point x="341" y="336"/>
			<point x="346" y="312" type="curve" smooth="yes"/>
			<point x="357" y="250" type="line"/>
			<point x="414" y="250" type="line"/>
			<point x="399" y="322" type="line" smooth="yes"/>
			<point x="395" y="350"/>
			<point x="385" y="360"/>
			<point x="365" y="364" type="curve"/>
			<point x="407" y="372"/>
			<point x="434" y="396"/>
			<point x="434" y="439" type="curve" smooth="yes"/>
			<point x="434" y="485"/>
			<point x="403" y="512"/>
			<point x="341" y="512" type="curve" smooth="yes"/>
			<point x="239" y="512" type="line"/>
		</contour>
		<contour>
			<point x="331" y="469" type="line" smooth="yes"/>
			<point x="365" y="469"/>
			<point x="379" y="454"/>
			<point x="379" y="431" type="curve" smooth="yes"/>
			<point x="379" y="403"/>
			<point x="359" y="385"/>
			<point x="324" y="385" type="curve" smooth="yes"/>
			<point x="276" y="385" type="line"/>
			<point x="288" y="469" type="line"/>
		</contour>
	</outline>
</glyph>
<glyph name="acute" format="2">
	<unicode hex="00B4"/>
	<advance width="600"/>
	<outline>
		<contour>
			<point x="480" y="750" type="line"/>
			<point x="353" y="750" type="line"/>
			<point x="264" y="603" type="line"/>
			<point x="355" y="603" type="line"/>
		</contour>
	</outline>
	<anchor name="_top" x="301" y="523"/>
</glyph>
<glyph name="mu" format="2">
	<unicode hex="00B5"/>
	<advance width="600"/>
	<outline>
		<contour>
			<point x="16" y="-190" type="line"/>
			<point x="126" y="-190" type="line"/>
			<point x="152" y="-2" type="line"/>
			<point x="170" y="-10"/>
			<point x="192" y="-14"/>
			<point x="215" y="-14" type="curve" smooth="yes"/>
			<point x="289" y="-14"/>
			<point x="349" y="28"/>
			<point x="388" y="100" type="curve"/>
			<point x="373" y="0" type="line"/>
			<point x="480" y="0" type="line"/>
			<point x="554" y="523" type="line"/>
			<point x="443" y="523" type="line"/>
			<point x="400" y="217" type="line" smooth="yes"/>
			<point x="395" y="182"/>
			<point x="384" y="152"/>
			<point x="368" y="128" type="curve" smooth="yes"/>
			<point x="346" y="96"/>
			<point x="314" y="77"/>
			<point x="270" y="77" type="curve" smooth="yes"/>
			<point x="203" y="77"/>
			<point x="170" y="119"/>
			<point x="182" y="205" type="curve" smooth="yes"/>
			<point x="227" y="523" type="line"/>
			<point x="116" y="523" type="line"/>
			<point x="69" y="187" type="line" smooth="yes"/>
			<point x="68" y="183"/>
			<point x="68" y="178"/>
			<point x="67" y="174" type="curve"/>
		</contour>
	</outline>
	<anchor name="ogonek" x="505" y="0"/>
	<anchor name="bottom" x="285" y="0"/>
	<anchor name="top" x="352" y="534"/>
</glyph>
<glyph name="ordmasculine" format="2">
	<unicode hex="00BA"/>
	<advance width="600"/>
	<outline>
		<contour>
			<point x="312" y="224" type="curve" smooth="yes"/>
			<point x="438" y="224"/>
			<point x="526" y="308"/>
			<point x="545" y="443" type="curve" smooth="yes"/>
			<point x="565" y="595"/>
			<point x="486" y="696"/>
			<point x="345" y="696" type="curve" smooth="yes"/>
			<point x="217" y="696"/>
			<point x="129" y="613"/>
			<point x="111" y="477" type="curve" smooth="yes"/>
			<point x="91" y="326"/>
			<point x="170" y="224"/>
		</contour>
		<contour>
			<point x="316" y="296" type="curve" smooth="yes"/>
			<point x="227" y="296"/>
			<point x="191" y="368"/>
			<point x="207" y="474" type="curve" smooth="yes"/>
			<point x="220" y="570"/>
			<point x="264" y="624"/>
			<point x="341" y="624" type="curve" smooth="yes"/>
			<point x="429" y="624"/>
			<point x="464" y="553"/>
			<point x="449" y="446" type="curve" smooth="yes"/>
			<point x="435" y="351"/>
			<point x="391" y="296"/>
		</contour>
	</outline>
</glyph>
<glyph name="questiondown" format="2">
	<unicode hex="00BF"/>
	<advance width="600"/>
	<outline>
		<contour>
			<point x="355" y="535" type="curve" smooth="yes"/>
			<point x="302" y="535"/>
			<point x="278" y="514"/>
			<point x="272" y="471" type="curve" smooth="yes"/>
			<point x="265" y="420"/>
			<point x="289" y="394"/>
			<point x="345" y="394" type="curve" smooth="yes"/>
			<point x="398" y="394"/>
			<point x="422" y="415"/>
			<point x="427" y="458" type="curve" smooth="yes"/>
			<point x="435" y="510"/>
			<point x="411" y="535"/>
		</contour>
		<contour>
			<point x="382" y="311" type="curve"/>
			<point x="283" y="311" type="line"/>
			<point x="280" y="283" type="line" smooth="yes"/>
			<point x="266" y="159"/>
			<point x="60" y="157"/>
			<point x="60" y="-14" type="curve" smooth="yes"/>
			<point x="60" y="-109"/>
			<point x="128" y="-175"/>
			<point x="263" y="-175" type="curve" smooth="yes"/>
			<point x="339" y="-175"/>
			<point x="400" y="-155"/>
			<point x="450" y="-126" type="curve"/>
			<point x="464" y="-24" type="line"/>
			<point x="415" y="-57"/>
			<point x="354" y="-79"/>
			<point x="286" y="-79" type="curve" smooth="yes"/>
			<point x="212" y="-79"/>
			<point x="173" y="-50"/>
			<point x="173" y="3" type="curve" smooth="yes"/>
			<point x="173" y="112"/>
			<point x="367" y="112"/>
			<point x="382" y="273" type="curve" smooth="yes"/>
			<point x="384" y="291"/>
			<point x="383" y="305"/>
		</contour>
	</outline>
</glyph>
<glyph name="AE" format="2">
	<unicode hex="00C6"/>
	<advance width="600"/>
	<outline>
		<contour>
			<point x="-30" y="0" type="line"/>
			<point x="80" y="-1" type="line"/>
			<point x="146" y="171" type="line"/>
			<point x="280" y="171" type="line"/>
			<point x="256" y="0" type="line"/>
			<point x="540" y="0" type="line"/>
			<point x="552" y="92" type="line"/>
			<point x="372" y="92" type="line"/>
			<point x="401" y="297" type="line"/>
			<point x="551" y="297" type="line"/>
			<point x="564" y="388" type="line"/>
			<point x="413" y="388" type="line"/>
			<point x="442" y="593" type="line"/>
			<point x="620" y="593" type="line"/>
			<point x="633" y="684" type="line"/>
			<point x="238" y="684" type="line"/>
		</contour>
		<contour>
			<point x="180" y="260" type="line"/>
			<point x="307" y="593" type="line"/>
			<point x="339" y="593" type="line"/>
			<point x="292" y="260" type="line"/>
		</contour>
	</outline>
	<anchor name="top" x="403" y="684"/>
</glyph>
<glyph name="multiply" format="2">
	<unicode hex="00D7"/>
	<advance width="600"/>
	<outline>
		<contour>
			<point x="126" y="85" type="line"/>
			<point x="300" y="240" type="line"/>
			<point x="427" y="88" type="line"/>
			<point x="499" y="151" type="line"/>
			<point x="372" y="304" type="line"/>
			<point x="547" y="460" type="line"/>
			<point x="487" y="529" type="line"/>
			<point x="313" y="374" type="line"/>
			<point x="186" y="526" type="line"/>
			<point x="113" y="463" type="line"/>
			<point x="241" y="310" type="line"/>
			<point x="66" y="155" type="line"/>
		</contour>
	</outline>
</glyph>
<glyph name="Oslash" format="2">
	<unicode hex="00D8"/>
	<advance width="600"/>
	<outline>
		<contour>
			<point x="279" y="-14" type="curve" smooth="yes"/>
			<point x="441" y="-14"/>
			<point x="528" y="113"/>
			<point x="556" y="306" type="curve" smooth="yes"/>
			<point x="558" y="320" type="line" smooth="yes"/>
			<point x="574" y="432"/>
			<point x="567" y="520"/>
			<point x="539" y="583" type="curve"/>
			<point x="632" y="708" type="line"/>
			<point x="535" y="708" type="line"/>
			<point x="491" y="650" type="line"/>
			<point x="455" y="682"/>
			<point x="407" y="698"/>
			<point x="346" y="698" type="curve" smooth="yes"/>
			<point x="188" y="698"/>
			<point x="94" y="570"/>
			<point x="66" y="377" type="curve" smooth="yes"/>
			<point x="64" y="363" type="line" smooth="yes"/>
			<point x="48" y="252"/>
			<point x="54" y="165"/>
			<point x="82" y="102" type="curve"/>
			<point x="-11" y="-24" type="line"/>
			<point x="85" y="-24" type="line"/>
			<point x="129" y="36" type="line"/>
			<point x="166" y="3"/>
			<point x="216" y="-14"/>
		</contour>
		<contour>
			<point x="179" y="356" type="curve" smooth="yes"/>
			<point x="180" y="363" type="line" smooth="yes"/>
			<point x="204" y="532"/>
			<point x="257" y="605"/>
			<point x="341" y="605" type="curve" smooth="yes"/>
			<point x="379" y="605"/>
			<point x="407" y="591"/>
			<point x="426" y="562" type="curve"/>
			<point x="171" y="219" type="line"/>
			<point x="169" y="257"/>
			<point x="171" y="303"/>
		</contour>
		<contour>
			<point x="283" y="79" type="curve" smooth="yes"/>
			<point x="244" y="79"/>
			<point x="215" y="94"/>
			<point x="196" y="124" type="curve"/>
			<point x="451" y="465" type="line"/>
			<point x="454" y="428"/>
			<point x="451" y="383"/>
			<point x="443" y="330" type="curve" smooth="yes"/>
			<point x="442" y="323" type="line" smooth="yes"/>
			<point x="418" y="153"/>
			<point x="368" y="79"/>
		</contour>
	</outline>
</glyph>
<glyph name="ae" format="2">
	<unicode hex="00E6"/>
	<advance width="600"/>
	<outline>
		<contour>
			<point x="105" y="-14" type="curve" smooth="yes"/>
			<point x="160" y="-14"/>
			<point x="211" y="18"/>
			<point x="243" y="105" type="curve"/>
			<point x="263" y="27"/>
			<point x="316" y="-14"/>
			<point x="414" y="-14" type="curve" smooth="yes"/>
			<point x="461" y="-14"/>
			<point x="512" y="4"/>
			<point x="535" y="22" type="curve"/>
			<point x="547" y="110" type="line"/>
			<point x="513" y="87"/>
			<point x="475" y="72"/>
			<point x="436" y="72" type="curve" smooth="yes"/>
			<point x="350" y="72"/>
			<point x="321" y="130"/>
			<point x="333" y="232" type="curve"/>
			<point x="580" y="232" type="line"/>
			<point x="588" y="281" type="line" smooth="yes"/>
			<point x="611" y="427"/>
			<point x="576" y="537"/>
			<point x="457" y="537" type="curve" smooth="yes"/>
			<point x="406" y="537"/>
			<point x="363" y="514"/>
			<point x="329" y="469" type="curve"/>
			<point x="311" y="512"/>
			<point x="271" y="537"/>
			<point x="207" y="537" type="curve" smooth="yes"/>
			<point x="139" y="537"/>
			<point x="87" y="511"/>
			<point x="57" y="493" type="curve"/>
			<point x="45" y="400" type="line"/>
			<point x="88" y="435"/>
			<point x="140" y="451"/>
			<point x="183" y="451" type="curve" smooth="yes"/>
			<point x="243" y="451"/>
			<point x="265" y="416"/>
			<point x="254" y="338" type="curve" smooth="yes"/>
			<point x="252" y="324" type="line"/>
			<point x="193" y="313" type="line" smooth="yes"/>
			<point x="70" y="290"/>
			<point x="-4" y="228"/>
			<point x="-4" y="109" type="curve" smooth="yes"/>
			<point x="-4" y="30"/>
			<point x="40" y="-14"/>
		</contour>
		<contour>
			<point x="443" y="457" type="curve" smooth="yes"/>
			<point x="494" y="457"/>
			<point x="505" y="393"/>
			<point x="496" y="303" type="curve"/>
			<point x="342" y="303" type="line"/>
			<point x="359" y="407"/>
			<point x="393" y="457"/>
		</contour>
		<contour>
			<point x="90" y="131" type="curve" smooth="yes"/>
			<point x="90" y="198"/>
			<point x="131" y="232"/>
			<point x="200" y="245" type="curve" smooth="yes"/>
			<point x="241" y="253" type="line"/>
			<point x="228" y="162" type="line" smooth="yes"/>
			<point x="219" y="99"/>
			<point x="186" y="64"/>
			<point x="145" y="64" type="curve" smooth="yes"/>
			<point x="111" y="64"/>
			<point x="90" y="89"/>
		</contour>
	</outline>
	<anchor name="top" x="333" y="523"/>
</glyph>
<glyph name="eth" format="2">
	<unicode hex="00F0"/>
	<advance width="600"/>
	<outline>
		<contour>
			<point x="276" y="-14" type="curve" smooth="yes"/>
			<point x="423" y="-14"/>
			<point x="517" y="79"/>
			<point x="544" y="261" type="curve" smooth="yes"/>
			<point x="546" y="275" type="line" smooth="yes"/>
			<point x="565" y="408"/>
			<point x="542" y="535"/>
			<point x="479" y="635" type="curve"/>
			<point x="568" y="666" type="line"/>
			<point x="578" y="739" type="line"/>
			<point x="438" y="690" type="line"/>
			<point x="418" y="712"/>
			<point x="397" y="732"/>
			<point x="373" y="750" type="curve"/>
			<point x="224" y="750" type="line"/>
			<point x="267" y="717"/>
			<point x="303" y="686"/>
			<point x="332" y="653" type="curve"/>
			<point x="229" y="617" type="line"/>
			<point x="219" y="544" type="line"/>
			<point x="374" y="598" type="line"/>
			<point x="411" y="541"/>
			<point x="431" y="479"/>
			<point x="437" y="399" type="curve"/>
			<point x="408" y="461"/>
			<point x="355" y="504"/>
			<point x="276" y="504" type="curve" smooth="yes"/>
			<point x="166" y="504"/>
			<point x="79" y="423"/>
			<point x="59" y="284" type="curve" smooth="yes"/>
			<point x="57" y="270" type="line" smooth="yes"/>
			<point x="34" y="108"/>
			<point x="105" y="-14"/>
		</contour>
		<contour>
			<point x="284" y="75" type="curve" smooth="yes"/>
			<point x="196" y="75"/>
			<point x="154" y="145"/>
			<point x="170" y="258" type="curve" smooth="yes"/>
			<point x="171" y="265" type="line" smooth="yes"/>
			<point x="184" y="363"/>
			<point x="234" y="421"/>
			<point x="310" y="421" type="curve" smooth="yes"/>
			<point x="390" y="421"/>
			<point x="441" y="367"/>
			<point x="428" y="251" type="curve" smooth="yes"/>
			<point x="427" y="243" type="line" smooth="yes"/>
			<point x="414" y="136"/>
			<point x="364" y="75"/>
		</contour>
	</outline>
</glyph>
<glyph name="divide" format="2">
	<unicode hex="00F7"/>
	<advance width="600"/>
	<outline>
		<contour>
			<point x="324" y="436" type="curve" smooth="yes"/>
			<point x="377" y="436"/>
			<point x="408" y="452"/>
			<point x="414" y="497" type="curve" smooth="yes"/>
			<point x="421" y="542"/>
			<point x="394" y="558"/>
			<point x="341" y="558" type="curve" smooth="yes"/>
			<point x="288" y="558"/>
			<point x="258" y="542"/>
			<point x="252" y="497" type="curve" smooth="yes"/>
			<point x="245" y="452"/>
			<point x="271" y="436"/>
		</contour>
		<contour>
			<point x="69" y="251" type="line"/>
			<point x="527" y="251" type="line"/>
			<point x="540" y="346" type="line"/>
			<point x="83" y="346" type="line"/>
		</contour>
		<contour>
			<point x="268" y="37" type="curve" smooth="yes"/>
			<point x="320" y="37"/>
			<point x="351" y="54"/>
			<point x="358" y="99" type="curve" smooth="yes"/>
			<point x="363" y="144"/>
			<point x="338" y="159"/>
			<point x="285" y="159" type="curve" smooth="yes"/>
			<point x="232" y="159"/>
			<point x="201" y="144"/>
			<point x="195" y="99" type="curve" smooth="yes"/>
			<point x="188" y="54"/>
			<point x="215" y="37"/>
		</contour>
	</outline>
</glyph>
<glyph name="Aogonek" format="2">
	<unicode hex="0104"/>
	<advance width="600"/>
	<outline>
		<contour>
			<point x="-19" y="0" type="line"/>
			<point x="100" y="0" type="line"/>
			<point x="167" y="161" type="line"/>
			<point x="408" y="161" type="line"/>
			<point x="430" y="0" type="line"/>
			<point x="464" y="0" type="line"/>
			<point x="393" y="-24"/>
			<point x="352" y="-67"/>
			<point x="352" y="-121" type="curve" smooth="yes"/>
			<point x="352" y="-178"/>
			<point x="394" y="-203"/>
			<point x="465" y="-203" type="curve" smooth="yes"/>
			<point x="489" y="-203"/>
			<point x="514" y="-198"/>
			<point x="527" y="-193" type="curve"/>
			<point x="537" y="-121" type="line"/>
			<point x="529" y="-124"/>
			<point x="514" y="-126"/>
			<point x="499" y="-126" type="curve" smooth="yes"/>
			<point x="468" y="-126"/>
			<point x="447" y="-116"/>
			<point x="447" y="-88" type="curve" smooth="yes"/>
			<point x="447" y="-55"/>
			<point x="473" y="-24"/>
			<point x="545" y="0" type="curve"/>
			<point x="436" y="686" type="line"/>
			<point x="281" y="686" type="line"/>
		</contour>
		<contour>
			<point x="205" y="253" type="line"/>
			<point x="348" y="599" type="line"/>
			<point x="395" y="253" type="line"/>
		</contour>
	</outline>
</glyph>
<glyph name="dcroat" format="2">
	<unicode hex="0111"/>
	<advance width="600"/>
	<outline>
		<contour>
			<point x="218" y="-14" type="curve" smooth="yes"/>
			<point x="287" y="-14"/>
			<point x="348" y="22"/>
			<point x="390" y="106" type="curve"/>
			<point x="374" y="0" type="line"/>
			<point x="482" y="0" type="line"/>
			<point x="565" y="593" type="line"/>
			<point x="629" y="593" type="line"/>
			<point x="638" y="660" type="line"/>
			<point x="574" y="660" type="line"/>
			<point x="587" y="750" type="line"/>
			<point x="476" y="750" type="line"/>
			<point x="463" y="660" type="line"/>
			<point x="310" y="660" type="line"/>
			<point x="300" y="593" type="line"/>
			<point x="454" y="593" type="line"/>
			<point x="444" y="523" type="line"/>
			<point x="374" y="523" type="line" smooth="yes"/>
			<point x="197" y="523"/>
			<point x="84" y="424"/>
			<point x="61" y="262" type="curve" smooth="yes"/>
			<point x="59" y="248" type="line" smooth="yes"/>
			<point x="35" y="82"/>
			<point x="99" y="-14"/>
		</contour>
		<contour>
			<point x="172" y="252" type="curve" smooth="yes"/>
			<point x="173" y="259" type="line"/>
			<point x="191" y="379"/>
			<point x="256" y="435"/>
			<point x="364" y="435" type="curve" smooth="yes"/>
			<point x="432" y="435" type="line"/>
			<point x="402" y="218" type="line" smooth="yes"/>
			<point x="390" y="134"/>
			<point x="343" y="75"/>
			<point x="270" y="75" type="curve" smooth="yes"/>
			<point x="194" y="75"/>
			<point x="156" y="139"/>
		</contour>
	</outline>
</glyph>
<glyph name="hbar" format="2">
	<unicode hex="0127"/>
	<advance width="600"/>
	<outline>
		<contour>
			<point x="65" y="593" type="line"/>
			<point x="130" y="593" type="line"/>
			<point x="47" y="0" type="line"/>
			<point x="158" y="0" type="line"/>
			<point x="204" y="321" type="line" smooth="yes"/>
			<point x="207" y="343"/>
			<point x="214" y="364"/>
			<point x="227" y="383" type="curve" smooth="yes"/>
			<point x="248" y="417"/>
			<point x="280" y="445"/>
			<point x="331" y="445" type="curve" smooth="yes"/>
			<point x="395" y="445"/>
			<point x="431" y="403"/>
			<point x="418" y="311" type="curve" smooth="yes"/>
			<point x="373" y="0" type="line"/>
			<point x="484" y="0" type="line"/>
			<point x="531" y="330" type="line" smooth="yes"/>
			<point x="550" y="464"/>
			<point x="491" y="537"/>
			<point x="390" y="537" type="curve" smooth="yes"/>
			<point x="316" y="537"/>
			<point x="260" y="496"/>
			<point x="218" y="425" type="curve"/>
			<point x="241" y="593" type="line"/>
			<point x="394" y="593" type="line"/>
			<point x="403" y="660" type="line"/>
			<point x="251" y="660" type="line"/>
			<point x="263" y="750" type="line"/>
			<point x="152" y="750" type="line"/>
			<point x="139" y="660" type="line"/>
			<point x="75" y="660" type="line"/>
		</contour>
	</outline>
</glyph>
<glyph name="IJ" format="2">
	<unicode hex="0132"/>
	<advance width="600"/>
	<outline>
		<contour>
			<point x="240" y="-12" type="curve" smooth="yes"/>
			<point x="386" y="-12"/>
			<point x="484" y="58"/>
			<point x="507" y="219" type="curve" smooth="yes"/>
			<point x="572" y="684" type="line"/>
			<point x="461" y="684" type="line"/>
			<point x="398" y="237" type="line" smooth="yes"/>
			<point x="382" y="122"/>
			<point x="322" y="82"/>
			<point x="229" y="82" type="curve" smooth="yes"/>
			<point x="168" y="82"/>
			<point x="112" y="97"/>
			<point x="68" y="124" type="curve"/>
			<point x="55" y="29" type="line"/>
			<point x="98" y="4"/>
			<point x="159" y="-12"/>
		</contour>
		<contour>
			<point x="81" y="212" type="line"/>
			<point x="191" y="212" type="line"/>
			<point x="256" y="684" type="line"/>
			<point x="147" y="684" type="line"/>
		</contour>
	</outline>
</glyph>
<glyph name="kgreenlandic" format="2">
	<unicode hex="0138"/>
	<advance width="600"/>
	<outline>
		<contour>
			<point x="59" y="0" type="line"/>
			<point x="169" y="0" type="line"/>
			<point x="187" y="126" type="line"/>
			<point x="289" y="237" type="line"/>
			<point x="394" y="0" type="line"/>
			<point x="514" y="0" type="line"/>
			<point x="381" y="301" type="line"/>
			<point x="580" y="524" type="line"/>
			<point x="451" y="524" type="line"/>
			<point x="203" y="244" type="line"/>
			<point x="243" y="523" type="line"/>
			<point x="133" y="523" type="line"/>
		</contour>
	</outline>
</glyph>
<glyph name="Ldot" format="2">
	<unicode hex="013F"/>
	<advance width="600"/>
	<outline>
		<contour>
			<point x="56" y="0" type="line"/>
			<point x="507" y="0" type="line"/>
			<point x="522" y="103" type="line"/>
			<point x="183" y="103" type="line"/>
			<point x="264" y="684" type="line"/>
			<point x="152" y="684" type="line"/>
		</contour>
		<contour>
			<point x="463" y="330" type="curve" smooth="yes"/>
			<point x="519" y="330"/>
			<point x="539" y="359"/>
			<point x="547" y="409" type="curve" smooth="yes"/>
			<point x="555" y="464"/>
			<point x="534" y="497"/>
			<point x="475" y="497" type="curve" smooth="yes"/>
			<point x="419" y="497"/>
			<point x="398" y="469"/>
			<point x="391" y="419" type="curve" smooth="yes"/>
			<point x="383" y="362"/>
			<point x="404" y="330"/>
		</contour>
	</outline>
</glyph>
<glyph name="Lslash" format="2">
	<unicode hex="0141"/>
	<advance width="600"/>
	<outline>
		<contour>
			<point x="56" y="0" type="line"/>
			<point x="507" y="0" type="line"/>
			<point x="522" y="103" type="line"/>
			<point x="183" y="103" type="line"/>
			<point x="213" y="315" type="line"/>
			<point x="399" y="384" type="line"/>
			<point x="411" y="469" type="line"/>
			<point x="224" y="400" type="line"/>
			<point x="264" y="684" type="line"/>
			<point x="152" y="684" type="line"/>
			<point x="106" y="355" type="line"/>
			<point x="24" y="325" type="line"/>
			<point x="12" y="241" type="line"/>
			<point x="94" y="271" type="line"/>
		</contour>
	</outline>
</glyph>
<glyph name="Eng" format="2">
	<unicode hex="014A"/>
	<advance width="600"/>
	<outline>
		<contour>
			<point x="280" y="-210" type="curve" smooth="yes"/>
			<point x="397" y="-210"/>
			<point x="474" y="-157"/>
			<point x="494" y="-15" type="curve" smooth="yes"/>
			<point x="592" y="685" type="line"/>
			<point x="494" y="685" type="line"/>
			<point x="450" y="373" type="line" smooth="yes"/>
			<point x="436" y="273"/>
			<point x="432" y="210"/>
			<point x="429" y="130" type="curve"/>
			<point x="421" y="130" type="line"/>
			<point x="259" y="685" type="line"/>
			<point x="127" y="685" type="line"/>
			<point x="31" y="0" type="line"/>
			<point x="129" y="0" type="line"/>
			<point x="173" y="312" type="line" smooth="yes"/>
			<point x="186" y="403"/>
			<point x="189" y="474"/>
			<point x="193" y="554" type="curve"/>
			<point x="201" y="554" type="line"/>
			<point x="363" y="0" type="line"/>
			<point x="392" y="0" type="line"/>
			<point x="391" y="-10" type="line" smooth="yes"/>
			<point x="379" y="-101"/>
			<point x="335" y="-126"/>
			<point x="265" y="-126" type="curve" smooth="yes"/>
			<point x="230" y="-126"/>
			<point x="196" y="-118"/>
			<point x="175" y="-109" type="curve"/>
			<point x="164" y="-189" type="line"/>
			<point x="189" y="-201"/>
			<point x="232" y="-210"/>
		</contour>
	</outline>
	<anchor name="top" x="411" y="720"/>
	<anchor name="bottom" x="262" y="0"/>
</glyph>
<glyph name="eng" format="2">
	<unicode hex="014B"/>
	<advance width="600"/>
	<outline>
		<contour>
			<point x="304" y="-214" type="curve" smooth="yes"/>
			<point x="384" y="-214"/>
			<point x="459" y="-181"/>
			<point x="475" y="-64" type="curve" smooth="yes"/>
			<point x="531" y="330" type="line" smooth="yes"/>
			<point x="550" y="464"/>
			<point x="493" y="537"/>
			<point x="390" y="537" type="curve" smooth="yes"/>
			<point x="313" y="537"/>
			<point x="255" y="494"/>
			<point x="213" y="418" type="curve"/>
			<point x="227" y="523" type="line"/>
			<point x="120" y="523" type="line"/>
			<point x="47" y="0" type="line"/>
			<point x="158" y="0" type="line"/>
			<point x="201" y="304" type="line" smooth="yes"/>
			<point x="205" y="332"/>
			<point x="211" y="359"/>
			<point x="228" y="384" type="curve" smooth="yes"/>
			<point x="248" y="417"/>
			<point x="279" y="445"/>
			<point x="331" y="445" type="curve" smooth="yes"/>
			<point x="395" y="445"/>
			<point x="431" y="403"/>
			<point x="418" y="311" type="curve" smooth="yes"/>
			<point x="367" y="-48" type="line" smooth="yes"/>
			<point x="358" y="-112"/>
			<point x="319" y="-125"/>
			<point x="283" y="-125" type="curve" smooth="yes"/>
			<point x="269" y="-125"/>
			<point x="247" y="-121"/>
			<point x="232" y="-116" type="curve"/>
			<point x="221" y="-200" type="line"/>
			<point x="238" y="-207"/>
			<point x="270" y="-214"/>
		</contour>
	</outline>
</glyph>
<glyph name="OE" format="2">
	<unicode hex="0152"/>
	<advance width="600"/>
	<outline>
		<contour>
			<point x="151" y="-13" type="curve" smooth="yes"/>
			<point x="204" y="-13"/>
			<point x="245" y="23"/>
			<point x="276" y="83" type="curve"/>
			<point x="264" y="0" type="line"/>
			<point x="539" y="0" type="line"/>
			<point x="552" y="93" type="line"/>
			<point x="380" y="93" type="line"/>
			<point x="409" y="297" type="line"/>
			<point x="554" y="297" type="line"/>
			<point x="566" y="388" type="line"/>
			<point x="421" y="388" type="line"/>
			<point x="451" y="593" type="line"/>
			<point x="620" y="593" type="line"/>
			<point x="633" y="684" type="line"/>
			<point x="319" y="684" type="line"/>
			<point x="159" y="684"/>
			<point x="79" y="564"/>
			<point x="48" y="340" type="curve" smooth="yes"/>
			<point x="46" y="326" type="line" smooth="yes"/>
			<point x="15" y="111"/>
			<point x="47" y="-13"/>
		</contour>
		<contour>
			<point x="207" y="80" type="curve" smooth="yes"/>
			<point x="144" y="80"/>
			<point x="129" y="165"/>
			<point x="151" y="324" type="curve" smooth="yes"/>
			<point x="152" y="331" type="line" smooth="yes"/>
			<point x="175" y="494"/>
			<point x="212" y="593"/>
			<point x="310" y="593" type="curve" smooth="yes"/>
			<point x="346" y="593" type="line"/>
			<point x="289" y="188" type="line" smooth="yes"/>
			<point x="280" y="125"/>
			<point x="252" y="80"/>
		</contour>
	</outline>
</glyph>
<glyph name="Uogonek" format="2">
	<unicode hex="0172"/>
	<advance width="600"/>
	<outline>
		<contour>
			<point x="287" y="-203" type="curve" smooth="yes"/>
			<point x="311" y="-203"/>
			<point x="336" y="-198"/>
			<point x="349" y="-193" type="curve"/>
			<point x="359" y="-121" type="line"/>
			<point x="351" y="-124"/>
			<point x="336" y="-126"/>
			<point x="321" y="-126" type="curve" smooth="yes"/>
			<point x="290" y="-126"/>
			<point x="269" y="-116"/>
			<point x="269" y="-88" type="curve" smooth="yes"/>
			<point x="269" y="-55"/>
			<point x="295" y="-24"/>
			<point x="367" y="0" type="curve"/>
			<point x="366" y="0" type="line"/>
			<point x="459" y="30"/>
			<point x="512" y="109"/>
			<point x="529" y="225" type="curve" smooth="yes"/>
			<point x="593" y="684" type="line"/>
			<point x="481" y="684" type="line"/>
			<point x="417" y="225" type="line" smooth="yes"/>
			<point x="404" y="139"/>
			<point x="366" y="80"/>
			<point x="281" y="80" type="curve" smooth="yes"/>
			<point x="196" y="80"/>
			<point x="162" y="145"/>
			<point x="175" y="237" type="curve" smooth="yes"/>
			<point x="238" y="684" type="line"/>
			<point x="125" y="684" type="line"/>
			<point x="63" y="242" type="line" smooth="yes"/>
			<point x="41" y="83"/>
			<point x="110" y="-8"/>
			<point x="253" y="-14" type="curve"/>
			<point x="202" y="-39"/>
			<point x="174" y="-76"/>
			<point x="174" y="-121" type="curve" smooth="yes"/>
			<point x="174" y="-178"/>
			<point x="216" y="-203"/>
		</contour>
	</outline>
</glyph>
<glyph name="dotlessj" format="2">
	<unicode hex="0237"/>
	<advance width="600"/>
	<outline>
		<contour>
			<point x="179" y="-204" type="curve" smooth="yes"/>
			<point x="309" y="-204"/>
			<point x="408" y="-157"/>
			<point x="429" y="-7" type="curve" smooth="yes"/>
			<point x="503" y="523" type="line"/>
			<point x="120" y="523" type="line"/>
			<point x="107" y="434" type="line"/>
			<point x="380" y="434" type="line"/>
			<point x="321" y="15" type="line" smooth="yes"/>
			<point x="308" y="-77"/>
			<point x="259" y="-112"/>
			<point x="163" y="-112" type="curve" smooth="yes"/>
			<point x="111" y="-112"/>
			<point x="64" y="-98"/>
			<point x="33" y="-83" type="curve"/>
			<point x="20" y="-171" type="line"/>
			<point x="53" y="-189"/>
			<point x="114" y="-204"/>
		</contour>
	</outline>
	<anchor name="top" x="448" y="523"/>
</glyph>
<glyph name="circumflex" format="2">
	<unicode hex="02C6"/>
	<advance width="600"/>
	<outline>
		<contour>
			<point x="174" y="603" type="line"/>
			<point x="277" y="603" type="line"/>
			<point x="364" y="700" type="line"/>
			<point x="423" y="603" type="line"/>
			<point x="523" y="603" type="line"/>
			<point x="427" y="750" type="line"/>
			<point x="310" y="750" type="line"/>
		</contour>
	</outline>
	<anchor name="_top" x="339" y="523"/>
</glyph>
<glyph name="caron" format="2">
	<unicode hex="02C7"/>
	<advance width="600"/>
	<outline>
		<contour>
			<point x="543" y="750" type="line"/>
			<point x="439" y="750" type="line"/>
			<point x="352" y="652" type="line"/>
			<point x="293" y="750" type="line"/>
			<point x="195" y="750" type="line"/>
			<point x="290" y="603" type="line"/>
			<point x="408" y="603" type="line"/>
		</contour>
	</outline>
	<anchor name="_top" x="337" y="523"/>
</glyph>
<glyph name="ogonek" format="2">
	<unicode hex="02DB"/>
	<advance width="600"/>
	<outline>
		<contour>
			<point x="265" y="-203" type="curve" smooth="yes"/>
			<point x="289" y="-203"/>
			<point x="314" y="-198"/>
			<point x="327" y="-193" type="curve"/>
			<point x="337" y="-121" type="line"/>
			<point x="329" y="-124"/>
			<point x="314" y="-126"/>
			<point x="299" y="-126" type="curve" smooth="yes"/>
			<point x="268" y="-126"/>
			<point x="247" y="-116"/>
			<point x="247" y="-88" type="curve" smooth="yes"/>
			<point x="247" y="-55"/>
			<point x="273" y="-24"/>
			<point x="345" y="0" type="curve"/>
			<point x="267" y="1" type="line"/>
			<point x="193" y="-24"/>
			<point x="152" y="-67"/>
			<point x="152" y="-121" type="curve" smooth="yes"/>
			<point x="152" y="-178"/>
			<point x="194" y="-203"/>
		</contour>
	</outline>
	<anchor name="_ogonek" x="345" y="0"/>
</glyph>
<glyph name="tilde" format="2">
	<unicode hex="02DC"/>
	<advance width="600"/>
	<outline>
		<contour>
			<point x="178" y="611" type="curve"/>
			<point x="255" y="611" type="line"/>
			<point x="261" y="650"/>
			<point x="273" y="672"/>
			<point x="296" y="672" type="curve"/>
			<point x="337" y="672"/>
			<point x="361" y="607"/>
			<point x="429" y="607" type="curve" smooth="yes"/>
			<point x="483" y="607"/>
			<point x="523" y="643"/>
			<point x="538" y="739" type="curve"/>
			<point x="460" y="739" type="line"/>
			<point x="454" y="700"/>
			<point x="443" y="679"/>
			<point x="421" y="679" type="curve" smooth="yes"/>
			<point x="379" y="679"/>
			<point x="350" y="743"/>
			<point x="285" y="743" type="curve" smooth="yes"/>
			<point x="227" y="743"/>
			<point x="191" y="699"/>
		</contour>
	</outline>
	<anchor name="_top" x="338" y="523"/>
</glyph>
<glyph name="hungarumlaut" format="2">
	<unicode hex="02DD"/>
	<advance width="600"/>
	<outline>
		<contour>
			<point x="357" y="603" type="line"/>
			<point x="439" y="603" type="line"/>
			<point x="548" y="750" type="line"/>
			<point x="438" y="750" type="line"/>
		</contour>
		<contour>
			<point x="176" y="603" type="line"/>
			<point x="258" y="603" type="line"/>
			<point x="367" y="750" type="line"/>
			<point x="257" y="750" type="line"/>
		</contour>
	</outline>
	<anchor name="_top" x="296" y="523"/>
</glyph>
<glyph name="pi" format="2">
	<unicode hex="03C0"/>
	<advance width="600"/>
	<outline>
		<contour>
			<point x="62" y="-1" type="line"/>
			<point x="167" y="-1" type="line"/>
			<point x="228" y="435" type="line"/>
			<point x="403" y="435" type="line"/>
			<point x="360" y="125" type="line" smooth="yes"/>
			<point x="346" y="28"/>
			<point x="385" y="-12"/>
			<point x="468" y="-12" type="curve" smooth="yes"/>
			<point x="499" y="-12"/>
			<point x="523" y="-7"/>
			<point x="534" y="-2" type="curve"/>
			<point x="546" y="76" type="line"/>
			<point x="539" y="74"/>
			<point x="525" y="72"/>
			<point x="513" y="72" type="curve" smooth="yes"/>
			<point x="478" y="72"/>
			<point x="459" y="87"/>
			<point x="465" y="126" type="curve" smooth="yes"/>
			<point x="508" y="435" type="line"/>
			<point x="596" y="435" type="line"/>
			<point x="609" y="523" type="line"/>
			<point x="53" y="523" type="line"/>
			<point x="40" y="435" type="line"/>
			<point x="123" y="435" type="line"/>
		</contour>
	</outline>
</glyph>
<glyph name="endash" format="2">
	<unicode hex="2013"/>
	<advance width="600"/>
	<outline>
		<contour>
			<point x="551" y="348" type="line"/>
			<point x="72" y="348" type="line"/>
			<point x="58" y="246" type="line"/>
			<point x="538" y="246" type="line"/>
		</contour>
	</outline>
</glyph>
<glyph name="emdash" format="2">
	<unicode hex="2014"/>
	<advance width="600"/>
	<outline>
		<contour>
			<point x="612" y="348" type="line"/>
			<point x="12" y="348" type="line"/>
			<point x="-2" y="246" type="line"/>
			<point x="597" y="246" type="line"/>
		</contour>
	</outline>
</glyph>
<glyph name="quotedblright" format="2">
	<unicode hex="201D"/>
	<advance width="600"/>
	<outline>
		<contour>
			<point x="239" y="750" type="line"/>
			<point x="150" y="459" type="line"/>
			<point x="224" y="459" type="line"/>
			<point x="374" y="750" type="line"/>
		</contour>
		<contour>
			<point x="436" y="750" type="line"/>
			<point x="347" y="459" type="line"/>
			<point x="422" y="459" type="line"/>
			<point x="572" y="750" type="line"/>
		</contour>
	</outline>
</glyph>
<glyph name="daggerdbl" format="2">
	<unicode hex="2021"/>
	<advance width="600"/>
	<outline>
		<contour>
			<point x="63" y="212" type="line"/>
			<point x="49" y="116" type="line"/>
			<point x="225" y="116" type="line"/>
			<point x="188" y="-143" type="line"/>
			<point x="298" y="-143" type="line"/>
			<point x="334" y="116" type="line"/>
			<point x="509" y="116" type="line"/>
			<point x="523" y="212" type="line"/>
			<point x="348" y="212" type="line"/>
			<point x="386" y="484" type="line"/>
			<point x="561" y="484" type="line"/>
			<point x="575" y="580" type="line"/>
			<point x="399" y="580" type="line"/>
			<point x="425" y="765" type="line"/>
			<point x="316" y="765" type="line"/>
			<point x="290" y="580" type="line"/>
			<point x="115" y="580" type="line"/>
			<point x="101" y="484" type="line"/>
			<point x="276" y="484" type="line"/>
			<point x="238" y="212" type="line"/>
		</contour>
	</outline>
</glyph>
<glyph name="bullet" format="2">
	<unicode hex="2022"/>
	<advance width="600"/>
	<outline>
		<contour>
			<point x="295" y="148" type="curve" smooth="yes"/>
			<point x="389" y="148"/>
			<point x="426" y="194"/>
			<point x="436" y="283" type="curve" smooth="yes"/>
			<point x="447" y="367"/>
			<point x="417" y="428"/>
			<point x="313" y="428" type="curve" smooth="yes"/>
			<point x="220" y="428"/>
			<point x="181" y="382"/>
			<point x="171" y="293" type="curve" smooth="yes"/>
			<point x="160" y="208"/>
			<point x="191" y="148"/>
		</contour>
	</outline>
</glyph>
<glyph name="ellipsis" format="2">
	<unicode hex="2026"/>
	<advance width="600"/>
	<outline>
		<contour>
			<point x="78" y="-12" type="curve" smooth="yes"/>
			<point x="123" y="-12"/>
			<point x="139" y="15"/>
			<point x="145" y="59" type="curve" smooth="yes"/>
			<point x="152" y="109"/>
			<point x="136" y="138"/>
			<point x="92" y="138" type="curve" smooth="yes"/>
			<point x="46" y="138"/>
			<point x="30" y="112"/>
			<point x="24" y="68" type="curve" smooth="yes"/>
			<point x="17" y="17"/>
			<point x="33" y="-12"/>
		</contour>
		<contour>
			<point x="266" y="-12" type="curve" smooth="yes"/>
			<point x="311" y="-12"/>
			<point x="326" y="15"/>
			<point x="333" y="59" type="curve" smooth="yes"/>
			<point x="340" y="109"/>
			<point x="323" y="138"/>
			<point x="279" y="138" type="curve" smooth="yes"/>
			<point x="234" y="138"/>
			<point x="217" y="112"/>
			<point x="211" y="68" type="curve" smooth="yes"/>
			<point x="204" y="17"/>
			<point x="221" y="-12"/>
		</contour>
		<contour>
			<point x="453" y="-12" type="curve" smooth="yes"/>
			<point x="498" y="-12"/>
			<point x="514" y="15"/>
			<point x="520" y="59" type="curve" smooth="yes"/>
			<point x="527" y="109"/>
			<point x="511" y="138"/>
			<point x="466" y="138" type="curve" smooth="yes"/>
			<point x="421" y="138"/>
			<point x="404" y="112"/>
			<point x="398" y="68" type="curve" smooth="yes"/>
			<point x="392" y="17"/>
			<point x="409" y="-12"/>
		</contour>
	</outline>
</glyph>
<glyph name="guilsinglleft" format="2">
	<unicode hex="2039"/>
	<advance width="600"/>
	<outline>
		<contour>
			<point x="307" y="77" type="line"/>
			<point x="443" y="77" type="line"/>
			<point x="261" y="285" type="line"/>
			<point x="503" y="497" type="line"/>
			<point x="360" y="497" type="line"/>
			<point x="122" y="287" type="line"/>
		</contour>
	</outline>
</glyph>
<glyph name="guilsinglright" format="2">
	<unicode hex="203A"/>
	<advance width="600"/>
	<outline>
		<contour>
			<point x="104" y="78" type="line"/>
			<point x="249" y="78" type="line"/>
			<point x="486" y="287" type="line"/>
			<point x="298" y="498" type="line"/>
			<point x="164" y="498" type="line"/>
			<point x="347" y="291" type="line"/>
		</contour>
	</outline>
</glyph>
<glyph name="fraction" format="2">
	<unicode hex="2044"/>
	<advance width="600"/>
	<outline>
		<contour>
			<point x="405" y="415" type="line"/>
			<point x="492" y="415" type="line"/>
			<point x="636" y="684" type="line"/>
			<point x="530" y="684" type="line"/>
		</contour>
		<contour>
			<point x="-14" y="0" type="line"/>
			<point x="93" y="0" type="line"/>
			<point x="219" y="269" type="line"/>
			<point x="131" y="269" type="line"/>
		</contour>
	</outline>
</glyph>
<glyph name="published" format="2">
	<unicode hex="2117"/>
	<advance width="600"/>
	<outline>
		<contour>
			<point x="302" y="104" type="curve" smooth="yes"/>
			<point x="441" y="104"/>
			<point x="549" y="191"/>
			<point x="571" y="343" type="curve" smooth="yes"/>
			<point x="573" y="357" type="line" smooth="yes"/>
			<point x="598" y="534"/>
			<point x="497" y="657"/>
			<point x="331" y="657" type="curve" smooth="yes"/>
			<point x="190" y="657"/>
			<point x="84" y="571"/>
			<point x="63" y="420" type="curve" smooth="yes"/>
			<point x="61" y="406" type="line" smooth="yes"/>
			<point x="35" y="228"/>
			<point x="137" y="104"/>
		</contour>
		<contour>
			<point x="306" y="157" type="curve" smooth="yes"/>
			<point x="169" y="157"/>
			<point x="96" y="256"/>
			<point x="117" y="405" type="curve" smooth="yes"/>
			<point x="118" y="412" type="line" smooth="yes"/>
			<point x="136" y="537"/>
			<point x="212" y="604"/>
			<point x="327" y="604" type="curve" smooth="yes"/>
			<point x="465" y="604"/>
			<point x="537" y="506"/>
			<point x="516" y="358" type="curve" smooth="yes"/>
			<point x="515" y="351" type="line" smooth="yes"/>
			<point x="497" y="225"/>
			<point x="419" y="157"/>
		</contour>
		<contour>
			<point x="205" y="250" type="line"/>
			<point x="260" y="250" type="line"/>
			<point x="272" y="331" type="line"/>
			<point x="326" y="331" type="line" smooth="yes"/>
			<point x="395" y="331"/>
			<point x="439" y="368"/>
			<point x="439" y="428" type="curve" smooth="yes"/>
			<point x="439" y="479"/>
			<point x="404" y="511"/>
			<point x="339" y="511" type="curve" smooth="yes"/>
			<point x="242" y="511" type="line"/>
		</contour>
		<contour>
			<point x="334" y="468" type="line" smooth="yes"/>
			<point x="366" y="468"/>
			<point x="382" y="451"/>
			<point x="382" y="424" type="curve" smooth="yes"/>
			<point x="382" y="395"/>
			<point x="363" y="374"/>
			<point x="325" y="374" type="curve" smooth="yes"/>
			<point x="278" y="374" type="line"/>
			<point x="292" y="468" type="line"/>
		</contour>
	</outline>
</glyph>
<glyph name="trademark" format="2">
	<unicode hex="2122"/>
	<advance width="600"/>
	<outline>
		<contour>
			<point x="304" y="342" type="line"/>
			<point x="358" y="342" type="line"/>
			<point x="379" y="492" type="line" smooth="yes"/>
			<point x="385" y="538"/>
			<point x="389" y="581"/>
			<point x="390" y="622" type="curve"/>
			<point x="395" y="622" type="line"/>
			<point x="421" y="432" type="line"/>
			<point x="475" y="432" type="line"/>
			<point x="557" y="622" type="line"/>
			<point x="561" y="622" type="line"/>
			<point x="551" y="581"/>
			<point x="543" y="539"/>
			<point x="536" y="492" type="curve" smooth="yes"/>
			<point x="516" y="342" type="line"/>
			<point x="570" y="342" type="line"/>
			<point x="618" y="684" type="line"/>
			<point x="533" y="684" type="line"/>
			<point x="457" y="495" type="line"/>
			<point x="455" y="495" type="line"/>
			<point x="433" y="684" type="line"/>
			<point x="352" y="684" type="line"/>
		</contour>
		<contour>
			<point x="119" y="342" type="line"/>
			<point x="181" y="342" type="line"/>
			<point x="221" y="631" type="line"/>
			<point x="312" y="631" type="line"/>
			<point x="319" y="684" type="line"/>
			<point x="74" y="684" type="line"/>
			<point x="67" y="631" type="line"/>
			<point x="159" y="631" type="line"/>
		</contour>
	</outline>
</glyph>
<glyph name="ohm" format="2">
	<unicode hex="2126"/>
	<advance width="600"/>
	<outline>
		<contour>
			<point x="14" y="-1" type="line"/>
			<point x="241" y="0" type="line"/>
			<point x="253" y="94" type="line"/>
			<point x="190" y="179"/>
			<point x="170" y="293"/>
			<point x="186" y="407" type="curve" smooth="yes"/>
			<point x="187" y="414" type="line" smooth="yes"/>
			<point x="204" y="537"/>
			<point x="253" y="605"/>
			<point x="339" y="605" type="curve" smooth="yes"/>
			<point x="447" y="605"/>
			<point x="472" y="513"/>
			<point x="453" y="382" type="curve" smooth="yes"/>
			<point x="452" y="375" type="line" smooth="yes"/>
			<point x="435" y="252"/>
			<point x="381" y="165"/>
			<point x="300" y="94" type="curve"/>
			<point x="286" y="0" type="line"/>
			<point x="513" y="0" type="line"/>
			<point x="526" y="94" type="line"/>
			<point x="412" y="94" type="line"/>
			<point x="492" y="160"/>
			<point x="550" y="250"/>
			<point x="566" y="369" type="curve" smooth="yes"/>
			<point x="568" y="383" type="line" smooth="yes"/>
			<point x="593" y="560"/>
			<point x="535" y="697"/>
			<point x="346" y="697" type="curve" smooth="yes"/>
			<point x="193" y="697"/>
			<point x="97" y="599"/>
			<point x="73" y="430" type="curve" smooth="yes"/>
			<point x="71" y="416" type="line" smooth="yes"/>
			<point x="53" y="288"/>
			<point x="81" y="170"/>
			<point x="145" y="94" type="curve"/>
			<point x="27" y="94" type="line"/>
		</contour>
	</outline>
</glyph>
<glyph name="arrowleft" format="2">
	<unicode hex="2190"/>
	<advance width="600"/>
	<outline>
		<contour>
			<point x="341" y="129" type="line"/>
			<point x="184" y="309" type="line"/>
			<point x="570" y="309" type="line"/>
			<point x="583" y="401" type="line"/>
			<point x="197" y="401" type="line"/>
			<point x="403" y="580" type="line"/>
			<point x="286" y="580" type="line"/>
			<point x="30" y="355" type="line"/>
			<point x="224" y="129" type="line"/>
		</contour>
	</outline>
</glyph>
<glyph name="arrowup" format="2">
	<unicode hex="2191"/>
	<advance width="600"/>
	<outline>
		<contour>
			<point x="218" y="0" type="line"/>
			<point x="309" y="0" type="line"/>
			<point x="385" y="542" type="line"/>
			<point x="539" y="362" type="line"/>
			<point x="556" y="478" type="line"/>
			<point x="362" y="703" type="line"/>
			<point x="106" y="478" type="line"/>
			<point x="89" y="362" type="line"/>
			<point x="293" y="543" type="line"/>
		</contour>
	</outline>
</glyph>
<glyph name="arrowdown" format="2">
	<unicode hex="2193"/>
	<advance width="600"/>
	<outline>
		<contour>
			<point x="533" y="322" type="line"/>
			<point x="329" y="141" type="line"/>
			<point x="405" y="684" type="line"/>
			<point x="313" y="684" type="line"/>
			<point x="238" y="141" type="line"/>
			<point x="83" y="322" type="line"/>
			<point x="66" y="206" type="line"/>
			<point x="261" y="-19" type="line"/>
			<point x="517" y="206" type="line"/>
		</contour>
	</outline>
</glyph>
<glyph name="uni2196" format="2">
	<unicode hex="2196"/>
	<advance width="600"/>
	<outline>
		<contour>
			<point x="495" y="69" type="line"/>
			<point x="563" y="129" type="line"/>
			<point x="219" y="528" type="line"/>
			<point x="495" y="527" type="line"/>
			<point x="424" y="610" type="line"/>
			<point x="90" y="610" type="line"/>
			<point x="42" y="275" type="line"/>
			<point x="112" y="193" type="line"/>
			<point x="150" y="469" type="line"/>
		</contour>
	</outline>
</glyph>
<glyph name="uni2198" format="2">
	<unicode hex="2198"/>
	<advance width="600"/>
	<outline>
		<contour>
			<point x="198" y="70" type="line"/>
			<point x="532" y="70" type="line"/>
			<point x="580" y="405" type="line"/>
			<point x="510" y="487" type="line"/>
			<point x="472" y="211" type="line"/>
			<point x="127" y="611" type="line"/>
			<point x="59" y="550" type="line"/>
			<point x="403" y="151" type="line"/>
			<point x="127" y="152" type="line"/>
		</contour>
	</outline>
</glyph>
<glyph name="partialdiff" format="2">
	<unicode hex="2202"/>
	<advance width="600"/>
	<outline>
		<contour>
			<point x="278" y="-14" type="curve" smooth="yes"/>
			<point x="429" y="-14"/>
			<point x="517" y="92"/>
			<point x="541" y="256" type="curve" smooth="yes"/>
			<point x="543" y="270" type="line" smooth="yes"/>
			<point x="571" y="461"/>
			<point x="487" y="598"/>
			<point x="374" y="684" type="curve"/>
			<point x="210" y="684" type="line"/>
			<point x="335" y="604"/>
			<point x="405" y="514"/>
			<point x="430" y="404" type="curve"/>
			<point x="396" y="460"/>
			<point x="344" y="501"/>
			<point x="269" y="501" type="curve" smooth="yes"/>
			<point x="165" y="501"/>
			<point x="80" y="419"/>
			<point x="61" y="282" type="curve" smooth="yes"/>
			<point x="59" y="268" type="line" smooth="yes"/>
			<point x="36" y="108"/>
			<point x="109" y="-14"/>
		</contour>
		<contour>
			<point x="283" y="75" type="curve" smooth="yes"/>
			<point x="201" y="75"/>
			<point x="155" y="140"/>
			<point x="173" y="259" type="curve" smooth="yes"/>
			<point x="174" y="266" type="line" smooth="yes"/>
			<point x="189" y="375"/>
			<point x="243" y="422"/>
			<point x="311" y="422" type="curve" smooth="yes"/>
			<point x="380" y="422"/>
			<point x="443" y="375"/>
			<point x="424" y="248" type="curve" smooth="yes"/>
			<point x="423" y="241" type="line" smooth="yes"/>
			<point x="409" y="141"/>
			<point x="363" y="75"/>
		</contour>
	</outline>
</glyph>
<glyph name="increment" format="2">
	<unicode hex="2206"/>
	<advance width="600"/>
	<outline>
		<contour>
			<point x="-19" y="0" type="line"/>
			<point x="545" y="0" type="line"/>
			<point x="435" y="686" type="line"/>
			<point x="280" y="686" type="line"/>
		</contour>
		<contour>
			<point x="139" y="94" type="line"/>
			<point x="347" y="599" type="line"/>
			<point x="415" y="94" type="line"/>
		</contour>
	</outline>
</glyph>
<glyph name="product" format="2">
	<unicode hex="220F"/>
	<advance width="600"/>
	<outline>
		<contour>
			<point x="34" y="0" type="line"/>
			<point x="143" y="0" type="line"/>
			<point x="226" y="590" type="line"/>
			<point x="466" y="590" type="line"/>
			<point x="383" y="0" type="line"/>
			<point x="491" y="0" type="line"/>
			<point x="588" y="684" type="line"/>
			<point x="130" y="684" type="line"/>
		</contour>
	</outline>
</glyph>
<glyph name="radical" format="2">
	<unicode hex="221A"/>
	<advance width="600"/>
	<outline>
		<contour>
			<point x="168" y="0" type="line"/>
			<point x="309" y="0" type="line"/>
			<point x="635" y="684" type="line"/>
			<point x="513" y="684" type="line"/>
			<point x="253" y="115" type="line"/>
			<point x="205" y="450" type="line"/>
			<point x="59" y="450" type="line"/>
			<point x="46" y="353" type="line"/>
			<point x="110" y="353" type="line"/>
		</contour>
	</outline>
</glyph>
<glyph name="infinity" format="2">
	<unicode hex="221E"/>
	<advance width="600"/>
	<outline>
		<contour>
			<point x="206" y="592" type="curve" smooth="yes"/>
			<point x="115" y="592"/>
			<point x="62" y="514"/>
			<point x="38" y="355" type="curve" smooth="yes"/>
			<point x="12" y="177"/>
			<point x="46" y="75"/>
			<point x="156" y="75" type="curve" smooth="yes"/>
			<point x="223" y="75"/>
			<point x="270" y="123"/>
			<point x="293" y="205" type="curve"/>
			<point x="300" y="124"/>
			<point x="339" y="74"/>
			<point x="412" y="74" type="curve" smooth="yes"/>
			<point x="507" y="74"/>
			<point x="561" y="162"/>
			<point x="583" y="319" type="curve" smooth="yes"/>
			<point x="608" y="496"/>
			<point x="569" y="591"/>
			<point x="467" y="591" type="curve" smooth="yes"/>
			<point x="391" y="591"/>
			<point x="348" y="536"/>
			<point x="326" y="462" type="curve"/>
			<point x="319" y="540"/>
			<point x="279" y="592"/>
		</contour>
		<contour>
			<point x="174" y="161" type="curve" smooth="yes"/>
			<point x="123" y="161"/>
			<point x="108" y="224"/>
			<point x="125" y="344" type="curve" smooth="yes"/>
			<point x="140" y="455"/>
			<point x="166" y="506"/>
			<point x="212" y="506" type="curve" smooth="yes"/>
			<point x="261" y="506"/>
			<point x="278" y="451"/>
			<point x="260" y="322" type="curve" smooth="yes"/>
			<point x="245" y="217"/>
			<point x="222" y="161"/>
		</contour>
		<contour>
			<point x="408" y="161" type="curve" smooth="yes"/>
			<point x="361" y="161"/>
			<point x="340" y="213"/>
			<point x="357" y="344" type="curve" smooth="yes"/>
			<point x="371" y="449"/>
			<point x="397" y="506"/>
			<point x="445" y="506" type="curve" smooth="yes"/>
			<point x="505" y="506"/>
			<point x="508" y="422"/>
			<point x="496" y="326" type="curve" smooth="yes"/>
			<point x="481" y="214"/>
			<point x="455" y="161"/>
		</contour>
	</outline>
</glyph>
<glyph name="approxequal" format="2">
	<unicode hex="2248"/>
	<advance width="600"/>
	<outline>
		<contour>
			<point x="191" y="383" type="curve" smooth="yes"/>
			<point x="259" y="383"/>
			<point x="340" y="327"/>
			<point x="435" y="327" type="curve" smooth="yes"/>
			<point x="478" y="327"/>
			<point x="523" y="343"/>
			<point x="543" y="368" type="curve"/>
			<point x="558" y="470" type="line"/>
			<point x="523" y="432"/>
			<point x="482" y="422"/>
			<point x="441" y="422" type="curve" smooth="yes"/>
			<point x="371" y="423"/>
			<point x="283" y="478"/>
			<point x="204" y="478" type="curve" smooth="yes"/>
			<point x="162" y="478"/>
			<point x="117" y="463"/>
			<point x="96" y="438" type="curve"/>
			<point x="82" y="335" type="line"/>
			<point x="111" y="368"/>
			<point x="154" y="383"/>
		</contour>
		<contour>
			<point x="161" y="165" type="curve" smooth="yes"/>
			<point x="229" y="165"/>
			<point x="310" y="109"/>
			<point x="405" y="109" type="curve" smooth="yes"/>
			<point x="448" y="109"/>
			<point x="492" y="125"/>
			<point x="513" y="150" type="curve"/>
			<point x="527" y="251" type="line"/>
			<point x="493" y="215"/>
			<point x="453" y="202"/>
			<point x="411" y="203" type="curve" smooth="yes"/>
			<point x="345" y="204"/>
			<point x="251" y="259"/>
			<point x="171" y="259" type="curve" smooth="yes"/>
			<point x="129" y="259"/>
			<point x="86" y="243"/>
			<point x="66" y="219" type="curve"/>
			<point x="51" y="117" type="line"/>
			<point x="80" y="150"/>
			<point x="124" y="165"/>
		</contour>
	</outline>
</glyph>
<glyph name="notequal" format="2">
	<unicode hex="2260"/>
	<advance width="600"/>
	<outline>
		<contour>
			<point x="91" y="62" type="line"/>
			<point x="178" y="62" type="line"/>
			<point x="233" y="138" type="line"/>
			<point x="512" y="138" type="line"/>
			<point x="525" y="233" type="line"/>
			<point x="302" y="233" type="line"/>
			<point x="390" y="355" type="line"/>
			<point x="542" y="355" type="line"/>
			<point x="555" y="450" type="line"/>
			<point x="459" y="450" type="line"/>
			<point x="513" y="525" type="line"/>
			<point x="426" y="525" type="line"/>
			<point x="372" y="450" type="line"/>
			<point x="98" y="450" type="line"/>
			<point x="84" y="355" type="line"/>
			<point x="303" y="355" type="line"/>
			<point x="215" y="233" type="line"/>
			<point x="68" y="233" type="line"/>
			<point x="54" y="138" type="line"/>
			<point x="146" y="138" type="line"/>
		</contour>
	</outline>
</glyph>
<glyph name="lessequal" format="2">
	<unicode hex="2264"/>
	<advance width="600"/>
	<outline>
		<contour>
			<point x="511" y="143" type="line"/>
			<point x="525" y="244" type="line"/>
			<point x="181" y="384" type="line"/>
			<point x="565" y="523" type="line"/>
			<point x="579" y="628" type="line"/>
			<point x="97" y="447" type="line"/>
			<point x="81" y="326" type="line"/>
		</contour>
		<contour>
			<point x="34" y="0" type="line"/>
			<point x="492" y="0" type="line"/>
			<point x="505" y="95" type="line"/>
			<point x="48" y="95" type="line"/>
		</contour>
	</outline>
</glyph>
<glyph name="anglebracketright" format="2">
	<unicode hex="3009"/>
	<advance width="600"/>
	<outline>
		<contour>
			<point x="2" y="-163" type="line"/>
			<point x="126" y="-163" type="line"/>
			<point x="482" y="315" type="line"/>
			<point x="253" y="792" type="line"/>
			<point x="140" y="792" type="line"/>
			<point x="366" y="324" type="line"/>
		</contour>
	</outline>
</glyph>
<glyph name=".notdef" format="2">
	<advance width="600"/>
	<outline>
		<contour>
			<point x="75" y="-100" type="line"/>
			<point x="525" y="-100" type="line"/>
			<point x="525" y="784" type="line"/>
			<point x="75" y="784" type="line"/>
		</contour>
		<contour>
			<point x="160" y="-23.5" type="line"/>
			<point x="160" y="707.5" type="line"/>
			<point x="440" y="707.5" type="line"/>
			<point x="440" y="-23.5" type="line"/>
		</contour>
	</outline>
</glyph>
<glyph name="ampersand_ampersand.cLig" format="2">
	<advance width="600"/>
	<outline>
		<contour>
			<point x="-315" y="-14" type="curve" smooth="yes"/>
			<point x="-232" y="-14"/>
			<point x="-157" y="22"/>
			<point x="-99" y="81" type="curve"/>
			<point x="-68" y="23"/>
			<point x="-3" y="-14"/>
			<point x="86" y="-14" type="curve" smooth="yes"/>
			<point x="171" y="-14"/>
			<point x="243" y="16"/>
			<point x="301" y="68" type="curve"/>
			<point x="358" y="0" type="line"/>
			<point x="483" y="0" type="line"/>
			<point x="367" y="143" type="line"/>
			<point x="415" y="212"/>
			<point x="451" y="298"/>
			<point x="475" y="394" type="curve"/>
			<point x="380" y="394" type="line"/>
			<point x="363" y="322"/>
			<point x="340" y="261"/>
			<point x="311" y="212" type="curve"/>
			<point x="173" y="383" type="line" smooth="yes"/>
			<point x="138" y="425"/>
			<point x="120" y="460"/>
			<point x="122" y="503" type="curve" smooth="yes"/>
			<point x="124" y="566"/>
			<point x="165" y="607"/>
			<point x="235" y="607" type="curve" smooth="yes"/>
			<point x="290" y="607"/>
			<point x="346" y="580"/>
			<point x="383" y="550" type="curve"/>
			<point x="397" y="647" type="line"/>
			<point x="362" y="674"/>
			<point x="300" y="698"/>
			<point x="234" y="698" type="curve" smooth="yes"/>
			<point x="102" y="698"/>
			<point x="24" y="616"/>
			<point x="18" y="509" type="curve" smooth="yes"/>
			<point x="16" y="472"/>
			<point x="23" y="439"/>
			<point x="36" y="407" type="curve"/>
			<point x="-31" y="374"/>
			<point x="-90" y="319"/>
			<point x="-112" y="239" type="curve"/>
			<point x="-232" y="383" type="line" smooth="yes"/>
			<point x="-268" y="425"/>
			<point x="-285" y="460"/>
			<point x="-283" y="503" type="curve" smooth="yes"/>
			<point x="-281" y="566"/>
			<point x="-241" y="607"/>
			<point x="-173" y="607" type="curve" smooth="yes"/>
			<point x="-119" y="607"/>
			<point x="-66" y="582"/>
			<point x="-32" y="554" type="curve"/>
			<point x="-18" y="650" type="line"/>
			<point x="-51" y="676"/>
			<point x="-108" y="698"/>
			<point x="-174" y="698" type="curve" smooth="yes"/>
			<point x="-303" y="698"/>
			<point x="-381" y="616"/>
			<point x="-388" y="509" type="curve" smooth="yes"/>
			<point x="-390" y="472"/>
			<point x="-383" y="437"/>
			<point x="-368" y="405" type="curve"/>
			<point x="-449" y="366"/>
			<point x="-517" y="294"/>
			<point x="-523" y="185" type="curve" smooth="yes"/>
			<point x="-530" y="69"/>
			<point x="-451" y="-14"/>
		</contour>
		<contour>
			<point x="-21" y="193" type="curve" smooth="yes"/>
			<point x="-19" y="263"/>
			<point x="23" y="315"/>
			<point x="79" y="338" type="curve"/>
			<point x="82" y="334"/>
			<point x="85" y="330"/>
			<point x="89" y="326" type="curve" smooth="yes"/>
			<point x="249" y="131" type="line"/>
			<point x="209" y="93"/>
			<point x="162" y="73"/>
			<point x="108" y="73" type="curve" smooth="yes"/>
			<point x="19" y="73"/>
			<point x="-24" y="124"/>
		</contour>
		<contour>
			<point x="-423" y="193" type="curve" smooth="yes"/>
			<point x="-422" y="262"/>
			<point x="-380" y="313"/>
			<point x="-325" y="337" type="curve"/>
			<point x="-323" y="333"/>
			<point x="-320" y="330"/>
			<point x="-317" y="326" type="curve" smooth="yes"/>
			<point x="-154" y="139" type="line"/>
			<point x="-195" y="96"/>
			<point x="-244" y="73"/>
			<point x="-297" y="73" type="curve" smooth="yes"/>
			<point x="-385" y="73"/>
			<point x="-426" y="124"/>
		</contour>
	</outline>
</glyph>
<glyph name="aogonek.001" format="2">
	<advance width="600"/>
	<outline>
		<contour>
			<point x="218" y="-14" type="curve" smooth="yes"/>
			<point x="287" y="-14"/>
			<point x="348" y="22"/>
			<point x="390" y="106" type="curve"/>
			<point x="374" y="0" type="line"/>
			<point x="401" y="0" type="line"/>
			<point x="330" y="-24"/>
			<point x="289" y="-67"/>
			<point x="289" y="-121" type="curve" smooth="yes"/>
			<point x="289" y="-178"/>
			<point x="331" y="-203"/>
			<point x="402" y="-203" type="curve" smooth="yes"/>
			<point x="426" y="-203"/>
			<point x="451" y="-198"/>
			<point x="464" y="-193" type="curve"/>
			<point x="474" y="-121" type="line"/>
			<point x="466" y="-124"/>
			<point x="451" y="-126"/>
			<point x="436" y="-126" type="curve" smooth="yes"/>
			<point x="405" y="-126"/>
			<point x="384" y="-116"/>
			<point x="384" y="-88" type="curve" smooth="yes"/>
			<point x="384" y="-55"/>
			<point x="410" y="-24"/>
			<point x="482" y="0" type="curve"/>
			<point x="555" y="523" type="line"/>
			<point x="374" y="523" type="line" smooth="yes"/>
			<point x="197" y="523"/>
			<point x="84" y="424"/>
			<point x="61" y="262" type="curve" smooth="yes"/>
			<point x="59" y="248" type="line" smooth="yes"/>
			<point x="35" y="82"/>
			<point x="99" y="-14"/>
		</contour>
		<contour>
			<point x="172" y="252" type="curve" smooth="yes"/>
			<point x="173" y="259" type="line"/>
			<point x="191" y="379"/>
			<point x="256" y="435"/>
			<point x="364" y="435" type="curve" smooth="yes"/>
			<point x="432" y="435" type="line"/>
			<point x="402" y="218" type="line" smooth="yes"/>
			<point x="390" y="134"/>
			<point x="343" y="75"/>
			<point x="270" y="75" type="curve" smooth="yes"/>
			<point x="194" y="75"/>
			<point x="156" y="139"/>
		</contour>
	</outline>
</glyph>
<glyph name="asciitilde_asciitilde_asciitilde.rem" format="2">
	<advance width="600"/>
	<outline>
		<contour>
			<point x="-598" y="202" type="curve"/>
			<point x="-489" y="202"/>
			<point x="-460" y="327"/>
			<point x="-385" y="327" type="curve" smooth="yes"/>
			<point x="-308" y="327"/>
			<point x="-296" y="202"/>
			<point x="-182" y="202" type="curve" smooth="yes"/>
			<point x="-70" y="202"/>
			<point x="-42" y="327"/>
			<point x="35" y="327" type="curve"/>
			<point x="116" y="327"/>
			<point x="125" y="202"/>
			<point x="243" y="202" type="curve"/>
			<point x="338" y="202"/>
			<point x="411" y="284"/>
			<point x="441" y="423" type="curve"/>
			<point x="349" y="423" type="line"/>
			<point x="329" y="354"/>
			<point x="300" y="306"/>
			<point x="242" y="306" type="curve"/>
			<point x="164" y="306"/>
			<point x="165" y="429"/>
			<point x="43" y="429" type="curve"/>
			<point x="-73" y="429"/>
			<point x="-99" y="306"/>
			<point x="-174" y="306" type="curve" smooth="yes"/>
			<point x="-255" y="306"/>
			<point x="-253" y="429"/>
			<point x="-375" y="429" type="curve" smooth="yes"/>
			<point x="-491" y="429"/>
			<point x="-516" y="306"/>
			<point x="-589" y="306" type="curve"/>
			<point x="-672" y="306"/>
			<point x="-683" y="429"/>
			<point x="-799" y="429" type="curve"/>
			<point x="-895" y="429"/>
			<point x="-967" y="349"/>
			<point x="-998" y="209" type="curve"/>
			<point x="-904" y="209" type="line"/>
			<point x="-886" y="275"/>
			<point x="-860" y="326"/>
			<point x="-802" y="326" type="curve"/>
			<point x="-721" y="326"/>
			<point x="-719" y="202"/>
		</contour>
	</outline>
</glyph>
<glyph name="asciitilde_asciitilde_greater.cLig" format="2">
	<advance width="600"/>
	<outline>
		<contour>
			<point x="171" y="629" type="line"/>
			<point x="371" y="365" type="line"/>
			<point x="19" y="365" type="line"/>
			<point x="-8" y="411"/>
			<point x="-50" y="433"/>
			<point x="-98" y="433" type="curve" smooth="yes"/>
			<point x="-212" y="433"/>
			<point x="-236" y="300"/>
			<point x="-315" y="300" type="curve" smooth="yes"/>
			<point x="-396" y="300"/>
			<point x="-391" y="430"/>
			<point x="-510" y="430" type="curve" smooth="yes"/>
			<point x="-621" y="430"/>
			<point x="-649" y="300"/>
			<point x="-722" y="300" type="curve"/>
			<point x="-805" y="300"/>
			<point x="-798" y="431"/>
			<point x="-926" y="431" type="curve" smooth="yes"/>
			<point x="-1014" y="431"/>
			<point x="-1090" y="359"/>
			<point x="-1124" y="217" type="curve"/>
			<point x="-1032" y="217" type="line"/>
			<point x="-1012" y="286"/>
			<point x="-976" y="327"/>
			<point x="-927" y="327" type="curve" smooth="yes"/>
			<point x="-845" y="327"/>
			<point x="-850" y="198"/>
			<point x="-729" y="198" type="curve"/>
			<point x="-616" y="198"/>
			<point x="-594" y="327"/>
			<point x="-515" y="327" type="curve" smooth="yes"/>
			<point x="-433" y="327"/>
			<point x="-445" y="198"/>
			<point x="-323" y="198" type="curve" smooth="yes"/>
			<point x="-208" y="198"/>
			<point x="-188" y="331"/>
			<point x="-109" y="331" type="curve" smooth="yes"/>
			<point x="-71" y="331"/>
			<point x="-50" y="307"/>
			<point x="-38" y="264" type="curve"/>
			<point x="349" y="264" type="line"/>
			<point x="78" y="0" type="line"/>
			<point x="211" y="0" type="line"/>
			<point x="529" y="314" type="line"/>
			<point x="295" y="629" type="line"/>
		</contour>
	</outline>
</glyph>
<glyph name="aster_comp" format="2">
	<advance width="600"/>
	<outline>
		<contour>
			<point x="246" y="529" type="curve" smooth="yes"/>
			<point x="215" y="312" type="line"/>
			<point x="318" y="312" type="line"/>
			<point x="287" y="529" type="line" smooth="yes"/>
			<point x="285" y="540"/>
			<point x="281" y="547"/>
			<point x="276" y="550" type="curve"/>
			<point x="282" y="553"/>
			<point x="286" y="560"/>
			<point x="288" y="571" type="curve" smooth="yes"/>
			<point x="318" y="788" type="line"/>
			<point x="215" y="788" type="line"/>
			<point x="246" y="571" type="line" smooth="yes"/>
			<point x="248" y="560"/>
			<point x="252" y="553"/>
			<point x="258" y="550" type="curve"/>
			<point x="252" y="547"/>
			<point x="248" y="540"/>
		</contour>
	</outline>
</glyph>
<glyph name="asterisk_asterisk.cLig" format="2">
	<advance width="600"/>
	<outline>
		<contour>
			<point x="-480" y="154" type="line"/>
			<point x="-302" y="280" type="line"/>
			<point x="-359" y="78" type="line"/>
			<point x="-253" y="78" type="line"/>
			<point x="-254" y="278" type="line"/>
			<point x="-112" y="154" type="line"/>
			<point x="-47" y="245" type="line"/>
			<point x="-223" y="320" type="line"/>
			<point x="-25" y="396" type="line"/>
			<point x="-64" y="487" type="line"/>
			<point x="-241" y="363" type="line"/>
			<point x="-185" y="564" type="line"/>
			<point x="-290" y="564" type="line"/>
			<point x="-290" y="362" type="line"/>
			<point x="-433" y="488" type="line"/>
			<point x="-499" y="397" type="line"/>
			<point x="-319" y="321" type="line"/>
			<point x="-520" y="245" type="line"/>
		</contour>
		<contour>
			<point x="82" y="153" type="line"/>
			<point x="260" y="279" type="line"/>
			<point x="203" y="77" type="line"/>
			<point x="309" y="77" type="line"/>
			<point x="308" y="277" type="line"/>
			<point x="450" y="153" type="line"/>
			<point x="515" y="244" type="line"/>
			<point x="339" y="319" type="line"/>
			<point x="537" y="395" type="line"/>
			<point x="498" y="486" type="line"/>
			<point x="321" y="362" type="line"/>
			<point x="377" y="563" type="line"/>
			<point x="272" y="563" type="line"/>
			<point x="272" y="361" type="line"/>
			<point x="129" y="487" type="line"/>
			<point x="63" y="396" type="line"/>
			<point x="243" y="320" type="line"/>
			<point x="42" y="244" type="line"/>
		</contour>
	</outline>
</glyph>
<glyph name="backslash_backslash.rem" format="2">
	<advance width="600"/>
	<outline>
		<contour>
			<point x="-164" y="-163" type="line"/>
			<point x="-60" y="-163" type="line"/>
			<point x="-295" y="792" type="line"/>
			<point x="-399" y="792" type="line"/>
		</contour>
		<contour>
			<point x="310" y="-163" type="line"/>
			<point x="414" y="-163" type="line"/>
			<point x="179" y="792" type="line"/>
			<point x="75" y="792" type="line"/>
		</contour>
	</outline>
</glyph>
<glyph name="backslash_backslash_backslash.rem" format="2">
	<advance width="600"/>
	<outline>
		<contour>
			<point x="-727" y="-163" type="line"/>
			<point x="-623" y="-163" type="line"/>
			<point x="-858" y="792" type="line"/>
			<point x="-962" y="792" type="line"/>
		</contour>
		<contour>
			<point x="-227" y="-163" type="line"/>
			<point x="-123" y="-163" type="line"/>
			<point x="-358" y="792" type="line"/>
			<point x="-462" y="792" type="line"/>
		</contour>
		<contour>
			<point x="273" y="-163" type="line"/>
			<point x="377" y="-163" type="line"/>
			<point x="142" y="792" type="line"/>
			<point x="38" y="792" type="line"/>
		</contour>
	</outline>
</glyph>
<glyph name="backslash_slash.cLig" format="2">
	<advance width="600"/>
	<outline>
		<contour>
			<point x="-133" y="-163" type="line"/>
			<point x="21" y="-163" type="line"/>
			<point x="518" y="792" type="line"/>
			<point x="405" y="792" type="line"/>
			<point x="-49" y="-82" type="line"/>
			<point x="-264" y="792" type="line"/>
			<point x="-368" y="792" type="line"/>
		</contour>
	</outline>
</glyph>
<glyph name="bar_bar_equal.med" format="2">
	<advance width="600"/>
	<outline>
		<contour>
			<point x="93" y="-55" type="line"/>
			<point x="197" y="-55" type="line"/>
			<point x="227" y="158" type="line"/>
			<point x="585" y="158" type="line"/>
			<point x="598" y="254" type="line"/>
			<point x="241" y="254" type="line"/>
			<point x="258" y="375" type="line"/>
			<point x="616" y="375" type="line"/>
			<point x="629" y="471" type="line"/>
			<point x="271" y="471" type="line"/>
			<point x="301" y="684" type="line"/>
			<point x="197" y="684" type="line"/>
		</contour>
		<contour>
			<point x="-615" y="158" type="line"/>
			<point x="-257" y="158" type="line"/>
			<point x="-287" y="-55" type="line"/>
			<point x="-182" y="-55" type="line"/>
			<point x="-78" y="684" type="line"/>
			<point x="-183" y="684" type="line"/>
			<point x="-213" y="471" type="line"/>
			<point x="-570" y="471" type="line"/>
			<point x="-584" y="375" type="line"/>
			<point x="-226" y="375" type="line"/>
			<point x="-243" y="254" type="line"/>
			<point x="-601" y="254" type="line"/>
		</contour>
	</outline>
</glyph>
<glyph name="bar_bar_hyphen.med" format="2">
	<advance width="600"/>
	<outline>
		<contour>
			<point x="93" y="-55" type="line"/>
			<point x="198" y="-55" type="line"/>
			<point x="243" y="263" type="line"/>
			<point x="600" y="263" type="line"/>
			<point x="614" y="364" type="line"/>
			<point x="257" y="364" type="line"/>
			<point x="302" y="684" type="line"/>
			<point x="197" y="684" type="line"/>
		</contour>
		<contour>
			<point x="-600" y="263" type="line"/>
			<point x="-242" y="263" type="line"/>
			<point x="-287" y="-55" type="line"/>
			<point x="-182" y="-55" type="line"/>
			<point x="-78" y="684" type="line"/>
			<point x="-183" y="684" type="line"/>
			<point x="-228" y="364" type="line"/>
			<point x="-586" y="364" type="line"/>
		</contour>
	</outline>
</glyph>
<glyph name="bar_bracketright.cLig" format="2">
	<advance width="600"/>
	<outline>
		<contour>
			<point x="-111" y="-163" type="line"/>
			<point x="327" y="-163" type="line"/>
			<point x="462" y="792" type="line"/>
			<point x="23" y="792" type="line"/>
			<point x="11" y="709" type="line"/>
			<point x="345" y="709" type="line"/>
			<point x="234" y="-81" type="line"/>
			<point x="-100" y="-81" type="line"/>
		</contour>
		<contour>
			<point x="-312" y="-163" type="line"/>
			<point x="-177" y="792" type="line"/>
			<point x="-281" y="792" type="line"/>
			<point x="-415" y="-163" type="line"/>
		</contour>
	</outline>
</glyph>
<glyph name="bar_equal.fina" format="2">
	<advance width="600"/>
	<outline>
		<contour>
			<point x="-14" y="158" type="line"/>
			<point x="343" y="158" type="line"/>
			<point x="313" y="-55" type="line"/>
			<point x="417" y="-55" type="line"/>
			<point x="521" y="684" type="line"/>
			<point x="417" y="684" type="line"/>
			<point x="387" y="471" type="line"/>
			<point x="30" y="471" type="line"/>
			<point x="17" y="375" type="line"/>
			<point x="373" y="375" type="line"/>
			<point x="356" y="254" type="line"/>
			<point x="-1" y="254" type="line"/>
		</contour>
	</outline>
</glyph>
<glyph name="bar_equal.init" format="2">
	<advance width="600"/>
	<outline>
		<contour>
			<point x="194" y="684" type="line"/>
			<point x="90" y="-55" type="line"/>
			<point x="195" y="-55" type="line"/>
			<point x="225" y="158" type="line"/>
			<point x="644" y="158" type="line"/>
			<point x="657" y="254" type="line"/>
			<point x="238" y="254" type="line"/>
			<point x="256" y="375" type="line"/>
			<point x="675" y="375" type="line"/>
			<point x="688" y="471" type="line"/>
			<point x="269" y="471" type="line"/>
			<point x="299" y="684" type="line"/>
		</contour>
	</outline>
</glyph>
<glyph name="bar_equal_greater.rem" format="2">
	<advance width="600"/>
	<outline>
		<contour>
			<point x="-981" y="629" type="line"/>
			<point x="-1069" y="0" type="line"/>
			<point x="-964" y="0" type="line"/>
			<point x="-942" y="158" type="line"/>
			<point x="191" y="158" type="line"/>
			<point x="32" y="0" type="line"/>
			<point x="166" y="0" type="line"/>
			<point x="477" y="312" type="line"/>
			<point x="246" y="629" type="line"/>
			<point x="123" y="629" type="line"/>
			<point x="238" y="471" type="line"/>
			<point x="-898" y="471" type="line"/>
			<point x="-876" y="629" type="line"/>
		</contour>
		<contour>
			<point x="351" y="317" type="line"/>
			<point x="287" y="254" type="line"/>
			<point x="-929" y="254" type="line"/>
			<point x="-912" y="375" type="line"/>
			<point x="308" y="375" type="line"/>
		</contour>
	</outline>
</glyph>
<glyph name="bar_hyphen_greater.rem" format="2">
	<advance width="600"/>
	<outline>
		<contour>
			<point x="-1069" y="0" type="line"/>
			<point x="-964" y="0" type="line"/>
			<point x="-927" y="264" type="line"/>
			<point x="-74" y="264" type="line"/>
			<point x="274" y="263" type="line"/>
			<point x="3" y="0" type="line"/>
			<point x="136" y="0" type="line"/>
			<point x="454" y="314" type="line"/>
			<point x="219" y="629" type="line"/>
			<point x="96" y="629" type="line"/>
			<point x="296" y="364" type="line"/>
			<point x="15" y="364" type="line"/>
			<point x="15" y="365" type="line"/>
			<point x="-913" y="365" type="line"/>
			<point x="-876" y="629" type="line"/>
			<point x="-981" y="629" type="line"/>
		</contour>
	</outline>
</glyph>
<glyph name="braceleft_bar.cLig" format="2">
	<advance width="600"/>
	<outline>
		<contour>
			<point x="-268" y="-163" type="curve" smooth="yes"/>
			<point x="-5" y="-163" type="line"/>
			<point x="6" y="-81" type="line"/>
			<point x="-222" y="-81" type="line" smooth="yes"/>
			<point x="-278" y="-81"/>
			<point x="-306" y="-60"/>
			<point x="-306" y="-17" type="curve" smooth="yes"/>
			<point x="-306" y="71"/>
			<point x="-175" y="112"/>
			<point x="-175" y="215" type="curve" smooth="yes"/>
			<point x="-175" y="263"/>
			<point x="-216" y="302"/>
			<point x="-272" y="313" type="curve"/>
			<point x="-214" y="321"/>
			<point x="-143" y="353"/>
			<point x="-143" y="434" type="curve" smooth="yes"/>
			<point x="-143" y="511"/>
			<point x="-216" y="571"/>
			<point x="-216" y="637" type="curve" smooth="yes"/>
			<point x="-216" y="692"/>
			<point x="-177" y="710"/>
			<point x="-116" y="710" type="curve" smooth="yes"/>
			<point x="117" y="710" type="line"/>
			<point x="129" y="792" type="line"/>
			<point x="-153" y="792" type="line" smooth="yes"/>
			<point x="-261" y="792"/>
			<point x="-326" y="735"/>
			<point x="-326" y="651" type="curve" smooth="yes"/>
			<point x="-326" y="566"/>
			<point x="-254" y="499"/>
			<point x="-254" y="434" type="curve" smooth="yes"/>
			<point x="-254" y="394"/>
			<point x="-282" y="362"/>
			<point x="-330" y="362" type="curve" smooth="yes"/>
			<point x="-419" y="362" type="line"/>
			<point x="-432" y="265" type="line"/>
			<point x="-353" y="265" type="line" smooth="yes"/>
			<point x="-305" y="265"/>
			<point x="-288" y="235"/>
			<point x="-288" y="208" type="curve" smooth="yes"/>
			<point x="-288" y="132"/>
			<point x="-423" y="86"/>
			<point x="-423" y="-36" type="curve" smooth="yes"/>
			<point x="-423" y="-106"/>
			<point x="-376" y="-163"/>
		</contour>
		<contour>
			<point x="329" y="792" type="line"/>
			<point x="194" y="-163" type="line"/>
			<point x="298" y="-163" type="line"/>
			<point x="432" y="792" type="line"/>
		</contour>
	</outline>
</glyph>
<glyph name="braceleft_braceleft_numbersign.cLig" format="2">
	<advance width="600"/>
	<outline>
		<contour>
			<point x="-702" y="-163" type="line"/>
			<point x="-691" y="-81" type="line"/>
			<point x="-814" y="-81" type="line" smooth="yes"/>
			<point x="-869" y="-81"/>
			<point x="-897" y="-60"/>
			<point x="-897" y="-17" type="curve" smooth="yes"/>
			<point x="-897" y="71"/>
			<point x="-766" y="112"/>
			<point x="-766" y="215" type="curve" smooth="yes"/>
			<point x="-766" y="263"/>
			<point x="-807" y="302"/>
			<point x="-863" y="313" type="curve"/>
			<point x="-806" y="321"/>
			<point x="-734" y="353"/>
			<point x="-734" y="434" type="curve" smooth="yes"/>
			<point x="-734" y="511"/>
			<point x="-807" y="571"/>
			<point x="-807" y="637" type="curve" smooth="yes"/>
			<point x="-807" y="692"/>
			<point x="-768" y="710"/>
			<point x="-707" y="710" type="curve" smooth="yes"/>
			<point x="-374" y="710" type="line"/>
			<point x="-428" y="696"/>
			<point x="-454" y="666"/>
			<point x="-454" y="620" type="curve" smooth="yes"/>
			<point x="-454" y="548"/>
			<point x="-380" y="492"/>
			<point x="-380" y="430" type="curve" smooth="yes"/>
			<point x="-380" y="390"/>
			<point x="-409" y="362"/>
			<point x="-464" y="362" type="curve" smooth="yes"/>
			<point x="-563" y="362" type="line"/>
			<point x="-576" y="265" type="line"/>
			<point x="-488" y="265" type="line" smooth="yes"/>
			<point x="-433" y="265"/>
			<point x="-415" y="239"/>
			<point x="-415" y="211" type="curve"/>
			<point x="-415" y="134"/>
			<point x="-550" y="86"/>
			<point x="-550" y="-36" type="curve" smooth="yes"/>
			<point x="-550" y="-106"/>
			<point x="-504" y="-163"/>
			<point x="-395" y="-163" type="curve" smooth="yes"/>
			<point x="-206" y="-163" type="line"/>
			<point x="-195" y="-81" type="line"/>
			<point x="-350" y="-81" type="line" smooth="yes"/>
			<point x="-405" y="-81"/>
			<point x="-433" y="-60"/>
			<point x="-433" y="-17" type="curve" smooth="yes"/>
			<point x="-433" y="69"/>
			<point x="-301" y="115"/>
			<point x="-301" y="217" type="curve"/>
			<point x="-301" y="265"/>
			<point x="-342" y="302"/>
			<point x="-399" y="313" type="curve"/>
			<point x="-341" y="320"/>
			<point x="-270" y="349"/>
			<point x="-270" y="431" type="curve" smooth="yes"/>
			<point x="-270" y="508"/>
			<point x="-343" y="565"/>
			<point x="-343" y="634" type="curve" smooth="yes"/>
			<point x="-343" y="687"/>
			<point x="-304" y="710"/>
			<point x="-239" y="710" type="curve" smooth="yes"/>
			<point x="-84" y="710" type="line"/>
			<point x="-72" y="792" type="line"/>
			<point x="-745" y="792" type="line" smooth="yes"/>
			<point x="-852" y="792"/>
			<point x="-918" y="735"/>
			<point x="-918" y="651" type="curve" smooth="yes"/>
			<point x="-918" y="566"/>
			<point x="-845" y="499"/>
			<point x="-845" y="434" type="curve" smooth="yes"/>
			<point x="-845" y="394"/>
			<point x="-873" y="362"/>
			<point x="-921" y="362" type="curve" smooth="yes"/>
			<point x="-1021" y="362" type="line"/>
			<point x="-1035" y="265" type="line"/>
			<point x="-944" y="265" type="line" smooth="yes"/>
			<point x="-896" y="265"/>
			<point x="-880" y="235"/>
			<point x="-880" y="208" type="curve" smooth="yes"/>
			<point x="-880" y="132"/>
			<point x="-1014" y="86"/>
			<point x="-1014" y="-36" type="curve" smooth="yes"/>
			<point x="-1014" y="-106"/>
			<point x="-968" y="-163"/>
			<point x="-859" y="-163" type="curve" smooth="yes"/>
		</contour>
		<contour>
			<point x="-131" y="249" type="line"/>
			<point x="-144" y="163" type="line"/>
			<point x="-20" y="163" type="line"/>
			<point x="-58" y="0" type="line"/>
			<point x="32" y="0" type="line"/>
			<point x="70" y="163" type="line"/>
			<point x="198" y="163" type="line"/>
			<point x="160" y="0" type="line"/>
			<point x="248" y="0" type="line"/>
			<point x="286" y="163" type="line"/>
			<point x="396" y="163" type="line"/>
			<point x="409" y="249" type="line"/>
			<point x="307" y="249" type="line"/>
			<point x="353" y="444" type="line"/>
			<point x="460" y="444" type="line"/>
			<point x="472" y="531" type="line"/>
			<point x="373" y="531" type="line"/>
			<point x="409" y="684" type="line"/>
			<point x="320" y="684" type="line"/>
			<point x="285" y="531" type="line"/>
			<point x="156" y="531" type="line"/>
			<point x="192" y="684" type="line"/>
			<point x="103" y="684" type="line"/>
			<point x="67" y="531" type="line"/>
			<point x="-92" y="531" type="line"/>
			<point x="-104" y="444" type="line"/>
			<point x="47" y="444" type="line"/>
			<point x="1" y="249" type="line"/>
		</contour>
		<contour>
			<point x="90" y="249" type="line"/>
			<point x="136" y="444" type="line"/>
			<point x="264" y="444" type="line"/>
			<point x="218" y="249" type="line"/>
		</contour>
	</outline>
</glyph>
<glyph name="braceleft_hyphen.rem" format="2">
	<advance width="600"/>
	<outline>
		<contour>
			<point x="65" y="792" type="line"/>
			<point x="-111" y="792" type="line" smooth="yes"/>
			<point x="-218" y="792"/>
			<point x="-282" y="735"/>
			<point x="-282" y="650" type="curve" smooth="yes"/>
			<point x="-282" y="566"/>
			<point x="-211" y="496"/>
			<point x="-211" y="435" type="curve" smooth="yes"/>
			<point x="-211" y="392"/>
			<point x="-240" y="362"/>
			<point x="-308" y="362" type="curve" smooth="yes"/>
			<point x="-385" y="362" type="line"/>
			<point x="-399" y="265" type="line"/>
			<point x="-319" y="265" type="line" smooth="yes"/>
			<point x="-265" y="265"/>
			<point x="-246" y="235"/>
			<point x="-246" y="205" type="curve" smooth="yes"/>
			<point x="-246" y="129"/>
			<point x="-380" y="82"/>
			<point x="-380" y="-36" type="curve" smooth="yes"/>
			<point x="-380" y="-105"/>
			<point x="-334" y="-163"/>
			<point x="-226" y="-163" type="curve" smooth="yes"/>
			<point x="-70" y="-163" type="line"/>
			<point x="-58" y="-81" type="line"/>
			<point x="-181" y="-81" type="line" smooth="yes"/>
			<point x="-236" y="-81"/>
			<point x="-265" y="-60"/>
			<point x="-265" y="-17" type="curve" smooth="yes"/>
			<point x="-265" y="67"/>
			<point x="-134" y="108"/>
			<point x="-134" y="200" type="curve" smooth="yes"/>
			<point x="-134" y="238"/>
			<point x="-159" y="257"/>
			<point x="-195" y="267" type="curve"/>
			<point x="426" y="267" type="line"/>
			<point x="441" y="362" type="line"/>
			<point x="-179" y="362" type="line"/>
			<point x="-136" y="374"/>
			<point x="-100" y="397"/>
			<point x="-100" y="446" type="curve" smooth="yes"/>
			<point x="-100" y="510"/>
			<point x="-174" y="572"/>
			<point x="-174" y="637" type="curve" smooth="yes"/>
			<point x="-174" y="692"/>
			<point x="-135" y="710"/>
			<point x="-75" y="710" type="curve" smooth="yes"/>
			<point x="53" y="710" type="line"/>
		</contour>
	</outline>
</glyph>
<glyph name="braceleft_numbersign.cLig" format="2">
	<advance width="600"/>
	<outline>
		<contour>
			<point x="-485" y="265" type="line"/>
			<point x="-405" y="265" type="line" smooth="yes"/>
			<point x="-357" y="265"/>
			<point x="-341" y="236"/>
			<point x="-341" y="208" type="curve" smooth="yes"/>
			<point x="-341" y="132"/>
			<point x="-475" y="86"/>
			<point x="-475" y="-36" type="curve" smooth="yes"/>
			<point x="-475" y="-106"/>
			<point x="-429" y="-163"/>
			<point x="-320" y="-163" type="curve" smooth="yes"/>
			<point x="-164" y="-163" type="line"/>
			<point x="-153" y="-81" type="line"/>
			<point x="-275" y="-81" type="line" smooth="yes"/>
			<point x="-331" y="-81"/>
			<point x="-359" y="-60"/>
			<point x="-359" y="-17" type="curve" smooth="yes"/>
			<point x="-359" y="71"/>
			<point x="-228" y="112"/>
			<point x="-228" y="215" type="curve" smooth="yes"/>
			<point x="-228" y="263"/>
			<point x="-268" y="301"/>
			<point x="-324" y="313" type="curve"/>
			<point x="-267" y="321"/>
			<point x="-196" y="353"/>
			<point x="-196" y="434" type="curve" smooth="yes"/>
			<point x="-196" y="511"/>
			<point x="-269" y="571"/>
			<point x="-269" y="638" type="curve" smooth="yes"/>
			<point x="-269" y="693"/>
			<point x="-230" y="710"/>
			<point x="-169" y="710" type="curve" smooth="yes"/>
			<point x="-42" y="710" type="line"/>
			<point x="-30" y="792" type="line"/>
			<point x="-206" y="792" type="line" smooth="yes"/>
			<point x="-313" y="792"/>
			<point x="-379" y="736"/>
			<point x="-379" y="651" type="curve" smooth="yes"/>
			<point x="-379" y="566"/>
			<point x="-306" y="499"/>
			<point x="-306" y="434" type="curve" smooth="yes"/>
			<point x="-306" y="394"/>
			<point x="-335" y="362"/>
			<point x="-382" y="362" type="curve" smooth="yes"/>
			<point x="-471" y="362" type="line"/>
		</contour>
		<contour>
			<point x="-96" y="249" type="line"/>
			<point x="-109" y="163" type="line"/>
			<point x="15" y="163" type="line"/>
			<point x="-23" y="0" type="line"/>
			<point x="67" y="0" type="line"/>
			<point x="105" y="163" type="line"/>
			<point x="233" y="163" type="line"/>
			<point x="195" y="0" type="line"/>
			<point x="283" y="0" type="line"/>
			<point x="321" y="163" type="line"/>
			<point x="431" y="163" type="line"/>
			<point x="444" y="249" type="line"/>
			<point x="342" y="249" type="line"/>
			<point x="388" y="444" type="line"/>
			<point x="495" y="444" type="line"/>
			<point x="507" y="531" type="line"/>
			<point x="408" y="531" type="line"/>
			<point x="444" y="684" type="line"/>
			<point x="355" y="684" type="line"/>
			<point x="320" y="531" type="line"/>
			<point x="191" y="531" type="line"/>
			<point x="227" y="684" type="line"/>
			<point x="138" y="684" type="line"/>
			<point x="102" y="531" type="line"/>
			<point x="-57" y="531" type="line"/>
			<point x="-69" y="444" type="line"/>
			<point x="82" y="444" type="line"/>
			<point x="36" y="249" type="line"/>
		</contour>
		<contour>
			<point x="125" y="249" type="line"/>
			<point x="171" y="444" type="line"/>
			<point x="299" y="444" type="line"/>
			<point x="253" y="249" type="line"/>
		</contour>
	</outline>
</glyph>
<glyph name="bracketleft_bracketleft_numbersign.cLig" format="2">
	<advance width="600"/>
	<outline>
		<contour>
			<point x="-134" y="249" type="line"/>
			<point x="-147" y="163" type="line"/>
			<point x="-23" y="163" type="line"/>
			<point x="-61" y="0" type="line"/>
			<point x="29" y="0" type="line"/>
			<point x="67" y="163" type="line"/>
			<point x="195" y="163" type="line"/>
			<point x="157" y="0" type="line"/>
			<point x="245" y="0" type="line"/>
			<point x="283" y="163" type="line"/>
			<point x="393" y="163" type="line"/>
			<point x="406" y="249" type="line"/>
			<point x="304" y="249" type="line"/>
			<point x="350" y="444" type="line"/>
			<point x="457" y="444" type="line"/>
			<point x="469" y="531" type="line"/>
			<point x="370" y="531" type="line"/>
			<point x="406" y="684" type="line"/>
			<point x="317" y="684" type="line"/>
			<point x="282" y="531" type="line"/>
			<point x="153" y="531" type="line"/>
			<point x="189" y="684" type="line"/>
			<point x="100" y="684" type="line"/>
			<point x="64" y="531" type="line"/>
			<point x="-95" y="531" type="line"/>
			<point x="-107" y="444" type="line"/>
			<point x="44" y="444" type="line"/>
			<point x="-2" y="249" type="line"/>
		</contour>
		<contour>
			<point x="87" y="249" type="line"/>
			<point x="133" y="444" type="line"/>
			<point x="261" y="444" type="line"/>
			<point x="215" y="249" type="line"/>
		</contour>
		<contour>
			<point x="-232" y="-81" type="line"/>
			<point x="-461" y="-81" type="line"/>
			<point x="-350" y="710" type="line"/>
			<point x="-120" y="710" type="line"/>
			<point x="-109" y="792" type="line"/>
			<point x="-443" y="792" type="line"/>
			<point x="-578" y="-163" type="line"/>
			<point x="-244" y="-163" type="line"/>
		</contour>
		<contour>
			<point x="-649" y="-81" type="line"/>
			<point x="-938" y="-81" type="line"/>
			<point x="-827" y="710" type="line"/>
			<point x="-538" y="710" type="line"/>
			<point x="-526" y="792" type="line"/>
			<point x="-920" y="792" type="line"/>
			<point x="-1055" y="-163" type="line"/>
			<point x="-661" y="-163" type="line"/>
		</contour>
	</outline>
</glyph>
<glyph name="bracketleft_numbersign.cLig" format="2">
	<advance width="600"/>
	<outline>
		<contour>
			<point x="-99" y="249" type="line"/>
			<point x="-112" y="163" type="line"/>
			<point x="12" y="163" type="line"/>
			<point x="-26" y="0" type="line"/>
			<point x="64" y="0" type="line"/>
			<point x="102" y="163" type="line"/>
			<point x="230" y="163" type="line"/>
			<point x="192" y="0" type="line"/>
			<point x="280" y="0" type="line"/>
			<point x="318" y="163" type="line"/>
			<point x="428" y="163" type="line"/>
			<point x="441" y="249" type="line"/>
			<point x="339" y="249" type="line"/>
			<point x="385" y="444" type="line"/>
			<point x="492" y="444" type="line"/>
			<point x="504" y="531" type="line"/>
			<point x="405" y="531" type="line"/>
			<point x="441" y="684" type="line"/>
			<point x="352" y="684" type="line"/>
			<point x="317" y="531" type="line"/>
			<point x="188" y="531" type="line"/>
			<point x="224" y="684" type="line"/>
			<point x="135" y="684" type="line"/>
			<point x="99" y="531" type="line"/>
			<point x="-60" y="531" type="line"/>
			<point x="-72" y="444" type="line"/>
			<point x="79" y="444" type="line"/>
			<point x="33" y="249" type="line"/>
		</contour>
		<contour>
			<point x="122" y="249" type="line"/>
			<point x="168" y="444" type="line"/>
			<point x="296" y="444" type="line"/>
			<point x="250" y="249" type="line"/>
		</contour>
		<contour>
			<point x="-158" y="-81" type="line"/>
			<point x="-360" y="-81" type="line"/>
			<point x="-249" y="710" type="line"/>
			<point x="-47" y="710" type="line"/>
			<point x="-35" y="792" type="line"/>
			<point x="-341" y="792" type="line"/>
			<point x="-476" y="-163" type="line"/>
			<point x="-170" y="-163" type="line"/>
		</contour>
	</outline>
</glyph>
<glyph name="bracketright_bracketright.cLig" format="2">
	<advance width="600"/>
	<outline>
		<contour>
			<point x="-364" y="710" type="line"/>
			<point x="-135" y="710" type="line"/>
			<point x="-246" y="-81" type="line"/>
			<point x="-476" y="-81" type="line"/>
			<point x="-487" y="-163" type="line"/>
			<point x="-153" y="-163" type="line"/>
			<point x="-18" y="792" type="line"/>
			<point x="-352" y="792" type="line"/>
		</contour>
		<contour>
			<point x="53" y="710" type="line"/>
			<point x="342" y="710" type="line"/>
			<point x="231" y="-81" type="line"/>
			<point x="-58" y="-81" type="line"/>
			<point x="-70" y="-163" type="line"/>
			<point x="324" y="-163" type="line"/>
			<point x="459" y="792" type="line"/>
			<point x="65" y="792" type="line"/>
		</contour>
	</outline>
</glyph>
<glyph name="bracketright_numbersign.cLig" format="2">
	<advance width="600"/>
	<outline>
		<contour>
			<point x="-537" y="-163" type="line"/>
			<point x="-231" y="-163" type="line"/>
			<point x="-185" y="163" type="line"/>
			<point x="28" y="163" type="line"/>
			<point x="-10" y="0" type="line"/>
			<point x="80" y="0" type="line"/>
			<point x="118" y="163" type="line"/>
			<point x="246" y="163" type="line"/>
			<point x="208" y="0" type="line"/>
			<point x="296" y="0" type="line"/>
			<point x="334" y="163" type="line"/>
			<point x="444" y="163" type="line"/>
			<point x="457" y="249" type="line"/>
			<point x="355" y="249" type="line"/>
			<point x="401" y="444" type="line"/>
			<point x="508" y="444" type="line"/>
			<point x="520" y="531" type="line"/>
			<point x="421" y="531" type="line"/>
			<point x="457" y="684" type="line"/>
			<point x="368" y="684" type="line"/>
			<point x="333" y="531" type="line"/>
			<point x="204" y="531" type="line"/>
			<point x="240" y="684" type="line"/>
			<point x="151" y="684" type="line"/>
			<point x="115" y="531" type="line"/>
			<point x="-133" y="531" type="line"/>
			<point x="-96" y="792" type="line"/>
			<point x="-402" y="792" type="line"/>
			<point x="-414" y="710" type="line"/>
			<point x="-213" y="710" type="line"/>
			<point x="-323" y="-81" type="line"/>
			<point x="-525" y="-81" type="line"/>
		</contour>
		<contour>
			<point x="-173" y="249" type="line"/>
			<point x="-146" y="444" type="line"/>
			<point x="95" y="444" type="line"/>
			<point x="49" y="249" type="line"/>
		</contour>
		<contour>
			<point x="138" y="249" type="line"/>
			<point x="184" y="444" type="line"/>
			<point x="312" y="444" type="line"/>
			<point x="267" y="249" type="line"/>
		</contour>
	</outline>
</glyph>
<glyph name="caronSlovak" format="2">
	<advance width="600"/>
	<outline>
		<contour>
			<point x="287" y="572" type="line"/>
			<point x="352" y="572" type="line"/>
			<point x="442" y="750" type="line"/>
			<point x="332" y="750" type="line"/>
		</contour>
	</outline>
	<anchor name="_caron" x="332" y="750"/>
</glyph>
<glyph name="colon_colon.cLig" format="2">
	<advance width="600"/>
	<outline>
		<contour>
			<point x="-252" y="-12" type="curve" smooth="yes"/>
			<point x="-195" y="-12"/>
			<point x="-168" y="11"/>
			<point x="-161" y="60" type="curve" smooth="yes"/>
			<point x="-153" y="115"/>
			<point x="-178" y="144"/>
			<point x="-240" y="144" type="curve" smooth="yes"/>
			<point x="-298" y="144"/>
			<point x="-325" y="120"/>
			<point x="-331" y="71" type="curve" smooth="yes"/>
			<point x="-340" y="16"/>
			<point x="-315" y="-12"/>
		</contour>
		<contour>
			<point x="-199" y="369" type="curve" smooth="yes"/>
			<point x="-142" y="369"/>
			<point x="-115" y="392"/>
			<point x="-108" y="441" type="curve" smooth="yes"/>
			<point x="-100" y="496"/>
			<point x="-125" y="525"/>
			<point x="-187" y="525" type="curve" smooth="yes"/>
			<point x="-245" y="525"/>
			<point x="-272" y="501"/>
			<point x="-278" y="452" type="curve" smooth="yes"/>
			<point x="-287" y="397"/>
			<point x="-262" y="369"/>
		</contour>
		<contour>
			<point x="186" y="-12" type="curve" smooth="yes"/>
			<point x="243" y="-12"/>
			<point x="270" y="11"/>
			<point x="277" y="60" type="curve" smooth="yes"/>
			<point x="285" y="115"/>
			<point x="260" y="144"/>
			<point x="198" y="144" type="curve" smooth="yes"/>
			<point x="140" y="144"/>
			<point x="113" y="120"/>
			<point x="107" y="71" type="curve" smooth="yes"/>
			<point x="98" y="16"/>
			<point x="123" y="-12"/>
		</contour>
		<contour>
			<point x="239" y="369" type="curve" smooth="yes"/>
			<point x="296" y="369"/>
			<point x="323" y="392"/>
			<point x="330" y="441" type="curve" smooth="yes"/>
			<point x="338" y="496"/>
			<point x="313" y="525"/>
			<point x="251" y="525" type="curve" smooth="yes"/>
			<point x="193" y="525"/>
			<point x="166" y="501"/>
			<point x="160" y="452" type="curve" smooth="yes"/>
			<point x="151" y="397"/>
			<point x="176" y="369"/>
		</contour>
	</outline>
</glyph>
<glyph name="colon_equal.med" format="2">
	<advance width="600"/>
	<outline>
		<contour>
			<point x="320" y="363" type="curve" smooth="yes"/>
			<point x="377" y="363"/>
			<point x="404" y="386"/>
			<point x="411" y="435" type="curve" smooth="yes"/>
			<point x="419" y="490"/>
			<point x="394" y="519"/>
			<point x="332" y="519" type="curve" smooth="yes"/>
			<point x="274" y="519"/>
			<point x="247" y="495"/>
			<point x="241" y="446" type="curve" smooth="yes"/>
			<point x="232" y="391"/>
			<point x="257" y="363"/>
		</contour>
		<contour>
			<point x="514" y="376" type="line"/>
			<point x="616" y="376" type="line"/>
			<point x="630" y="472" type="line"/>
			<point x="528" y="472" type="line"/>
		</contour>
		<contour>
			<point x="16" y="376" type="line"/>
			<point x="118" y="376" type="line"/>
			<point x="131" y="472" type="line"/>
			<point x="30" y="472" type="line"/>
		</contour>
		<contour>
			<point x="484" y="160" type="line"/>
			<point x="586" y="160" type="line"/>
			<point x="599" y="255" type="line"/>
			<point x="497" y="255" type="line"/>
		</contour>
		<contour>
			<point x="-14" y="160" type="line"/>
			<point x="88" y="160" type="line"/>
			<point x="101" y="255" type="line"/>
			<point x="-1" y="255" type="line"/>
		</contour>
		<contour>
			<point x="280" y="74" type="curve" smooth="yes"/>
			<point x="337" y="74"/>
			<point x="364" y="97"/>
			<point x="371" y="146" type="curve" smooth="yes"/>
			<point x="379" y="201"/>
			<point x="354" y="230"/>
			<point x="292" y="230" type="curve" smooth="yes"/>
			<point x="234" y="230"/>
			<point x="207" y="206"/>
			<point x="201" y="157" type="curve" smooth="yes"/>
			<point x="192" y="102"/>
			<point x="217" y="74"/>
		</contour>
	</outline>
</glyph>
<glyph name="dotbelow" format="2">
	<advance width="600"/>
	<outline>
		<contour>
			<point x="243" y="-172" type="curve" smooth="yes"/>
			<point x="295" y="-172"/>
			<point x="314" y="-150"/>
			<point x="319" y="-107" type="curve" smooth="yes"/>
			<point x="324" y="-63"/>
			<point x="304" y="-40"/>
			<point x="253" y="-40" type="curve" smooth="yes"/>
			<point x="203" y="-40"/>
			<point x="181" y="-59"/>
			<point x="176" y="-104" type="curve" smooth="yes"/>
			<point x="171" y="-148"/>
			<point x="190" y="-172"/>
		</contour>
	</outline>
	<anchor name="bottom" x="263" y="0"/>
</glyph>
<glyph name="equal.init" format="2">
	<advance width="600"/>
	<outline>
		<contour>
			<point x="183" y="375" type="line"/>
			<point x="616" y="375" type="line"/>
			<point x="629" y="471" type="line"/>
			<point x="197" y="471" type="line"/>
		</contour>
		<contour>
			<point x="153" y="158" type="line"/>
			<point x="585" y="158" type="line"/>
			<point x="598" y="254" type="line"/>
			<point x="166" y="254" type="line"/>
		</contour>
	</outline>
</glyph>
<glyph name="equal_bar_bar.rem" format="2">
	<advance width="600"/>
	<outline>
		<contour>
			<point x="320" y="-55" type="line"/>
			<point x="424" y="684" type="line"/>
			<point x="320" y="684" type="line"/>
			<point x="216" y="-55" type="line"/>
		</contour>
		<contour>
			<point x="-62" y="-55" type="line"/>
			<point x="42" y="684" type="line"/>
			<point x="-63" y="684" type="line"/>
			<point x="-93" y="471" type="line"/>
			<point x="-1002" y="471" type="line"/>
			<point x="-1016" y="375" type="line"/>
			<point x="-106" y="375" type="line"/>
			<point x="-123" y="254" type="line"/>
			<point x="-1033" y="254" type="line"/>
			<point x="-1046" y="158" type="line"/>
			<point x="-137" y="158" type="line"/>
			<point x="-167" y="-55" type="line"/>
		</contour>
	</outline>
</glyph>
<glyph name="equal_equal.cLig" format="2">
	<advance width="600"/>
	<outline>
		<contour>
			<point x="-419" y="355" type="line"/>
			<point x="445" y="355" type="line"/>
			<point x="458" y="450" type="line"/>
			<point x="-405" y="450" type="line"/>
		</contour>
		<contour>
			<point x="-449" y="138" type="line"/>
			<point x="415" y="138" type="line"/>
			<point x="428" y="233" type="line"/>
			<point x="-435" y="233" type="line"/>
		</contour>
	</outline>
</glyph>
<glyph name="equal_equal_equal.cLig" format="2">
	<advance width="600"/>
	<outline>
		<contour>
			<point x="-1019" y="473" type="line"/>
			<point x="480" y="473" type="line"/>
			<point x="492" y="563" type="line"/>
			<point x="-1007" y="563" type="line"/>
		</contour>
		<contour>
			<point x="-1049" y="268" type="line"/>
			<point x="451" y="268" type="line"/>
			<point x="463" y="358" type="line"/>
			<point x="-1036" y="358" type="line"/>
		</contour>
		<contour>
			<point x="-1078" y="63" type="line"/>
			<point x="422" y="63" type="line"/>
			<point x="434" y="153" type="line"/>
			<point x="-1065" y="153" type="line"/>
		</contour>
	</outline>
</glyph>
<glyph name="equal_exclam_equal.rem" format="2">
	<advance width="600"/>
	<outline>
		<contour>
			<point x="-348" y="212" type="line"/>
			<point x="-268" y="212" type="line"/>
			<point x="-200" y="547" type="line"/>
			<point x="-180" y="684" type="line"/>
			<point x="-303" y="684" type="line"/>
			<point x="-322" y="548" type="line"/>
		</contour>
		<contour>
			<point x="-39" y="360" type="line"/>
			<point x="445" y="360" type="line"/>
			<point x="459" y="456" type="line"/>
			<point x="-25" y="456" type="line"/>
		</contour>
		<contour>
			<point x="-1019" y="360" type="line"/>
			<point x="-535" y="360" type="line"/>
			<point x="-521" y="456" type="line"/>
			<point x="-1005" y="456" type="line"/>
		</contour>
		<contour>
			<point x="-1049" y="143" type="line"/>
			<point x="-565" y="143" type="line"/>
			<point x="-551" y="238" type="line"/>
			<point x="-1035" y="238" type="line"/>
		</contour>
		<contour>
			<point x="-69" y="143" type="line"/>
			<point x="415" y="143" type="line"/>
			<point x="429" y="238" type="line"/>
			<point x="-55" y="238" type="line"/>
		</contour>
		<contour>
			<point x="-333" y="-12" type="curve" smooth="yes"/>
			<point x="-280" y="-12"/>
			<point x="-257" y="8"/>
			<point x="-251" y="53" type="curve" smooth="yes"/>
			<point x="-244" y="103"/>
			<point x="-268" y="129"/>
			<point x="-324" y="129" type="curve" smooth="yes"/>
			<point x="-376" y="129"/>
			<point x="-400" y="108"/>
			<point x="-406" y="64" type="curve" smooth="yes"/>
			<point x="-413" y="13"/>
			<point x="-389" y="-12"/>
		</contour>
	</outline>
</glyph>
<glyph name="equal_less.rem" format="2">
	<advance width="600"/>
	<outline>
		<contour>
			<point x="431" y="254" type="line"/>
			<point x="-304" y="254" type="line"/>
			<point x="-346" y="312" type="line"/>
			<point x="-282" y="375" type="line"/>
			<point x="448" y="375" type="line"/>
			<point x="461" y="471" type="line"/>
			<point x="-186" y="471" type="line"/>
			<point x="-27" y="629" type="line"/>
			<point x="-162" y="629" type="line"/>
			<point x="-472" y="317" type="line"/>
			<point x="-241" y="0" type="line"/>
			<point x="-118" y="0" type="line"/>
			<point x="-234" y="158" type="line"/>
			<point x="417" y="158" type="line"/>
		</contour>
	</outline>
</glyph>
<glyph name="equal_less_less.rem" format="2">
	<advance width="600"/>
	<outline>
		<contour>
			<point x="554" y="629" type="line"/>
			<point x="419" y="629" type="line"/>
			<point x="105" y="316" type="line"/>
			<point x="341" y="0" type="line"/>
			<point x="466" y="0" type="line"/>
			<point x="232" y="309" type="line"/>
		</contour>
		<contour>
			<point x="171" y="629" type="line"/>
			<point x="38" y="629" type="line"/>
			<point x="-119" y="471" type="line"/>
			<point x="-1002" y="471" type="line"/>
			<point x="-1016" y="375" type="line"/>
			<point x="-77" y="375" type="line"/>
		</contour>
		<contour>
			<point x="-94" y="254" type="line"/>
			<point x="-1033" y="254" type="line"/>
			<point x="-1046" y="158" type="line"/>
			<point x="-149" y="158" type="line"/>
			<point x="-35" y="0" type="line"/>
			<point x="86" y="0" type="line"/>
		</contour>
	</outline>
</glyph>
<glyph name="equal_slash_equal.rem" format="2">
	<advance width="600"/>
	<outline>
		<contour>
			<point x="-1049" y="138" type="line"/>
			<point x="-466" y="138" type="line"/>
			<point x="-630" y="-76" type="line"/>
			<point x="-523" y="-76" type="line"/>
			<point x="-359" y="138" type="line"/>
			<point x="415" y="138" type="line"/>
			<point x="428" y="233" type="line"/>
			<point x="-286" y="233" type="line"/>
			<point x="-193" y="355" type="line"/>
			<point x="445" y="355" type="line"/>
			<point x="458" y="450" type="line"/>
			<point x="-120" y="450" type="line"/>
			<point x="32" y="648" type="line"/>
			<point x="-76" y="648" type="line"/>
			<point x="-228" y="450" type="line"/>
			<point x="-1005" y="450" type="line"/>
			<point x="-1019" y="355" type="line"/>
			<point x="-300" y="355" type="line"/>
			<point x="-394" y="233" type="line"/>
			<point x="-1035" y="233" type="line"/>
		</contour>
	</outline>
</glyph>
<glyph name="exclam_exclam_exclam.rem" format="2">
	<advance width="600"/>
	<outline>
		<contour>
			<point x="-832" y="212" type="line"/>
			<point x="-752" y="212" type="line"/>
			<point x="-684" y="547" type="line"/>
			<point x="-664" y="684" type="line"/>
			<point x="-787" y="684" type="line"/>
			<point x="-806" y="548" type="line"/>
		</contour>
		<contour>
			<point x="-817" y="-12" type="curve" smooth="yes"/>
			<point x="-764" y="-12"/>
			<point x="-741" y="8"/>
			<point x="-735" y="53" type="curve" smooth="yes"/>
			<point x="-728" y="103"/>
			<point x="-752" y="129"/>
			<point x="-808" y="129" type="curve" smooth="yes"/>
			<point x="-860" y="129"/>
			<point x="-884" y="108"/>
			<point x="-890" y="64" type="curve" smooth="yes"/>
			<point x="-897" y="13"/>
			<point x="-873" y="-12"/>
		</contour>
		<contour>
			<point x="-348" y="212" type="line"/>
			<point x="-268" y="212" type="line"/>
			<point x="-200" y="547" type="line"/>
			<point x="-180" y="684" type="line"/>
			<point x="-303" y="684" type="line"/>
			<point x="-322" y="548" type="line"/>
		</contour>
		<contour>
			<point x="-333" y="-12" type="curve" smooth="yes"/>
			<point x="-280" y="-12"/>
			<point x="-257" y="8"/>
			<point x="-251" y="53" type="curve" smooth="yes"/>
			<point x="-244" y="103"/>
			<point x="-268" y="129"/>
			<point x="-324" y="129" type="curve" smooth="yes"/>
			<point x="-376" y="129"/>
			<point x="-400" y="108"/>
			<point x="-406" y="64" type="curve" smooth="yes"/>
			<point x="-413" y="13"/>
			<point x="-389" y="-12"/>
		</contour>
		<contour>
			<point x="137" y="212" type="line"/>
			<point x="217" y="212" type="line"/>
			<point x="285" y="547" type="line"/>
			<point x="305" y="684" type="line"/>
			<point x="182" y="684" type="line"/>
			<point x="163" y="548" type="line"/>
		</contour>
		<contour>
			<point x="152" y="-12" type="curve" smooth="yes"/>
			<point x="205" y="-12"/>
			<point x="228" y="8"/>
			<point x="234" y="53" type="curve" smooth="yes"/>
			<point x="241" y="103"/>
			<point x="217" y="129"/>
			<point x="161" y="129" type="curve" smooth="yes"/>
			<point x="109" y="129"/>
			<point x="85" y="108"/>
			<point x="79" y="64" type="curve" smooth="yes"/>
			<point x="72" y="13"/>
			<point x="96" y="-12"/>
		</contour>
	</outline>
</glyph>
<glyph name="exclam_exclam_period.cLig" format="2">
	<advance width="600"/>
	<outline>
		<contour>
			<point x="-832" y="212" type="line"/>
			<point x="-752" y="212" type="line"/>
			<point x="-684" y="547" type="line"/>
			<point x="-664" y="684" type="line"/>
			<point x="-787" y="684" type="line"/>
			<point x="-806" y="548" type="line"/>
		</contour>
		<contour>
			<point x="-817" y="-12" type="curve" smooth="yes"/>
			<point x="-764" y="-12"/>
			<point x="-741" y="8"/>
			<point x="-735" y="53" type="curve" smooth="yes"/>
			<point x="-728" y="103"/>
			<point x="-752" y="129"/>
			<point x="-808" y="129" type="curve" smooth="yes"/>
			<point x="-860" y="129"/>
			<point x="-884" y="108"/>
			<point x="-890" y="64" type="curve" smooth="yes"/>
			<point x="-897" y="13"/>
			<point x="-873" y="-12"/>
		</contour>
		<contour>
			<point x="-347" y="212" type="line"/>
			<point x="-267" y="212" type="line"/>
			<point x="-199" y="547" type="line"/>
			<point x="-179" y="684" type="line"/>
			<point x="-302" y="684" type="line"/>
			<point x="-321" y="548" type="line"/>
		</contour>
		<contour>
			<point x="-332" y="-12" type="curve" smooth="yes"/>
			<point x="-279" y="-12"/>
			<point x="-256" y="8"/>
			<point x="-250" y="53" type="curve" smooth="yes"/>
			<point x="-243" y="103"/>
			<point x="-267" y="129"/>
			<point x="-323" y="129" type="curve" smooth="yes"/>
			<point x="-375" y="129"/>
			<point x="-399" y="108"/>
			<point x="-405" y="64" type="curve" smooth="yes"/>
			<point x="-412" y="13"/>
			<point x="-388" y="-12"/>
		</contour>
		<contour>
			<point x="154" y="-12" type="curve" smooth="yes"/>
			<point x="211" y="-12"/>
			<point x="238" y="11"/>
			<point x="245" y="60" type="curve" smooth="yes"/>
			<point x="253" y="115"/>
			<point x="228" y="144"/>
			<point x="166" y="144" type="curve" smooth="yes"/>
			<point x="108" y="144"/>
			<point x="81" y="120"/>
			<point x="75" y="71" type="curve" smooth="yes"/>
			<point x="66" y="16"/>
			<point x="91" y="-12"/>
		</contour>
	</outline>
</glyph>
<glyph name="five.den" format="2">
	<advance width="600"/>
	<outline>
		<contour>
			<point x="262" y="-8" type="curve" smooth="yes"/>
			<point x="365" y="-8"/>
			<point x="430" y="52"/>
			<point x="429" y="146" type="curve" smooth="yes"/>
			<point x="428" y="219"/>
			<point x="384" y="252"/>
			<point x="299" y="252" type="curve" smooth="yes"/>
			<point x="278" y="252"/>
			<point x="258" y="250"/>
			<point x="239" y="247" type="curve"/>
			<point x="254" y="348" type="line"/>
			<point x="448" y="348" type="line"/>
			<point x="456" y="410" type="line"/>
			<point x="191" y="410" type="line"/>
			<point x="158" y="178" type="line"/>
			<point x="190" y="188"/>
			<point x="222" y="196"/>
			<point x="261" y="196" type="curve" smooth="yes"/>
			<point x="324" y="196"/>
			<point x="350" y="177"/>
			<point x="351" y="137" type="curve" smooth="yes"/>
			<point x="352" y="90"/>
			<point x="320" y="56"/>
			<point x="260" y="56" type="curve" smooth="yes"/>
			<point x="218" y="56"/>
			<point x="174" y="69"/>
			<point x="133" y="101" type="curve"/>
			<point x="124" y="36" type="line"/>
			<point x="152" y="11"/>
			<point x="201" y="-8"/>
		</contour>
	</outline>
</glyph>
<glyph name="five.numr" format="2">
	<advance width="600"/>
	<outline>
		<contour>
			<point x="315" y="366" type="curve" smooth="yes"/>
			<point x="403" y="366"/>
			<point x="458" y="420"/>
			<point x="456" y="497" type="curve" smooth="yes"/>
			<point x="456" y="556"/>
			<point x="421" y="584"/>
			<point x="348" y="584" type="curve" smooth="yes"/>
			<point x="330" y="584"/>
			<point x="314" y="583"/>
			<point x="299" y="580" type="curve"/>
			<point x="310" y="662" type="line"/>
			<point x="471" y="662" type="line"/>
			<point x="478" y="718" type="line"/>
			<point x="254" y="718" type="line"/>
			<point x="227" y="521" type="line"/>
			<point x="262" y="531"/>
			<point x="286" y="535"/>
			<point x="313" y="535" type="curve" smooth="yes"/>
			<point x="366" y="535"/>
			<point x="385" y="520"/>
			<point x="386" y="487" type="curve" smooth="yes"/>
			<point x="387" y="447"/>
			<point x="361" y="422"/>
			<point x="313" y="422" type="curve" smooth="yes"/>
			<point x="278" y="422"/>
			<point x="240" y="433"/>
			<point x="206" y="459" type="curve"/>
			<point x="198" y="401" type="line"/>
			<point x="223" y="380"/>
			<point x="265" y="366"/>
		</contour>
	</outline>
</glyph>
<glyph name="four.den" format="2">
	<advance width="600"/>
	<outline>
		<contour>
			<point x="300" y="0" type="line"/>
			<point x="376" y="0" type="line"/>
			<point x="388" y="77" type="line"/>
			<point x="432" y="77" type="line"/>
			<point x="440" y="141" type="line"/>
			<point x="395" y="141" type="line"/>
			<point x="434" y="411" type="line"/>
			<point x="318" y="411" type="line"/>
			<point x="116" y="141" type="line"/>
			<point x="107" y="78" type="line"/>
			<point x="311" y="78" type="line"/>
		</contour>
		<contour>
			<point x="192" y="141" type="line"/>
			<point x="350" y="356" type="line"/>
			<point x="320" y="141" type="line"/>
		</contour>
	</outline>
</glyph>
<glyph name="four.numr" format="2">
	<advance width="600"/>
	<outline>
		<contour>
			<point x="343" y="372" type="line"/>
			<point x="412" y="372" type="line"/>
			<point x="421" y="436" type="line"/>
			<point x="457" y="436" type="line"/>
			<point x="465" y="492" type="line"/>
			<point x="428" y="492" type="line"/>
			<point x="460" y="718" type="line"/>
			<point x="355" y="718" type="line"/>
			<point x="190" y="492" type="line"/>
			<point x="182" y="436" type="line"/>
			<point x="353" y="436" type="line"/>
		</contour>
		<contour>
			<point x="257" y="492" type="line"/>
			<point x="385" y="669" type="line"/>
			<point x="360" y="492" type="line"/>
		</contour>
	</outline>
</glyph>
<glyph name="g.ss01" format="2">
	<advance width="600"/>
	<outline>
		<contour>
			<point x="222" y="-204" type="curve" smooth="yes"/>
			<point x="356" y="-204"/>
			<point x="462" y="-141"/>
			<point x="485" y="28" type="curve" smooth="yes"/>
			<point x="555" y="523" type="line"/>
			<point x="374" y="523" type="line" smooth="yes"/>
			<point x="197" y="523"/>
			<point x="85" y="433"/>
			<point x="62" y="273" type="curve" smooth="yes"/>
			<point x="60" y="259" type="line" smooth="yes"/>
			<point x="38" y="106"/>
			<point x="100" y="9"/>
			<point x="222" y="9" type="curve" smooth="yes"/>
			<point x="287" y="9"/>
			<point x="346" y="42"/>
			<point x="388" y="119" type="curve"/>
			<point x="377" y="44" type="line" smooth="yes"/>
			<point x="362" y="-66"/>
			<point x="311" y="-115"/>
			<point x="216" y="-115" type="curve" smooth="yes"/>
			<point x="146" y="-115"/>
			<point x="90" y="-87"/>
			<point x="50" y="-55" type="curve"/>
			<point x="37" y="-147" type="line"/>
			<point x="73" y="-175"/>
			<point x="138" y="-204"/>
		</contour>
		<contour>
			<point x="273" y="96" type="curve" smooth="yes"/>
			<point x="196" y="96"/>
			<point x="159" y="160"/>
			<point x="174" y="264" type="curve" smooth="yes"/>
			<point x="175" y="271" type="line" smooth="yes"/>
			<point x="191" y="383"/>
			<point x="256" y="435"/>
			<point x="364" y="435" type="curve" smooth="yes"/>
			<point x="432" y="435" type="line"/>
			<point x="405" y="239" type="line" smooth="yes"/>
			<point x="392" y="155"/>
			<point x="345" y="96"/>
		</contour>
	</outline>
	<anchor name="top" x="362" y="523"/>
</glyph>
<glyph name="greater_equal_greater.rem" format="2">
	<advance width="600"/>
	<outline>
		<contour>
			<point x="-1114" y="0" type="line"/>
			<point x="-981" y="0" type="line"/>
			<point x="-824" y="158" type="line"/>
			<point x="206" y="158" type="line"/>
			<point x="47" y="0" type="line"/>
			<point x="182" y="0" type="line"/>
			<point x="492" y="312" type="line"/>
			<point x="261" y="629" type="line"/>
			<point x="138" y="629" type="line"/>
			<point x="254" y="471" type="line"/>
			<point x="-794" y="471" type="line"/>
			<point x="-908" y="629" type="line"/>
			<point x="-1029" y="629" type="line"/>
			<point x="-849" y="375" type="line"/>
			<point x="324" y="375" type="line"/>
			<point x="366" y="317" type="line"/>
			<point x="302" y="254" type="line"/>
			<point x="-866" y="254" type="line"/>
		</contour>
	</outline>
</glyph>
<glyph name="greater_greater_equal.fina" format="2">
	<advance width="600"/>
	<outline>
		<contour>
			<point x="46" y="0" type="line"/>
			<point x="182" y="0" type="line"/>
			<point x="489" y="313" type="line"/>
			<point x="253" y="629" type="line"/>
			<point x="129" y="629" type="line"/>
			<point x="360" y="318" type="line"/>
		</contour>
		<contour>
			<point x="-614" y="158" type="line"/>
			<point x="-179" y="158" type="line"/>
			<point x="-338" y="0" type="line"/>
			<point x="-203" y="0" type="line"/>
			<point x="108" y="312" type="line"/>
			<point x="-124" y="629" type="line"/>
			<point x="-247" y="629" type="line"/>
			<point x="-131" y="471" type="line"/>
			<point x="-570" y="471" type="line"/>
			<point x="-583" y="375" type="line"/>
			<point x="-61" y="375" type="line"/>
			<point x="-19" y="317" type="line"/>
			<point x="-82" y="254" type="line"/>
			<point x="-601" y="254" type="line"/>
		</contour>
	</outline>
</glyph>
<glyph name="greater_greater_greater.cLig" format="2">
	<advance width="600"/>
	<outline>
		<contour>
			<point x="-1141" y="30" type="line"/>
			<point x="-654" y="238" type="line"/>
			<point x="-637" y="360" type="line"/>
			<point x="-1065" y="569" type="line"/>
			<point x="-1080" y="464" type="line"/>
			<point x="-737" y="302" type="line"/>
			<point x="-1125" y="143" type="line"/>
		</contour>
		<contour>
			<point x="-558" y="30" type="line"/>
			<point x="-71" y="238" type="line"/>
			<point x="-54" y="360" type="line"/>
			<point x="-482" y="569" type="line"/>
			<point x="-497" y="464" type="line"/>
			<point x="-154" y="302" type="line"/>
			<point x="-542" y="143" type="line"/>
		</contour>
		<contour>
			<point x="25" y="30" type="line"/>
			<point x="512" y="238" type="line"/>
			<point x="529" y="360" type="line"/>
			<point x="101" y="569" type="line"/>
			<point x="86" y="464" type="line"/>
			<point x="429" y="302" type="line"/>
			<point x="41" y="143" type="line"/>
		</contour>
	</outline>
</glyph>
<glyph name="greater_greater_hyphen.fina" format="2">
	<advance width="600"/>
	<outline>
		<contour>
			<point x="44" y="0" type="line"/>
			<point x="181" y="0" type="line"/>
			<point x="490" y="314" type="line"/>
			<point x="253" y="629" type="line"/>
			<point x="129" y="629" type="line"/>
			<point x="360" y="321" type="line"/>
		</contour>
		<contour>
			<point x="-153" y="365" type="line"/>
			<point x="-586" y="365" type="line"/>
			<point x="-600" y="264" type="line"/>
			<point x="-411" y="264" type="line"/>
			<point x="-63" y="263" type="line"/>
			<point x="-334" y="0" type="line"/>
			<point x="-201" y="0" type="line"/>
			<point x="117" y="314" type="line"/>
			<point x="-118" y="629" type="line"/>
			<point x="-241" y="629" type="line"/>
			<point x="-41" y="364" type="line"/>
			<point x="-153" y="364" type="line"/>
		</contour>
	</outline>
</glyph>
<glyph name="greater_greater_hyphen.rem" format="2">
	<advance width="600"/>
	<outline>
		<contour>
			<point x="-1104" y="0" type="line"/>
			<point x="-968" y="0" type="line"/>
			<point x="-660" y="314" type="line"/>
			<point x="-895" y="629" type="line"/>
			<point x="-1019" y="629" type="line"/>
			<point x="-789" y="320" type="line"/>
		</contour>
		<contour>
			<point x="-723" y="0" type="line"/>
			<point x="-587" y="0" type="line"/>
			<point x="-327" y="264" type="line"/>
			<point x="471" y="264" type="line"/>
			<point x="485" y="365" type="line"/>
			<point x="-315" y="365" type="line"/>
			<point x="-514" y="629" type="line"/>
			<point x="-637" y="629" type="line"/>
			<point x="-408" y="321" type="line"/>
		</contour>
	</outline>
</glyph>
<glyph name="greater_hyphen.fina" format="2">
	<advance width="600"/>
	<outline>
		<contour>
			<point x="171" y="629" type="line"/>
			<point x="371" y="364" type="line"/>
			<point x="14" y="365" type="line"/>
			<point x="0" y="264" type="line"/>
			<point x="349" y="263" type="line"/>
			<point x="78" y="0" type="line"/>
			<point x="211" y="0" type="line"/>
			<point x="529" y="314" type="line"/>
			<point x="294" y="629" type="line"/>
		</contour>
	</outline>
</glyph>
<glyph name="greater_hyphen.init" format="2">
	<advance width="600"/>
	<outline>
		<contour>
			<point x="49" y="0" type="line"/>
			<point x="185" y="0" type="line"/>
			<point x="445" y="264" type="line"/>
			<point x="600" y="264" type="line"/>
			<point x="614" y="365" type="line"/>
			<point x="456" y="365" type="line"/>
			<point x="257" y="629" type="line"/>
			<point x="134" y="629" type="line"/>
			<point x="363" y="321" type="line"/>
		</contour>
	</outline>
</glyph>
<glyph name="greater_hyphen.med" format="2">
	<advance width="600"/>
	<outline>
		<contour>
			<point x="171" y="629" type="line"/>
			<point x="371" y="364" type="line"/>
			<point x="14" y="365" type="line"/>
			<point x="0" y="264" type="line"/>
			<point x="349" y="263" type="line"/>
			<point x="78" y="0" type="line"/>
			<point x="211" y="0" type="line"/>
			<point x="478" y="264" type="line"/>
			<point x="600" y="264" type="line"/>
			<point x="614" y="365" type="line"/>
			<point x="491" y="365" type="line"/>
			<point x="294" y="629" type="line"/>
		</contour>
	</outline>
</glyph>
<glyph name="hyphen.init" format="2">
	<advance width="600"/>
	<outline>
		<contour>
			<point x="614" y="365" type="line"/>
			<point x="182" y="365" type="line"/>
			<point x="168" y="264" type="line"/>
			<point x="600" y="264" type="line"/>
		</contour>
	</outline>
</glyph>
<glyph name="hyphen.med" format="2">
	<advance width="600"/>
	<outline>
		<contour>
			<point x="615" y="365" type="line"/>
			<point x="15" y="365" type="line"/>
			<point x="1" y="264" type="line"/>
			<point x="601" y="264" type="line"/>
		</contour>
	</outline>
</glyph>
<glyph name="hyphen_bar_bar.rem" format="2">
	<advance width="600"/>
	<outline>
		<contour>
			<point x="42" y="683" type="line"/>
			<point x="-63" y="683" type="line"/>
			<point x="-108" y="365" type="line"/>
			<point x="-1018" y="365" type="line"/>
			<point x="-1032" y="264" type="line"/>
			<point x="-122" y="264" type="line"/>
			<point x="-167" y="-56" type="line"/>
			<point x="-62" y="-56" type="line"/>
		</contour>
		<contour>
			<point x="424" y="683" type="line"/>
			<point x="320" y="683" type="line"/>
			<point x="216" y="-56" type="line"/>
			<point x="320" y="-56" type="line"/>
		</contour>
	</outline>
</glyph>
<glyph name="hyphen_braceright.rem" format="2">
	<advance width="600"/>
	<outline>
		<contour>
			<point x="-56" y="-163" type="line"/>
			<point x="120" y="-163" type="line" smooth="yes"/>
			<point x="227" y="-163"/>
			<point x="291" y="-106"/>
			<point x="291" y="-21" type="curve" smooth="yes"/>
			<point x="291" y="63"/>
			<point x="220" y="133"/>
			<point x="220" y="194" type="curve" smooth="yes"/>
			<point x="220" y="237"/>
			<point x="249" y="267"/>
			<point x="317" y="267" type="curve" smooth="yes"/>
			<point x="394" y="267" type="line"/>
			<point x="408" y="364" type="line"/>
			<point x="328" y="364" type="line" smooth="yes"/>
			<point x="274" y="364"/>
			<point x="255" y="394"/>
			<point x="255" y="424" type="curve" smooth="yes"/>
			<point x="255" y="500"/>
			<point x="389" y="547"/>
			<point x="389" y="665" type="curve" smooth="yes"/>
			<point x="389" y="734"/>
			<point x="343" y="792"/>
			<point x="235" y="792" type="curve" smooth="yes"/>
			<point x="79" y="792" type="line"/>
			<point x="67" y="710" type="line"/>
			<point x="190" y="710" type="line" smooth="yes"/>
			<point x="245" y="710"/>
			<point x="274" y="689"/>
			<point x="274" y="646" type="curve" smooth="yes"/>
			<point x="274" y="562"/>
			<point x="143" y="521"/>
			<point x="143" y="429" type="curve" smooth="yes"/>
			<point x="143" y="391"/>
			<point x="168" y="372"/>
			<point x="204" y="362" type="curve"/>
			<point x="-417" y="362" type="line"/>
			<point x="-432" y="267" type="line"/>
			<point x="188" y="267" type="line"/>
			<point x="145" y="255"/>
			<point x="109" y="232"/>
			<point x="109" y="183" type="curve" smooth="yes"/>
			<point x="109" y="119"/>
			<point x="183" y="57"/>
			<point x="183" y="-8" type="curve" smooth="yes"/>
			<point x="183" y="-63"/>
			<point x="144" y="-81"/>
			<point x="84" y="-81" type="curve" smooth="yes"/>
			<point x="-44" y="-81" type="line"/>
		</contour>
	</outline>
</glyph>
<glyph name="hyphen_greater_greater.rem" format="2">
	<advance width="600"/>
	<outline>
		<contour>
			<point x="41" y="0" type="line"/>
			<point x="177" y="0" type="line"/>
			<point x="483" y="313" type="line"/>
			<point x="248" y="629" type="line"/>
			<point x="126" y="629" type="line"/>
			<point x="354" y="320" type="line"/>
		</contour>
		<contour>
			<point x="-359" y="365" type="line"/>
			<point x="-1030" y="365" type="line"/>
			<point x="-1044" y="264" type="line"/>
			<point x="-448" y="264" type="line"/>
			<point x="-100" y="263" type="line"/>
			<point x="-371" y="0" type="line"/>
			<point x="-238" y="0" type="line"/>
			<point x="80" y="314" type="line"/>
			<point x="-155" y="629" type="line"/>
			<point x="-278" y="629" type="line"/>
			<point x="-78" y="364" type="line"/>
			<point x="-359" y="364" type="line"/>
		</contour>
	</outline>
</glyph>
<glyph name="hyphen_hyphen_greater.rem" format="2">
	<advance width="600"/>
	<outline>
		<contour>
			<point x="14" y="365" type="line"/>
			<point x="-1018" y="365" type="line"/>
			<point x="-1032" y="264" type="line"/>
			<point x="-75" y="264" type="line"/>
			<point x="273" y="263" type="line"/>
			<point x="2" y="0" type="line"/>
			<point x="135" y="0" type="line"/>
			<point x="453" y="314" type="line"/>
			<point x="218" y="629" type="line"/>
			<point x="95" y="629" type="line"/>
			<point x="295" y="364" type="line"/>
			<point x="14" y="364" type="line"/>
		</contour>
	</outline>
</glyph>
<glyph name="hyphen_less.rem" format="2">
	<advance width="600"/>
	<outline>
		<contour>
			<point x="524" y="629" type="line"/>
			<point x="388" y="629" type="line"/>
			<point x="128" y="365" type="line"/>
			<point x="-459" y="365" type="line"/>
			<point x="-473" y="264" type="line"/>
			<point x="117" y="264" type="line"/>
			<point x="316" y="0" type="line"/>
			<point x="439" y="0" type="line"/>
			<point x="210" y="308" type="line"/>
		</contour>
	</outline>
</glyph>
<glyph name="k.ss01" format="2">
	<advance width="600"/>
	<outline>
		<contour>
			<point x="60" y="0" type="line"/>
			<point x="170" y="0" type="line"/>
			<point x="188" y="125" type="line"/>
			<point x="290" y="234" type="line"/>
			<point x="395" y="0" type="line"/>
			<point x="515" y="0" type="line"/>
			<point x="381" y="300" type="line"/>
			<point x="581" y="524" type="line"/>
			<point x="452" y="524" type="line"/>
			<point x="204" y="243" type="line"/>
			<point x="275" y="746" type="line"/>
			<point x="165" y="746" type="line"/>
		</contour>
	</outline>
	<anchor name="bottom" x="277" y="0"/>
</glyph>
<glyph name="less_asciitilde_greater.cLig" format="2">
	<advance width="600"/>
	<outline>
		<contour>
			<point x="-856" y="0" type="line"/>
			<point x="-732" y="0" type="line"/>
			<point x="-932" y="264" type="line"/>
			<point x="-511" y="264" type="line"/>
			<point x="-499" y="304"/>
			<point x="-473" y="345"/>
			<point x="-425" y="345" type="curve" smooth="yes"/>
			<point x="-325" y="345"/>
			<point x="-302" y="183"/>
			<point x="-165" y="183" type="curve" smooth="yes"/>
			<point x="-103" y="183"/>
			<point x="-59" y="222"/>
			<point x="-38" y="264" type="curve"/>
			<point x="326" y="264" type="line"/>
			<point x="53" y="0" type="line"/>
			<point x="184" y="0" type="line"/>
			<point x="504" y="314" type="line"/>
			<point x="269" y="629" type="line"/>
			<point x="148" y="629" type="line"/>
			<point x="348" y="365" type="line"/>
			<point x="-83" y="365" type="line"/>
			<point x="-94" y="326"/>
			<point x="-120" y="285"/>
			<point x="-168" y="285" type="curve" smooth="yes"/>
			<point x="-262" y="285"/>
			<point x="-294" y="447"/>
			<point x="-427" y="447" type="curve" smooth="yes"/>
			<point x="-490" y="447"/>
			<point x="-535" y="407"/>
			<point x="-556" y="365" type="curve"/>
			<point x="-913" y="365" type="line"/>
			<point x="-640" y="629" type="line"/>
			<point x="-771" y="629" type="line"/>
			<point x="-1091" y="315" type="line"/>
		</contour>
	</outline>
</glyph>
<glyph name="less_asterisk.cLig" format="2">
	<advance width="600"/>
	<outline>
		<contour>
			<point x="-93" y="-8" type="line"/>
			<point x="-77" y="99" type="line"/>
			<point x="-413" y="311" type="line"/>
			<point x="-18" y="519" type="line"/>
			<point x="-1" y="637" type="line"/>
			<point x="-484" y="375" type="line"/>
			<point x="-501" y="253" type="line"/>
		</contour>
		<contour>
			<point x="49" y="150" type="line"/>
			<point x="228" y="276" type="line"/>
			<point x="170" y="74" type="line"/>
			<point x="276" y="74" type="line"/>
			<point x="275" y="274" type="line"/>
			<point x="417" y="150" type="line"/>
			<point x="482" y="241" type="line"/>
			<point x="307" y="316" type="line"/>
			<point x="504" y="392" type="line"/>
			<point x="465" y="483" type="line"/>
			<point x="288" y="359" type="line"/>
			<point x="344" y="560" type="line"/>
			<point x="239" y="560" type="line"/>
			<point x="239" y="357" type="line"/>
			<point x="96" y="484" type="line"/>
			<point x="30" y="393" type="line"/>
			<point x="210" y="317" type="line"/>
			<point x="9" y="241" type="line"/>
		</contour>
	</outline>
</glyph>
<glyph name="less_dollar.cLig" format="2">
	<advance width="600"/>
	<outline>
		<contour>
			<point x="109" y="-93" type="line"/>
			<point x="188" y="-93" type="line"/>
			<point x="213" y="-11" type="line"/>
			<point x="226" y="-11"/>
			<point x="239" y="-12"/>
			<point x="253" y="-12" type="curve" smooth="yes"/>
			<point x="409" y="-12"/>
			<point x="514" y="71"/>
			<point x="514" y="214" type="curve" smooth="yes"/>
			<point x="514" y="324"/>
			<point x="444" y="358"/>
			<point x="328" y="388" type="curve"/>
			<point x="392" y="597" type="line"/>
			<point x="448" y="585"/>
			<point x="503" y="562"/>
			<point x="541" y="530" type="curve"/>
			<point x="555" y="627" type="line"/>
			<point x="523" y="651"/>
			<point x="478" y="671"/>
			<point x="426" y="683" type="curve"/>
			<point x="453" y="774" type="line"/>
			<point x="374" y="774" type="line"/>
			<point x="349" y="694" type="line"/>
			<point x="338" y="695"/>
			<point x="325" y="696"/>
			<point x="313" y="696" type="curve" smooth="yes"/>
			<point x="151" y="696"/>
			<point x="56" y="613"/>
			<point x="56" y="477" type="curve" smooth="yes"/>
			<point x="56" y="358"/>
			<point x="137" y="322"/>
			<point x="235" y="298" type="curve"/>
			<point x="171" y="86" type="line"/>
			<point x="101" y="95"/>
			<point x="27" y="117"/>
			<point x="-57" y="153" type="curve" smooth="yes"/>
			<point x="-416" y="313" type="line"/>
			<point x="-50" y="476" type="line"/>
			<point x="-33" y="592" type="line"/>
			<point x="-493" y="376" type="line"/>
			<point x="-510" y="253" type="line"/>
			<point x="-104" y="66" type="line" smooth="yes"/>
			<point x="-19" y="29"/>
			<point x="59" y="7"/>
			<point x="136" y="-4" type="curve"/>
		</contour>
		<contour>
			<point x="167" y="494" type="curve" smooth="yes"/>
			<point x="167" y="565"/>
			<point x="219" y="606"/>
			<point x="310" y="606" type="curve" smooth="yes"/>
			<point x="316" y="606"/>
			<point x="322" y="605"/>
			<point x="329" y="605" type="curve"/>
			<point x="267" y="403" type="line"/>
			<point x="201" y="420"/>
			<point x="167" y="438"/>
		</contour>
		<contour>
			<point x="403" y="194" type="curve" smooth="yes"/>
			<point x="403" y="121"/>
			<point x="344" y="80"/>
			<point x="253" y="80" type="curve" smooth="yes"/>
			<point x="234" y="80" type="line"/>
			<point x="296" y="285" type="line"/>
			<point x="364" y="270"/>
			<point x="403" y="254"/>
		</contour>
	</outline>
</glyph>
<glyph name="less_dollar_greater.cLig" format="2">
	<advance width="600"/>
	<outline>
		<contour>
			<point x="-465" y="-93" type="line"/>
			<point x="-386" y="-93" type="line"/>
			<point x="-361" y="-11" type="line"/>
			<point x="-347" y="-11"/>
			<point x="-334" y="-12"/>
			<point x="-320" y="-12" type="curve" smooth="yes"/>
			<point x="-163" y="-12"/>
			<point x="-60" y="72"/>
			<point x="-60" y="213" type="curve" smooth="yes"/>
			<point x="-60" y="325"/>
			<point x="-129" y="359"/>
			<point x="-246" y="388" type="curve"/>
			<point x="-182" y="597" type="line"/>
			<point x="-106" y="582"/>
			<point x="-34" y="547"/>
			<point x="56" y="502" type="curve" smooth="yes"/>
			<point x="423" y="318" type="line"/>
			<point x="58" y="151" type="line"/>
			<point x="42" y="37" type="line"/>
			<point x="497" y="253" type="line"/>
			<point x="514" y="375" type="line"/>
			<point x="102" y="587" type="line" smooth="yes"/>
			<point x="1" y="637"/>
			<point x="-70" y="670"/>
			<point x="-147" y="685" type="curve"/>
			<point x="-120" y="774" type="line"/>
			<point x="-200" y="774" type="line"/>
			<point x="-224" y="695" type="line"/>
			<point x="-235" y="695"/>
			<point x="-247" y="696"/>
			<point x="-258" y="696" type="curve" smooth="yes"/>
			<point x="-423" y="696"/>
			<point x="-518" y="611"/>
			<point x="-518" y="478" type="curve" smooth="yes"/>
			<point x="-518" y="356"/>
			<point x="-437" y="321"/>
			<point x="-338" y="298" type="curve"/>
			<point x="-402" y="86" type="line"/>
			<point x="-477" y="97"/>
			<point x="-556" y="120"/>
			<point x="-642" y="157" type="curve" smooth="yes"/>
			<point x="-1000" y="313" type="line"/>
			<point x="-635" y="476" type="line"/>
			<point x="-618" y="591" type="line"/>
			<point x="-1078" y="375" type="line"/>
			<point x="-1095" y="253" type="line"/>
			<point x="-686" y="70" type="line" smooth="yes"/>
			<point x="-603" y="34"/>
			<point x="-521" y="9"/>
			<point x="-438" y="-3" type="curve"/>
		</contour>
		<contour>
			<point x="-407" y="494" type="curve" smooth="yes"/>
			<point x="-407" y="565"/>
			<point x="-355" y="605"/>
			<point x="-264" y="605" type="curve" smooth="yes"/>
			<point x="-245" y="605" type="line"/>
			<point x="-306" y="403" type="line"/>
			<point x="-373" y="420"/>
			<point x="-407" y="438"/>
		</contour>
		<contour>
			<point x="-170" y="194" type="curve" smooth="yes"/>
			<point x="-170" y="121"/>
			<point x="-229" y="81"/>
			<point x="-321" y="81" type="curve" smooth="yes"/>
			<point x="-339" y="81" type="line"/>
			<point x="-277" y="285" type="line"/>
			<point x="-210" y="270"/>
			<point x="-170" y="254"/>
		</contour>
	</outline>
</glyph>
<glyph name="less_equal.cLig" format="2">
	<advance width="600"/>
	<outline>
		<contour>
			<point x="273" y="175" type="line"/>
			<point x="287" y="275" type="line"/>
			<point x="-190" y="456" type="line"/>
			<point x="337" y="635" type="line"/>
			<point x="353" y="744" type="line"/>
			<point x="-271" y="520" type="line"/>
			<point x="-289" y="397" type="line"/>
		</contour>
		<contour>
			<point x="239" y="-65" type="line"/>
			<point x="253" y="30" type="line"/>
			<point x="-309" y="251" type="line"/>
			<point x="-323" y="157" type="line"/>
		</contour>
	</outline>
</glyph>
<glyph name="less_equal.rem" format="2">
	<advance width="600"/>
	<outline>
		<contour>
			<point x="544" y="629" type="line"/>
			<point x="411" y="629" type="line"/>
			<point x="254" y="471" type="line"/>
			<point x="-420" y="471" type="line"/>
			<point x="-434" y="375" type="line"/>
			<point x="296" y="375" type="line"/>
		</contour>
		<contour>
			<point x="279" y="254" type="line"/>
			<point x="-451" y="254" type="line"/>
			<point x="-464" y="158" type="line"/>
			<point x="224" y="158" type="line"/>
			<point x="338" y="0" type="line"/>
			<point x="459" y="0" type="line"/>
		</contour>
	</outline>
</glyph>
<glyph name="less_equal_equal_greater.rem" format="2">
	<advance width="600"/>
	<outline>
		<contour>
			<point x="38" y="0" type="line"/>
			<point x="172" y="0" type="line"/>
			<point x="483" y="312" type="line"/>
			<point x="252" y="629" type="line"/>
			<point x="129" y="629" type="line"/>
			<point x="244" y="471" type="line"/>
			<point x="-1382" y="471" type="line"/>
			<point x="-1223" y="629" type="line"/>
			<point x="-1357" y="629" type="line"/>
			<point x="-1668" y="317" type="line"/>
			<point x="-1437" y="0" type="line"/>
			<point x="-1314" y="0" type="line"/>
			<point x="-1429" y="158" type="line"/>
			<point x="197" y="158" type="line"/>
		</contour>
		<contour>
			<point x="357" y="317" type="line"/>
			<point x="293" y="254" type="line"/>
			<point x="-1499" y="254" type="line"/>
			<point x="-1542" y="312" type="line"/>
			<point x="-1478" y="375" type="line"/>
			<point x="314" y="375" type="line"/>
		</contour>
	</outline>
</glyph>
<glyph name="less_equal_greater.rem" format="2">
	<advance width="600"/>
	<outline>
		<contour>
			<point x="38" y="0" type="line"/>
			<point x="173" y="0" type="line"/>
			<point x="483" y="312" type="line"/>
			<point x="252" y="629" type="line"/>
			<point x="129" y="629" type="line"/>
			<point x="245" y="471" type="line"/>
			<point x="-781" y="471" type="line"/>
			<point x="-622" y="629" type="line"/>
			<point x="-757" y="629" type="line"/>
			<point x="-1067" y="317" type="line"/>
			<point x="-836" y="0" type="line"/>
			<point x="-713" y="0" type="line"/>
			<point x="-829" y="158" type="line"/>
			<point x="197" y="158" type="line"/>
		</contour>
		<contour>
			<point x="357" y="317" type="line"/>
			<point x="293" y="254" type="line"/>
			<point x="-899" y="254" type="line"/>
			<point x="-941" y="312" type="line"/>
			<point x="-877" y="375" type="line"/>
			<point x="315" y="375" type="line"/>
		</contour>
	</outline>
</glyph>
<glyph name="less_hyphen.rem" format="2">
	<advance width="600"/>
	<outline>
		<contour>
			<point x="-80" y="0" type="line"/>
			<point x="-280" y="265" type="line"/>
			<point x="1" y="264" type="line"/>
			<point x="1" y="264" type="line"/>
			<point x="433" y="264" type="line"/>
			<point x="447" y="365" type="line"/>
			<point x="91" y="365" type="line"/>
			<point x="-258" y="366" type="line"/>
			<point x="13" y="629" type="line"/>
			<point x="-120" y="629" type="line"/>
			<point x="-438" y="315" type="line"/>
			<point x="-203" y="0" type="line"/>
		</contour>
	</outline>
</glyph>
<glyph name="less_hyphen_bar.rem" format="2">
	<advance width="600"/>
	<outline>
		<contour>
			<point x="484" y="629" type="line"/>
			<point x="379" y="629" type="line"/>
			<point x="342" y="365" type="line"/>
			<point x="-511" y="365" type="line"/>
			<point x="-859" y="366" type="line"/>
			<point x="-588" y="629" type="line"/>
			<point x="-721" y="629" type="line"/>
			<point x="-1039" y="315" type="line"/>
			<point x="-804" y="0" type="line"/>
			<point x="-681" y="0" type="line"/>
			<point x="-881" y="265" type="line"/>
			<point x="-600" y="265" type="line"/>
			<point x="-600" y="264" type="line"/>
			<point x="328" y="264" type="line"/>
			<point x="291" y="0" type="line"/>
			<point x="396" y="0" type="line"/>
		</contour>
	</outline>
</glyph>
<glyph name="less_hyphen_greater.rem" format="2">
	<advance width="600"/>
	<outline>
		<contour>
			<point x="-709" y="0" type="line"/>
			<point x="-909" y="265" type="line"/>
			<point x="-628" y="264" type="line"/>
			<point x="-47" y="264" type="line"/>
			<point x="302" y="263" type="line"/>
			<point x="31" y="0" type="line"/>
			<point x="164" y="0" type="line"/>
			<point x="482" y="314" type="line"/>
			<point x="247" y="629" type="line"/>
			<point x="124" y="629" type="line"/>
			<point x="324" y="364" type="line"/>
			<point x="43" y="365" type="line"/>
			<point x="-538" y="365" type="line"/>
			<point x="-887" y="366" type="line"/>
			<point x="-616" y="629" type="line"/>
			<point x="-749" y="629" type="line"/>
			<point x="-1067" y="315" type="line"/>
			<point x="-832" y="0" type="line"/>
		</contour>
	</outline>
</glyph>
<glyph name="less_less.cLig" format="2">
	<advance width="600"/>
	<outline>
		<contour>
			<point x="-94" y="30" type="line"/>
			<point x="-79" y="136" type="line"/>
			<point x="-424" y="296" type="line"/>
			<point x="-34" y="457" type="line"/>
			<point x="-18" y="569" type="line"/>
			<point x="-505" y="360" type="line"/>
			<point x="-522" y="238" type="line"/>
		</contour>
		<contour>
			<point x="476" y="30" type="line"/>
			<point x="491" y="136" type="line"/>
			<point x="146" y="296" type="line"/>
			<point x="536" y="457" type="line"/>
			<point x="552" y="569" type="line"/>
			<point x="65" y="360" type="line"/>
			<point x="48" y="238" type="line"/>
		</contour>
	</outline>
</glyph>
<glyph name="less_less_equal.fina" format="2">
	<advance width="600"/>
	<outline>
		<contour>
			<point x="574" y="629" type="line"/>
			<point x="439" y="629" type="line"/>
			<point x="125" y="316" type="line"/>
			<point x="361" y="0" type="line"/>
			<point x="486" y="0" type="line"/>
			<point x="252" y="309" type="line"/>
		</contour>
		<contour>
			<point x="-74" y="254" type="line"/>
			<point x="-601" y="254" type="line"/>
			<point x="-614" y="158" type="line"/>
			<point x="-129" y="158" type="line"/>
			<point x="-15" y="0" type="line"/>
			<point x="106" y="0" type="line"/>
		</contour>
		<contour>
			<point x="191" y="629" type="line"/>
			<point x="58" y="629" type="line"/>
			<point x="-99" y="471" type="line"/>
			<point x="-570" y="471" type="line"/>
			<point x="-583" y="375" type="line"/>
			<point x="-57" y="375" type="line"/>
		</contour>
	</outline>
</glyph>
<glyph name="less_less_hyphen.fina" format="2">
	<advance width="600"/>
	<outline>
		<contour>
			<point x="563" y="629" type="line"/>
			<point x="427" y="629" type="line"/>
			<point x="119" y="315" type="line"/>
			<point x="354" y="0" type="line"/>
			<point x="478" y="0" type="line"/>
			<point x="248" y="309" type="line"/>
		</contour>
		<contour>
			<point x="182" y="629" type="line"/>
			<point x="46" y="629" type="line"/>
			<point x="-214" y="365" type="line"/>
			<point x="-585" y="365" type="line"/>
			<point x="-599" y="264" type="line"/>
			<point x="-226" y="264" type="line"/>
			<point x="-27" y="0" type="line"/>
			<point x="96" y="0" type="line"/>
			<point x="-133" y="308" type="line"/>
		</contour>
	</outline>
</glyph>
